<?xml version="1.0" encoding="utf-8"?>
<!-- Generator: Adobe Illustrator 15.1.0, SVG Export Plug-In . SVG Version: 6.00 Build 0)  -->
<!DOCTYPE svg PUBLIC "-//W3C//DTD SVG 1.1//EN" "http://www.w3.org/Graphics/SVG/1.1/DTD/svg11.dtd">
<svg version="1.1" id="Layer_2" xmlns="http://www.w3.org/2000/svg" xmlns:xlink="http://www.w3.org/1999/xlink" x="0px" y="0px"
	 width="667.467px" height="745.391px" viewBox="0 0 667.467 745.391" enable-background="new 0 0 667.467 745.391"
	 xml:space="preserve">
<ellipse fill="#FFFFFF" cx="394.178" cy="283.53" rx="62.43" ry="60.793"/>
<polygon fill="#B0A401" points="356.065,72.092 361.677,71.625 419.664,233.896 416.391,230.622 "/>
<polygon fill="#B0A401" points="390.059,91.725 396.059,92.058 426.392,233.391 423.059,231.725 "/>
<polygon fill="#B0A401" points="419.726,111.725 424.726,111.391 435.059,243.058 430.726,238.725 "/>
<polygon fill="#B0A401" points="444.392,112.391 448.392,112.391 438.059,245.391 436.726,240.391 "/>
<polygon fill="#B0A401" points="466.392,127.058 471.059,126.391 443.059,247.058 442.059,245.725 "/>
<polygon fill="#B0A401" points="446.392,255.725 481.392,151.725 487.392,153.391 448.392,258.058 "/>
<polygon fill="#B0A401" points="449.392,259.725 486.725,190.058 491.392,194.058 451.059,263.725 "/>
<polygon fill="#B0A401" points="452.059,266.725 515.392,180.725 521.392,182.725 454.392,271.725 "/>
<polygon fill="#B0A401" points="453.392,274.725 535.558,189.391 539.809,193.725 453.392,280.391 "/>
<polygon fill="#B0A401" points="453.725,283.058 557.725,201.725 563.725,205.725 454.059,289.391 "/>
<polygon fill="#B0A401" points="452.392,292.391 592.392,208.725 596.059,215.058 452.059,299.391 "/>
<polygon fill="#B0A401" points="448.726,300.058 617.726,228.725 621.059,233.725 449.392,304.391 "/>
<polygon fill="#B0A401" points="446.059,305.391 645.726,252.725 646.392,258.391 448.392,310.725 "/>
<polygon fill="#B0A401" points="443.392,311.725 628.392,288.391 628.392,294.391 444.726,316.391 "/>
<polygon fill="#B0A401" points="441.392,319.058 602.726,318.058 602.059,323.725 437.392,324.391 "/>
<polygon fill="#B0A401" points="433.726,323.391 595.392,345.058 594.059,351.058 432.059,326.725 "/>
<polygon fill="#B0A401" points="430.726,329.391 586.726,371.058 587.059,375.725 428.392,332.725 "/>
<polygon fill="#B0A401" points="422.726,333.058 573.059,396.725 573.392,401.391 420.059,335.058 "/>
<polygon fill="#B0A401" points="416.392,337.391 546.392,413.391 546.726,419.058 410.726,337.725 "/>
<polygon fill="#B0A401" points="409.726,339.391 514.059,421.391 511.059,426.391 405.726,339.725 "/>
<polygon fill="#B0A401" points="401.726,342.058 493.392,435.058 490.059,438.058 396.392,340.058 "/>
<polygon fill="#B0A401" points="393.392,339.725 484.392,464.391 480.725,469.058 388.725,342.058 "/>
<polygon fill="#B0A401" points="384.725,341.058 468.059,491.724 462.059,492.724 381.725,338.391 "/>
<polygon fill="#B0A401" points="377.726,337.391 443.059,514.725 438.059,516.725 372.392,337.391 "/>
<polygon fill="#B0A401" points="370.725,336.391 411.392,525.391 405.059,525.724 368.392,335.725 "/>
<polygon fill="#B0A401" points="361.392,330.392 381.059,566.391 373.392,566.391 358.725,332.059 "/>
<polygon fill="#B0A401" points="353.892,325.391 330.392,733.141 322.892,733.766 351.892,325.391 "/>
<polygon fill="#B0A401" points="348.392,321.891 281.142,651.391 271.517,646.891 348.392,316.391 "/>
<polygon fill="#B0A401" points="342.392,313.391 279.392,497.391 272.392,494.891 342.892,306.891 "/>
<polygon fill="#B0A401" points="338.642,306.891 283.642,417.891 277.892,415.391 336.892,304.641 "/>
<polygon fill="#B0A401" points="338.392,301.391 280.642,379.391 275.892,374.891 336.892,296.891 "/>
<polygon fill="#B0A401" points="335.642,288.391 271.892,359.891 266.892,355.141 336.392,284.391 "/>
<polygon fill="#B0A401" points="334.392,280.391 254.142,347.641 249.392,342.641 334.142,278.391 "/>
<polygon fill="#B0A401" points="334.642,274.391 228.642,340.641 223.392,334.391 335.642,271.391 "/>
<polygon fill="#B0A401" points="335.892,266.391 211.892,322.141 207.392,316.641 337.642,263.391 "/>
<polygon fill="#B0A401" points="339.392,257.391 196.392,301.391 193.142,294.141 330.142,255.891 181.892,276.141 178.392,267.641 
	345.642,251.641 "/>
<polygon fill="#B0A401" points="345.392,247.391 157.392,248.391 157.142,240.891 347.892,243.891 "/>
<polygon fill="#B0A401" points="352.142,241.391 162.142,218.141 161.892,211.891 354.892,238.641 "/>
<polygon fill="#B0A401" points="358.642,235.266 156.392,183.641 156.392,176.391 361.892,232.391 "/>
<polygon fill="#B0A401" points="368.892,230.141 178.392,156.141 178.392,148.391 371.392,228.141 "/>
<polygon fill="#B0A401" points="411.392,226.391 319.142,67.891 324.142,68.141 413.642,227.641 "/>
<polygon fill="#B0A401" points="398.142,225.391 271.892,53.891 274.642,48.891 401.392,224.641 "/>
<path fill="#B0A401" d="M390.642,223.891c0,0-165.25-166.5-166-166.5s3.75-4.25,3.75-4.25l163.5,170.5L390.642,223.891z"/>
<polygon fill="#B0A401" points="374.642,228.141 12.642,20.141 15.642,13.891 377.392,225.891 "/>
<polygon fill="#B0A401" points="383.142,225.391 152.142,49.141 155.142,42.641 384.892,224.891 "/>
<ellipse fill="#B0A401" cx="393.892" cy="283.391" rx="62.5" ry="60.5"/>
</svg>
