<?xml version="1.0" encoding="utf-8"?>
<!-- Generator: Adobe Illustrator 22.1.0, SVG Export Plug-In . SVG Version: 6.00 Build 0)  -->
<svg version="1.1" id="Layer_2" xmlns="http://www.w3.org/2000/svg" xmlns:xlink="http://www.w3.org/1999/xlink" x="0px" y="0px"
	 viewBox="0 0 512 512" style="enable-background:new 0 0 512 512;" xml:space="preserve">
<style type="text/css">
	.st0{fill:#020202;}
</style>
<path class="st0" d="M146,118.8L167.4,95c1.4-1.5,3.9-0.7,4,1.4c2.1,30.4,11.9,179.6,0.3,221.3L151,342.8c-2,2.4-5.9,0.9-5.7-2.3
	C147.4,311.6,152.4,223.3,146,118.8z"/>
<circle class="st0" cx="240.4" cy="324.1" r="19.3"/>
<path class="st0" d="M184.6,355.5c0,0-7.9-8.6-30-7.2c-22.2,1.4-32.2,36.5-12.2,49.3l-11.4,2.1l0.7,17.9l47.9-11.4l5.7-17.2
	c0,0-27.2,6.4-32.9-2.1c-5.7-8.6-6.4-21.5,6.4-22.9s22.2,4.3,22.2,4.3L184.6,355.5z"/>
<path class="st0" d="M326.9,214l11.4-22.2l10,2.1c0,0,35.8,22.9,47.9,59.4c12.2,36.5,0.7,73.7-35,87.2
	c-35.8,13.6-60.1-19.3-64.4-30.8c-4.3-11.4,0-22.9,13.6-17.2c13.6,5.7,18.6,34.3,45.8,17.2C383.4,292.6,378.4,252.6,326.9,214z"/>
</svg>
