<?xml version="1.0" encoding="utf-8"?>
<!-- Generator: Adobe Illustrator 22.1.0, SVG Export Plug-In . SVG Version: 6.00 Build 0)  -->
<svg version="1.1" id="Layer_2" xmlns="http://www.w3.org/2000/svg" xmlns:xlink="http://www.w3.org/1999/xlink" x="0px" y="0px"
	 viewBox="0 0 512 512" style="enable-background:new 0 0 512 512;" xml:space="preserve">
<path d="M75,323.5V169.3h21.7l49.4,78c11.4,18.1,20.4,34.3,27.7,50.1l0.5-0.2c-1.8-20.6-2.3-39.4-2.3-63.4v-64.5h18.8v154.3h-20.1
	l-49-78.3c-10.8-17.2-21.1-34.8-28.8-51.5l-0.7,0.2c1.1,19.5,1.6,38,1.6,63.6v65.9H75z"/>
<path d="M235.6,275l-16,48.5h-20.6l52.4-154.3h24L328,323.5h-21.3L290.3,275H235.6z M286.1,259.4L271,215c-3.4-10.1-5.7-19.2-8-28.2
	h-0.5c-2.3,9.2-4.8,18.5-7.8,27.9l-15.1,44.6H286.1z"/>
<path d="M353.7,231.7h22.7l1.4-10.5c2.7-22.7,12.8-49,43.7-49c6.9,0.2,12.4,1.6,15.6,3.4l-3.7,14.6c-3.4-1.4-7.3-2.3-11.9-2.3
	c-15.6,0-22.4,14.9-24.3,31.8l-1.4,11.9h27.5v14.4H394l-5.5,46.9c-3.7,29.5-13,49.7-39.8,49.7c-7.6,0-14-1.6-17.9-3.7l3.7-14.4
	c3.9,1.8,8,2.5,12.8,2.5c14.2,0,19.5-12.6,22.2-35.9l5.3-45.1h-21.1V231.7z"/>
</svg>
