<?xml version="1.0" encoding="utf-8"?>
<!-- Generator: Adobe Illustrator 22.1.0, SVG Export Plug-In . SVG Version: 6.00 Build 0)  -->
<svg version="1.1" id="Layer_2" xmlns="http://www.w3.org/2000/svg" xmlns:xlink="http://www.w3.org/1999/xlink" x="0px" y="0px"
	 viewBox="0 0 512 512" style="enable-background:new 0 0 512 512;" xml:space="preserve">
<g>
	<path d="M54.1,344.5v-4.9c6.8-0.8,11.8-3.3,15.2-7.6c3.4-4.3,9.2-16.2,17.4-35.5l54.8-129h5.2l65.5,149c4.4,9.9,7.8,16,10.5,18.3
		c2.6,2.3,7,3.9,13.2,4.8v4.9h-66.8v-4.9c7.7-0.7,12.6-1.5,14.9-2.5c2.2-1,3.3-3.4,3.3-7.2c0-1.3-0.4-3.5-1.3-6.8
		c-0.9-3.2-2.1-6.6-3.6-10.2l-10.5-25.3h-69.3c-6.8,17.2-10.9,27.7-12.2,31.5c-1.3,3.8-2,6.8-2,9c0,4.4,1.8,7.5,5.4,9.2
		c2.2,1,6.4,1.8,12.5,2.3v4.9H54.1z M167.3,277l-30.1-72.4L106.9,277H167.3z"/>
	<path d="M245.1,340.9c9.1-0.4,15-2.1,17.9-5.1c2.9-3,4.3-9.2,4.3-18.7v-82.4h-21.9v-8.6h21.9c0-13.5,1.8-24.9,5.5-34.3
		c7-17.9,19.9-26.8,38.7-26.8c7.5,0,14.3,1.5,20.2,4.5c6,3,8.9,7,8.9,12.1c0,2.8-1,5.3-3.1,7.6c-2,2.2-4.5,3.3-7.4,3.3
		c-2.5,0-4.6-0.7-6.4-2.2c-1.8-1.5-3.9-4.1-6.4-7.9l-2.2-3.3c-1.2-1.8-2.6-3.3-4.2-4.6c-1.6-1.2-3.9-1.9-6.8-1.9
		c-6.5,0-10.9,3.2-13.2,9.6c-1.3,3.4-1.9,7.9-1.9,13.5v30.4h32v8.6h-32v82.4c0,9.7,1.3,15.8,3.9,18.5c2.6,2.7,9.4,4.4,20.5,5.2v3.6
		h-68.5V340.9z"/>
	<path d="M332.9,340.9c8-0.8,13.3-2.4,16.2-4.8s4.2-7.2,4.2-14.3V196.5c0-5.6-0.5-9.5-1.4-11.7c-1.7-3.6-5.2-5.4-10.4-5.4
		c-1.2,0-2.5,0.1-3.9,0.4c-1.4,0.3-3.2,0.6-5.3,1.2v-4.2c11.5-3.1,25.5-7.2,41.7-12.3c0.6,0,1,0.3,1.1,0.8c0.1,0.5,0.2,1.6,0.2,3.3
		v153.9c0,7.4,1.3,12.3,3.8,14.4s7.9,3.6,15.9,4.2v3.6h-62.1V340.9z"/>
	<path d="M433,343.3c-2.8-2.9-4.2-6.3-4.2-10.3c0-4,1.4-7.4,4.3-10.3c2.9-2.8,6.3-4.2,10.3-4.2c4,0,7.4,1.4,10.3,4.2
		c2.8,2.8,4.2,6.2,4.2,10.3c0,4-1.4,7.5-4.2,10.3c-2.8,2.9-6.2,4.3-10.3,4.3C439.3,347.6,435.8,346.2,433,343.3z"/>
</g>
</svg>
