<?xml version="1.0" encoding="utf-8"?>
<!-- Generator: Adobe Illustrator 22.1.0, SVG Export Plug-In . SVG Version: 6.00 Build 0)  -->
<svg version="1.1" id="Layer_2" xmlns="http://www.w3.org/2000/svg" xmlns:xlink="http://www.w3.org/1999/xlink" x="0px" y="0px"
	 viewBox="0 0 512 512" style="enable-background:new 0 0 512 512;" xml:space="preserve">
<g>
	<g>
		<path d="M159.8,258l67.3-84.1c1-1.2,1.1-2.9,0.4-4.2c-0.7-1.3-2.1-2.1-3.6-2.1h-28.8c-1.2,0-2.4,0.6-3.2,1.5l-56.8,72.1v-69.7
			c0-2.2-1.8-3.9-4-3.9H108c-2.2,0-4,1.8-4,3.9v169c0,2.2,1.8,3.9,4,3.9h23.2c2.2,0,4-1.8,4-3.9v-60.6l3.4-0.1l60.8,63.4
			c0.8,0.8,1.8,1.2,2.9,1.2h27.4c1.5,0,2.9-0.9,3.6-2.2c0.7-1.4,0.4-3.1-0.6-4.3L159.8,258z"/>
		<path d="M407.9,174.7c0-2.8-2.3-5.1-5.2-5.1H376c-2.1,0-4.1,1.4-4.8,3.4l-29,78.7c-5.3,14.9-9.3,27.2-12.6,38.1
			c-3.1-11-7-23.3-12-38.1L289.8,173c-0.7-2.1-2.7-3.4-4.9-3.4h-26.8c-2.8,0-5.1,2.3-5.2,5.1l-0.4,162.7c0,1.4,0.5,2.7,1.5,3.6
			c1,1,2.3,1.5,3.6,1.5l16.6,0V340l0.1,2.5c2.8,0,5.1-2.3,5.1-5.1c0-0.3,0-0.7-0.1-1l0-104.4c2.6,8.6,5.7,18,9.3,28.7l26.4,77.5
			c0.7,2.1,2.7,3.5,4.9,3.5H336c2.2,0,4.1-1.4,4.8-3.4l28.6-78.9c4.2-11.4,7.9-22,11.2-32.1l0,110.2c0,1.4,0.5,2.7,1.5,3.6
			c1,1,2.3,1.5,3.6,1.5h17c1.4,0,2.7-0.5,3.6-1.5c1-1,1.5-2.3,1.5-3.6L407.9,174.7z"/>
	</g>
</g>
</svg>
