<?xml version="1.0" encoding="utf-8"?>
<!-- Generator: Adobe Illustrator 22.1.0, SVG Export Plug-In . SVG Version: 6.00 Build 0)  -->
<svg version="1.1" id="Layer_2" xmlns="http://www.w3.org/2000/svg" xmlns:xlink="http://www.w3.org/1999/xlink" x="0px" y="0px"
	 viewBox="0 0 512 512" style="enable-background:new 0 0 512 512;" xml:space="preserve">
<g>
	<path d="M72.5,311.3c7.4-0.4,12.2-1.6,14.3-3.4c2.2-1.9,3.3-6.2,3.3-13.1v-81.8c0-6.8-1.1-11.1-3.3-13.1c-2.2-1.9-7-3.1-14.3-3.5
		V193H124c14.7,0,26.4,2.4,35,7.1c8.6,4.7,13,12.9,13,24.5c0,8.7-3,15.3-9.1,19.8c-3.4,2.6-8.5,4.7-15.4,6.4
		c8.4,2,15.7,5.4,21.6,10.2c6,4.8,9,11.4,9,20c0,14.4-6.6,24.2-19.9,29.6c-7,2.8-15.6,4.2-25.8,4.2H72.5V311.3z M141.7,244.5
		c7.8-3.6,11.7-10,11.7-19.3c0-11-4.5-18.4-13.5-22.2c-5-2.1-12.5-3.1-22.6-3.1c-3.8,0-6.2,0.3-7.1,1c-0.9,0.7-1.3,2.5-1.3,5.4v41.6
		l17.5-0.3C132.5,247.4,137.6,246.4,141.7,244.5z M147.6,302.6c6.3-3.7,9.5-10.7,9.5-21c0-10.3-3.7-17.3-11.1-21.1
		c-7.4-3.8-16.9-5.7-28.4-5.7c-2.8,0-4.6,0-5.3,0c-0.7,0-1.9,0-3.5-0.1v45.8c0,3.2,0.9,5.2,2.7,6.2c1.8,0.9,6,1.4,12.5,1.4
		C133.4,308.1,141.2,306.2,147.6,302.6z"/>
	<path d="M247.6,232.7c2.4,1.3,4.7,3,6.9,5.2v-28.6c0-3.7-0.4-6.2-1.2-7.5c-0.8-1.4-2.7-2.1-5.8-2.1c-0.7,0-1.3,0-1.9,0.1
		c-0.5,0.1-1.7,0.2-3.6,0.4v-3l7.4-1.9c2.7-0.7,5.4-1.5,8.1-2.2c2.7-0.8,5.1-1.5,7.1-2.2c1-0.3,2.5-0.9,4.8-1.7l0.5,0.2l-0.2,9.4
		c-0.1,3.4-0.1,6.9-0.2,10.6c-0.1,3.6-0.1,7.2-0.1,10.7l-0.2,73.4c0,3.9,0.5,6.6,1.4,8.2c1,1.6,3.5,2.3,7.6,2.3c0.7,0,1.3,0,2,0
		c0.7,0,1.3-0.1,2-0.2v3c-0.4,0.1-4.7,1.6-13,4.5l-14.1,5.3l-0.6-0.8v-11c-3.4,3.7-6.3,6.3-8.7,7.8c-4.4,2.7-9.4,4-15.2,4
		c-10.2,0-18.4-3.9-24.7-11.8c-6.3-7.9-9.5-17-9.5-27.3c0-13,3.8-24.1,11.4-33.5c7.6-9.3,16.8-14,27.8-14
		C239.9,229.8,243.9,230.8,247.6,232.7z M250.2,302.6c2.9-2.8,4.3-5.4,4.3-7.8v-38.5c0-7.8-2.1-13.3-6.2-16.5
		c-4.2-3.2-8.2-4.8-12.2-4.8c-7.5,0-13.4,3.3-17.6,10c-4.2,6.7-6.3,14.9-6.3,24.7c0,9.6,2.2,18.2,6.7,25.8
		c4.5,7.5,11.1,11.3,20,11.3C243.5,306.7,247.3,305.3,250.2,302.6z"/>
	<path d="M293.5,286.4h3c1.4,6.8,3.2,12.1,5.6,15.7c4.2,6.7,10.3,10.1,18.4,10.1c4.5,0,8-1.2,10.6-3.7c2.6-2.5,3.9-5.7,3.9-9.7
		c0-2.5-0.8-4.9-2.2-7.3c-1.5-2.3-4.1-4.6-7.9-6.8l-10.1-5.7c-7.4-4-12.8-7.9-16.3-11.9c-3.5-4-5.2-8.7-5.2-14.2
		c0-6.7,2.4-12.2,7.2-16.5c4.8-4.3,10.8-6.5,18.1-6.5c3.2,0,6.7,0.6,10.5,1.8c3.8,1.2,5.9,1.8,6.4,1.8c1.1,0,1.9-0.1,2.3-0.4
		c0.5-0.3,0.9-0.8,1.3-1.4h2.2l0.6,25.1H339c-1.2-5.8-2.8-10.3-4.9-13.6c-3.7-6-9.1-9-16.1-9c-4.2,0-7.5,1.3-9.9,3.9
		c-2.4,2.6-3.6,5.6-3.6,9.1c0,5.5,4.1,10.4,12.4,14.7l11.9,6.4c12.8,6.9,19.1,15,19.1,24.3c0,7.1-2.6,12.8-7.9,17.3
		c-5.3,4.5-12.2,6.7-20.8,6.7c-3.6,0-7.7-0.6-12.2-1.8c-4.5-1.2-7.2-1.8-8.1-1.8c-0.7,0-1.3,0.3-1.9,0.8c-0.5,0.5-1,1.1-1.3,1.8
		h-2.3V286.4z"/>
	<path d="M366.3,281.5c1.7,7.4,4.1,13.1,7.1,17.1c5.4,7.2,13.5,10.9,24.3,11v-52c-11.9-7-19.7-12.4-23.5-16.1
		c-6.1-6-9.2-13-9.2-21.1c0-6.8,3-13,8.9-18.7c5.9-5.6,13.9-8.7,23.8-9.1V181h6.4v11.5c5,0.3,10.4,1.3,16.4,2.9
		c5.6,1.7,9.9,4,13.1,6.9v20.5h-2.7c-1.4-7.9-4.6-14-9.6-18.3c-5-4.3-10.8-6.6-17.2-6.8v45.1c13.4,6.8,22.6,12.9,27.8,18.3
		c5.1,5.4,7.7,12.6,7.7,21.6c0,3.5-0.6,6.9-1.8,10.2c-1.8,5.2-4.9,9.6-9.2,13.1c-3.3,2.8-7.2,4.8-11.9,6.2
		c-4.6,1.4-8.8,2.2-12.7,2.5V331h-6.4v-16.3c-7.8-0.2-14.3-1.1-19.4-2.7c-3.4-1.1-8.3-3.3-14.7-6.7v-23.8H366.3z M397.6,197.7
		c-5.6,0.7-10.2,2.8-13.7,6.2c-3.5,3.4-5.2,7.7-5.2,12.9c0,4.9,2.5,9.8,7.5,14.7c3.1,3,6.9,5.8,11.4,8.4V197.7z M416.4,304.9
		c5.8-4,8.7-10.1,8.7-18.4c0-5.7-2.1-10.8-6.4-15.2c-2.6-2.6-7.5-6.1-14.7-10.5v48.8C409.2,308.6,413.3,307.1,416.4,304.9z"/>
</g>
</svg>
