<?xml version="1.0" encoding="utf-8"?>
<!-- Generator: Adobe Illustrator 22.1.0, SVG Export Plug-In . SVG Version: 6.00 Build 0)  -->
<svg version="1.1" id="Layer_2" xmlns="http://www.w3.org/2000/svg" xmlns:xlink="http://www.w3.org/1999/xlink" x="0px" y="0px"
	 viewBox="0 0 512 512" style="enable-background:new 0 0 512 512;" xml:space="preserve">
<path d="M388.4,263.3c-14.8-39.9-46.4-52.9-71.4-48.2s-44.5,49.2-27.8,64s57.5,13.9,57.5,13.9c-5.6,49.2-95.5,82.6-114.1,70.5
	c-17.4-11.3-20.1-27.6-19.6-102.6l45.6-0.4l-28.8-32.5h-16.6c-0.4-72.7-8.7-87.3-13-100.2c-4.6-13.9-13.9-18.6-23.2-15.8
	c-9.3,2.8-37.1,23.2-31.5,37.1c5.6,13.9,30.6,10.2,30.6,10.2c8.3,18.6,6.5,23.2,7.4,58.4c0.1,3.4,0.1,6.8,0.1,10.2h-65.1l23.2,33.4
	l41.2-0.3c-0.7,20.5-1.5,41.5-0.4,64.3c1.9,39,5.6,44.5,39,64.9s79.8,9.3,121.5-23.2S403.3,303.2,388.4,263.3z"/>
</svg>
