<?xml version="1.0" encoding="utf-8"?>
<!-- Generator: Adobe Illustrator 22.1.0, SVG Export Plug-In . SVG Version: 6.00 Build 0)  -->
<svg version="1.1" id="Layer_3" xmlns="http://www.w3.org/2000/svg" xmlns:xlink="http://www.w3.org/1999/xlink" x="0px" y="0px"
	 viewBox="0 0 512 512" style="enable-background:new 0 0 512 512;" xml:space="preserve">
<g>
	<path d="M80.5,148.9c12.4-2.6,32-4.6,51.8-4.6c28.4,0,46.6,4.9,60.3,16c11.4,8.5,18.3,21.5,18.3,38.8c0,21.2-14,39.8-37.2,48.3v0.7
		c20.9,5.2,45.3,22.5,45.3,55.1c0,18.9-7.5,33.3-18.6,44c-15.3,14-40.1,20.5-76,20.5c-19.6,0-34.6-1.3-44-2.6V148.9z M108.9,238.9
		h25.8c30,0,47.6-15.6,47.6-36.8c0-25.8-19.6-35.9-48.3-35.9c-13,0-20.5,1-25.1,2V238.9z M108.9,344.2c5.5,1,13.7,1.3,23.8,1.3
		c29.3,0,56.4-10.8,56.4-42.7c0-30-25.8-42.4-56.7-42.4h-23.5V344.2z"/>
	<path d="M257.2,148.9c17.3-2.6,37.8-4.6,60.3-4.6c40.8,0,69.8,9.5,89,27.4c19.6,17.9,31,43.4,31,78.9c0,35.9-11.1,65.2-31.6,85.4
		c-20.5,20.5-54.4,31.6-97.2,31.6c-20.2,0-37.2-1-51.5-2.6V148.9z M285.6,343.2c7.2,1.3,17.6,1.6,28.7,1.6
		c60.6,0,93.6-33.9,93.6-93.2c0.3-51.8-29-84.8-89-84.8c-14.7,0-25.8,1.3-33.3,2.9V343.2z"/>
</g>
</svg>
