<?xml version="1.0" encoding="utf-8"?>
<!-- Generator: Adobe Illustrator 22.1.0, SVG Export Plug-In . SVG Version: 6.00 Build 0)  -->
<svg version="1.1" id="Layer_2" xmlns="http://www.w3.org/2000/svg" xmlns:xlink="http://www.w3.org/1999/xlink" x="0px" y="0px"
	 viewBox="0 0 512 512" style="enable-background:new 0 0 512 512;" xml:space="preserve">
<g>
	<path d="M67.5,165.7h96.4v19.4H90.6v59.5h67.7v19.1H90.6v81H67.5V165.7z"/>
	<path d="M196.8,168.1c10.1-2.1,26-3.7,42.2-3.7c23.1,0,38,4,49.1,13c9.3,6.9,14.9,17.5,14.9,31.6c0,17.3-11.4,32.4-30.3,39.3v0.5
		c17,4.2,36.9,18.3,36.9,44.9c0,15.4-6.1,27.1-15.1,35.8c-12.5,11.4-32.7,16.7-61.9,16.7c-15.9,0-28.1-1.1-35.8-2.1V168.1z
		 M219.9,241.4h21c24.4,0,38.8-12.7,38.8-30c0-21-15.9-29.2-39.3-29.2c-10.6,0-16.7,0.8-20.4,1.6V241.4z M219.9,327.2
		c4.5,0.8,11.2,1.1,19.4,1.1c23.9,0,45.9-8.8,45.9-34.8c0-24.4-21-34.5-46.2-34.5h-19.1V327.2z"/>
	<path d="M447.4,309.6c0,13.3,0.3,25,1.1,35h-20.7l-1.3-21h-0.5c-6.1,10.4-19.6,23.9-42.5,23.9c-20.2,0-44.3-11.2-44.3-56.3v-75.1
		h23.4v71.2c0,24.4,7.4,40.9,28.7,40.9c15.7,0,26.6-10.9,30.8-21.2c1.3-3.5,2.1-7.7,2.1-11.9v-78.9h23.4V309.6z"/>
</g>
</svg>
