<?xml version="1.0" encoding="utf-8"?>
<!-- Generator: Adobe Illustrator 22.1.0, SVG Export Plug-In . SVG Version: 6.00 Build 0)  -->
<svg version="1.1" id="Layer_3" xmlns="http://www.w3.org/2000/svg" xmlns:xlink="http://www.w3.org/1999/xlink" x="0px" y="0px"
	 viewBox="0 0 512 512" style="enable-background:new 0 0 512 512;" xml:space="preserve">
<g>
	<path d="M214.4,245.7c25.8,1.9,45,8.3,57.5,19.3c12.5,11,18.8,24.7,18.8,41.1c0,14.3-4.3,26.6-12.7,37
		c-8.5,10.3-19.4,17.1-32.6,20.3c-13.3,3.2-31,4.8-53.3,4.8h-89.2v-7.7h8.7c9.7,0,16.5-1.2,20.2-3.7c3.7-2.5,6.1-6.3,7.1-11.5
		c1-5.2,1.5-17.3,1.5-36.3V198.2c0-18.5-0.5-30.4-1.6-35.7c-1.1-5.4-3.3-9.1-6.7-11.1c-3.4-2-10.9-3-22.4-3h-4.4v-7.7l37.4-1
		l42.6-1.3c62.2,0,93.3,17.9,93.3,53.7c0,14.8-5.3,26.6-16,35.6C251.9,236.5,235.9,242.6,214.4,245.7z M173.3,242.5
		c2.8,0.1,5.1,0.2,7,0.2c24.2,0,40.6-3.8,49.5-11.4c8.8-7.6,13.3-19.9,13.3-36.9c0-11.9-1.7-21-5.2-27.5c-3.5-6.5-8.7-11.5-15.6-15
		c-6.9-3.5-18.8-5.3-35.6-5.3c-4.4,0-8.8,0.2-13.4,0.5V242.5z M173.3,250.7v50.7c0,21.6,0.4,35.3,1.2,41.1
		c0.8,5.8,2.9,10.2,6.3,13.2c3.4,3,10.1,4.5,20.2,4.5c17.9,0,31.3-4.6,40.3-13.8c8.9-9.2,13.4-22.9,13.4-41.3
		c0-18.8-5.1-32.6-15.2-41.5c-10.1-8.9-27.9-13.3-53.4-13.3C182,250.4,177.8,250.5,173.3,250.7z"/>
	<path d="M319.9,372.5v-45.1h6.5c7.6,26.1,21.2,39.1,40.8,39.1c8.5,0,14.8-2.6,19-7.7c4.2-5.1,6.3-10.8,6.3-16.9
		c0-7.2-2.2-13-6.7-17.6c-4.6-4.6-13.5-10.1-26.7-16.6c-13.9-6.8-23.8-13.5-29.9-20.1c-6-6.5-9.1-14.5-9.1-24
		c0-9.1,3.2-17.7,9.7-25.9c6.5-8.2,15.6-12.3,27.3-12.3c12,0,21.9,4.9,29.7,14.6c1.7-1.7,3.9-5.8,6.5-12.2h6.2V270h-6.2
		c-2.2-10.2-6.6-18.9-13-26.2c-6.4-7.3-14-11-22.7-11c-6.7,0-12.1,2.1-16.3,6.2c-4.1,4.1-6.2,8.9-6.2,14.4c0,6,2.3,11.2,6.9,15.6
		c4.5,4.5,13,9.6,25.7,15.3c19,8.6,30.6,17,34.9,25.2c4.2,8.3,6.4,16.2,6.4,23.8c0,12-3.9,21.7-11.8,29.2
		c-7.9,7.5-17.8,11.2-29.8,11.2c-12.6,0-23.9-5.2-33.7-15.6c-3,3.4-5.5,8.2-7.4,14.4H319.9z"/>
</g>
</svg>
