<?xml version="1.0" encoding="utf-8"?>
<!-- Generator: Adobe Illustrator 22.1.0, SVG Export Plug-In . SVG Version: 6.00 Build 0)  -->
<svg version="1.1" id="Layer_2" xmlns="http://www.w3.org/2000/svg" xmlns:xlink="http://www.w3.org/1999/xlink" x="0px" y="0px"
	 viewBox="0 0 512 512" style="enable-background:new 0 0 512 512;" xml:space="preserve">
<g>
	<path d="M221,260.5c17-14.3,23.4-27.5,23.4-48.3c0-14.2-5.1-26.5-14.4-34.7c-11.3-10.2-27.3-14.8-51.8-14.8l-43,0.1
		c-1.3,0-2.4,1.1-2.4,2.4V340c0,1.3,1.1,2.4,2.4,2.4h22.4c1.3,0,2.4-1.1,2.4-2.4v-72.8h36.2l26.7,73.6c0.3,0.9,1.2,1.6,2.2,1.6h23.2
		c0.8,0,1.5-0.4,2-1c0.4-0.6,0.5-1.5,0.3-2.2L221,260.5z M180.5,245.4H160v-60.6l19.8,0c17.1,0.2,37.5,5.6,37.5,30.1
		C217.2,233.4,202.8,245.4,180.5,245.4z M376.2,271.5c-2-5.5-5.1-10.1-9.1-13.8c-4.1-3.7-9.3-7-15.4-9.6c-5.5-2.3-11.9-4.6-19.1-6.9
		v-52.8c12,2.9,18.6,10.8,19.6,23.6h0l0.1,1.4c0.2,6,5.1,10.6,11.1,10.6c6.4,0,11.3-4.7,11.3-11l-0.2-2
		c-1.6-26.2-15.4-40.7-41.8-44.2v-28.5c0-5.9-4.8-10.8-10.8-10.8c-5.9,0-10.8,4.8-10.8,10.8v28.2c-4.7,0.6-9.2,1.6-13.3,3.2
		c-6.4,2.5-11.9,5.9-16.4,10.2c-4.5,4.3-8,9.4-10.3,15.2c-2.4,5.8-3.6,12.4-3.6,19.5c0,7.9,0.9,14.5,2.7,19.6
		c1.8,5.1,4.6,9.5,8.3,13c3.8,3.6,8.7,6.7,14.6,9.2c5.1,2.2,11.1,4.3,18,6.4v60c-15.4-3.3-23.6-13.6-24.2-30.6l0-1.5
		c0-6.1-5-11-11.1-11c-6.5,0-11.3,4.6-11.3,11c1.6,32.7,16.9,50.4,46.7,54.2v28.4c0,5.9,4.8,10.8,10.8,10.8
		c5.9,0,10.8-4.8,10.8-10.8v-28.3c5.1-0.7,10-1.8,14.3-3.6c6.8-2.8,12.7-6.7,17.5-11.5c4.8-4.8,8.5-10.5,11-17
		c2.6-6.5,3.8-13.6,3.8-21.1C379.2,283.9,378.2,277.1,376.2,271.5z M307.8,233.5c-5.4-1.9-9.3-3.7-12-5.7c-2.8-2-4.5-4.4-5.1-6.9
		c-0.6-2.3-0.9-5.3-0.9-8.9c0-4.1,0.8-7.8,2.5-11c1.7-3.2,4-5.8,6.9-7.8c2.8-2,6.2-3.5,9.9-4.5c0.6-0.2,1.3-0.3,1.9-0.4v46.3
		C309.9,234.2,308.8,233.8,307.8,233.5z M348.6,316.3c-3.9,3.7-9.3,6.1-16,7.2V270c1.1,0.4,2.2,0.8,3.2,1.1c5.5,2,9.9,4.1,12.9,6.1
		c3.2,2.2,5.4,4.7,6.6,7.5c1.1,2.7,1.7,6.1,1.7,9.9C356.9,303.8,354.1,311,348.6,316.3z"/>
</g>
</svg>
