<?xml version="1.0" encoding="utf-8"?>
<!-- Generator: Adobe Illustrator 22.1.0, SVG Export Plug-In . SVG Version: 6.00 Build 0)  -->
<svg version="1.1" id="Layer_3" xmlns="http://www.w3.org/2000/svg" xmlns:xlink="http://www.w3.org/1999/xlink" x="0px" y="0px"
	 viewBox="0 0 512 512" style="enable-background:new 0 0 512 512;" xml:space="preserve">
<path d="M51,356.1c13.5-1.4,22.2-4.4,26-9.2c3.8-4.7,5.7-15.7,5.7-32.9V170.1l-4.5-5.3c-4.8-5.6-8.8-9.1-12.2-10.4
	c-3.3-1.3-8.4-2.1-15.1-2.3v-6.1h55.7l126.1,156.2V193.8c0-17.8-2.7-29.5-8-34.9c-3.5-3.5-11.3-5.8-23.3-6.8v-6.1h76.7v6.1
	c-12.4,1.3-20.7,4.3-24.9,9.1c-4.1,4.8-6.2,15.7-6.2,32.8v171.9h-5.6L97.1,186.9V314c0,17.8,2.6,29.5,7.8,34.9
	c3.4,3.5,11,5.9,22.8,7.2v6.1H51V356.1z"/>
<path d="M305.3,214.5v102c0,7.2,1,13,3,17.4c3.9,8.1,11.2,12.1,21.7,12.1c7.2,0,14.3-2.4,21.2-7.2c3.9-2.7,7.9-6.3,12-11v-87.4
	c0-8.2-1.6-13.6-4.8-16.1c-3.2-2.6-9.6-4.1-19.1-4.6v-5.3h51.5v112.3c0,7.2,1.3,12.2,3.9,14.9c2.6,2.7,8.1,3.9,16.5,3.6v4.5
	c-5.8,1.6-10.2,2.8-12.9,3.6c-2.8,0.8-7.4,2.3-13.9,4.4c-2.8,1-8.8,3.2-18.2,6.9c-0.5,0-0.9-0.2-1-0.7c-0.1-0.5-0.2-1-0.2-1.7v-25.7
	c-7.2,8.6-13.8,15-19.8,19.1c-9,6.4-18.6,9.6-28.7,9.6c-9.2,0-18-3.3-26.1-9.9c-8.3-6.5-12.4-17.4-12.4-32.7v-82.9
	c0-8.4-1.8-14.1-5.4-16.9c-2.3-1.8-7.3-3.1-15-3.8v-4.5H305.3z"/>
<path d="M430.1,360.6c-3.5-3.6-5.3-7.8-5.3-12.8c0-5,1.8-9.2,5.3-12.8c3.6-3.5,7.8-5.3,12.8-5.3c5,0,9.2,1.8,12.8,5.3
	c3.5,3.5,5.3,7.8,5.3,12.8c0,5-1.7,9.3-5.2,12.8c-3.5,3.6-7.7,5.3-12.8,5.3S433.6,364.2,430.1,360.6z"/>
</svg>
