<?xml version="1.0" encoding="utf-8"?>
<!-- Generator: Adobe Illustrator 22.1.0, SVG Export Plug-In . SVG Version: 6.00 Build 0)  -->
<svg version="1.1" id="Layer_3" xmlns="http://www.w3.org/2000/svg" xmlns:xlink="http://www.w3.org/1999/xlink" x="0px" y="0px"
	 viewBox="0 0 512 512" style="enable-background:new 0 0 512 512;" xml:space="preserve">
<g>
	<path d="M316.6,142.9c-16.9-15.2-42.6-22.9-76.3-22.9l-64.7-0.6c-1.2,0.1-2.4,0.5-3.4,1.4c-0.9,0.9-1.4,2.1-1.4,3.4v263.6
		c0,2.5,2.1,4.6,4.6,4.6h33.7c2.5,0,4.6-2.1,4.6-4.6v-98.9c7.2,1.2,15,1.3,22.5,1.3c35.4,0,64.9-10.8,83.2-30.1
		c14.2-14.7,21.4-34.5,21.4-59C341.1,177.2,332.4,156.5,316.6,142.9z M237.3,253.8c-9.5,0-17.2-0.6-23.3-1.7v-95.9h27.1
		c21.3,0,56.9,6,56.9,46.5C298,235.1,275.9,253.8,237.3,253.8z"/>
</g>
</svg>
