<?xml version="1.0" encoding="utf-8"?>
<!-- Generator: Adobe Illustrator 22.1.0, SVG Export Plug-In . SVG Version: 6.00 Build 0)  -->
<svg version="1.1" id="Layer_2" xmlns="http://www.w3.org/2000/svg" xmlns:xlink="http://www.w3.org/1999/xlink" x="0px" y="0px"
	 viewBox="0 0 512 512" style="enable-background:new 0 0 512 512;" xml:space="preserve">
<g>
	<g>
		<path d="M224.2,67.4c-35.2,0-62.4,12.7-82.9,38.8l-0.1-27.3c0-3.1-2.5-5.6-5.6-5.6l-39.2-0.1c-1.5,0-2.9,0.6-3.9,1.6
			c-1,1-1.6,2.5-1.6,3.9L90.9,439c0,1.5,0.6,2.9,1.6,3.9c1.1,1.1,2.5,1.6,3.9,1.6h40.6c3.1,0,5.6-2.5,5.6-5.6V315.5
			c17.4,19.3,43.8,30.3,73.7,30.3c59.5,0,123.5-44.7,123.5-142.9C339.8,124.4,291.2,67.4,224.2,67.4z M217,298.4
			c-42.1,0-76.3-41.1-76.3-91.7S174.9,115,217,115c42.1,0,76.3,41.1,76.3,91.7C293.3,257.2,259.1,298.4,217,298.4z"/>
		<path d="M388.3,267.6c-22.5,0-38.9,15.4-38.9,36.6c0,21.8,16,37.1,38.9,37.1c22.9,0,38.8-15,38.8-36.6
			C427.1,283.2,410.8,267.6,388.3,267.6z"/>
	</g>
</g>
</svg>
