<?xml version="1.0" encoding="utf-8"?>
<!-- Generator: Adobe Illustrator 22.1.0, SVG Export Plug-In . SVG Version: 6.00 Build 0)  -->
<svg version="1.1" id="Layer_2" xmlns="http://www.w3.org/2000/svg" xmlns:xlink="http://www.w3.org/1999/xlink" x="0px" y="0px"
	 viewBox="0 0 512 512" style="enable-background:new 0 0 512 512;" xml:space="preserve">
<g>
	<path d="M148.9,249c15.7-8,25.3-22.3,25.3-38.6c0-14.2-5.5-25.8-15.7-33.4c-11.5-9.3-27-13.5-50.2-13.5c-15.1,0-31.3,1.4-42.2,3.7
		c-1.3,0.3-2.3,1.5-2.3,2.8v173.5c0,1.4,1.1,2.7,2.5,2.9c5.7,0.8,18,2.1,35.7,2.1c29.7,0,50.2-5.6,63-17.3
		c10.5-10.2,15.8-22.8,15.8-37.4C180.7,269.7,164.8,255.2,148.9,249z M92.2,187.9c4.4-0.7,10.2-1.1,17.3-1.1
		c23.8,0,35.9,8.7,35.9,25.9c0,16.2-13.9,26.7-35.3,26.7H92.2V187.9z M108.4,325c-7.2,0-12.4-0.2-16.2-0.7v-61.9h16
		c12.8,0,42.7,3,42.7,31.1C150.8,320.9,124.2,325,108.4,325z M316.7,325v19.1c0,1.6-1.3,2.9-2.9,2.9H185.1c-1.6,0-2.9-1.3-2.9-2.9
		v-13.3c0-0.6,0.2-1.1,0.5-1.6L278,189.7h-84.6c-1.6,0-2.9-1.3-2.9-2.9v-19.1c0-1.6,1.3-2.9,2.9-2.9h119.1c1.6,0,2.9,1.3,2.9,2.9
		v13.9c0,0.6-0.2,1.1-0.5,1.6l-94.8,138.9h93.7C315.4,322.1,316.7,323.4,316.7,325z M445.1,272.2c-2.1-5.7-5.3-10.5-9.5-14.4
		c-4.3-3.9-9.7-7.3-16.1-10c-5.7-2.4-12.4-4.8-19.9-7.1v-55c12.5,3.1,19.4,11.3,20.4,24.6h0l0.1,1.5c0.2,6.2,5.3,11.1,11.5,11.1
		c6.7,0,11.7-4.9,11.8-11.5l-0.2-2.1c-1.7-27.3-16-42.4-43.6-46v-29.7c0-6.2-5-11.2-11.2-11.2c-6.2,0-11.2,5-11.2,11.2V163
		c-4.9,0.6-9.6,1.7-13.9,3.3c-6.6,2.6-12.4,6.1-17.1,10.6c-4.7,4.5-8.3,9.8-10.7,15.9c-2.5,6.1-3.7,12.9-3.7,20.3
		c0,8.2,0.9,15.1,2.8,20.4c1.8,5.3,4.8,9.9,8.7,13.5c4,3.7,9.1,6.9,15.2,9.6c5.3,2.3,11.6,4.5,18.7,6.7v62.5
		c-16.1-3.5-24.6-14.2-25.2-31.9l0-1.5c0-6.3-5.2-11.5-11.6-11.5c-6.8,0-11.7,4.8-11.8,11.5c1.7,34,17.6,52.5,48.6,56.4v29.6
		c0,6.2,5,11.2,11.2,11.2c6.2,0,11.2-5,11.2-11.2v-29.4c5.4-0.7,10.4-1.9,14.9-3.8c7.1-2.9,13.2-7,18.2-12c5-5,8.9-11,11.5-17.7
		c2.6-6.7,4-14.1,4-21.9C448.3,285.1,447.3,278,445.1,272.2z M377.3,233.7c-1.2-0.4-2.3-0.8-3.3-1.1c-5.6-2-9.7-3.9-12.5-5.9
		c-2.9-2.1-4.7-4.5-5.4-7.1c-0.6-2.4-0.9-5.5-0.9-9.3c0-4.3,0.9-8.2,2.6-11.5c1.7-3.3,4.1-6,7.2-8.2c3-2.1,6.4-3.7,10.3-4.7
		c0.7-0.2,1.3-0.3,2-0.5L377.3,233.7L377.3,233.7L377.3,233.7z M416.4,318.8c-4,3.9-9.6,6.3-16.7,7.5v-55.7c1.1,0.4,2.3,0.8,3.3,1.2
		c5.7,2.1,10.3,4.2,13.5,6.4c3.3,2.3,5.7,4.9,6.8,7.8c1.1,2.8,1.7,6.3,1.7,10.3C425,305.8,422.1,313.3,416.4,318.8z"/>
</g>
</svg>
