<?xml version="1.0" encoding="utf-8"?>
<!-- Generator: Adobe Illustrator 22.1.0, SVG Export Plug-In . SVG Version: 6.00 Build 0)  -->
<svg version="1.1" id="Layer_3" xmlns="http://www.w3.org/2000/svg" xmlns:xlink="http://www.w3.org/1999/xlink" x="0px" y="0px"
	 viewBox="0 0 512 512" style="enable-background:new 0 0 512 512;" xml:space="preserve">
<g>
	<path d="M345.1,253.3l-10.6-3.3v-95.7c21.4,3.9,37.6,22.6,37.6,45.1h16.4c0-31.5-23.6-57.6-54-61.7v-16.9h-16.4v16.9
		c-30.4,4-54,30.1-54,61.7c0,29.8,15,50.3,43.4,59.3l10.6,3.3v95.7c-21.4-3.9-37.6-22.6-37.6-45.1h-16.4c0,31.5,23.6,57.6,54,61.7
		v16.9h16.4v-16.9c30.4-4,54-30.1,54-61.7C388.5,282.8,373.5,262.3,345.1,253.3z M312.5,243c-21.8-6.9-32-20.8-32-43.7
		c0-22.5,16.3-41.2,37.6-45.1v90.5L312.5,243z M334.5,357.7v-90.5l5.6,1.8c21.8,6.9,32,20.8,32,43.7
		C372.1,335.1,355.9,353.8,334.5,357.7z"/>
	<path d="M185.8,153.6c25.3,0,45.9,20.6,45.9,45.9H248c0-34.3-27.9-62.3-62.3-62.3c-34.3,0-62.3,27.9-62.3,62.3v113.2
		c0,34.3,27.9,62.3,62.3,62.3c34.3,0,62.3-27.9,62.3-62.3h-16.4c0,25.3-20.6,45.9-45.9,45.9c-25.3,0-45.9-20.6-45.9-45.9V199.4
		C139.9,174.1,160.5,153.6,185.8,153.6z"/>
</g>
</svg>
