<?xml version="1.0" encoding="utf-8"?>
<!-- Generator: Adobe Illustrator 22.1.0, SVG Export Plug-In . SVG Version: 6.00 Build 0)  -->
<svg version="1.1" id="Layer_2" xmlns="http://www.w3.org/2000/svg" xmlns:xlink="http://www.w3.org/1999/xlink" x="0px" y="0px"
	 viewBox="0 0 512 512" style="enable-background:new 0 0 512 512;" xml:space="preserve">
<g>
	<path d="M232.3,150l1.7,52.8h-7.3c-1.5-11.6-4.7-21.1-9.8-28.7c-5.1-7.6-10.3-12.3-15.9-14.2c-5.5-1.9-14.9-2.8-28-2.8h-41.4v89.9
		h19.9c12.8,0,21.3-2.2,25.6-6.5c4.2-4.3,6.3-13,6.3-26h7.8v74.7h-7.8c0-9.1-0.9-16.2-2.7-21.5c-1.8-5.3-4.5-8.9-8.1-10.8
		c-3.6-1.9-10.6-2.9-21-2.9h-19.9v52.7c0,16.7,0.4,27.6,1.3,32.8c0.8,5.2,2.9,9,6.3,11.5c3.4,2.5,9.9,3.8,19.6,3.8h7.2v7.2H67.5
		v-7.2h6.6c9.1,0,15.3-1.1,18.8-3.4c3.5-2.3,5.7-5.9,6.7-10.7c1-4.8,1.5-16.1,1.5-33.9v-104c0-16.9-0.5-27.8-1.5-32.7
		c-1-4.9-3.1-8.3-6.3-10.2c-3.2-1.9-10.1-2.8-20.9-2.8h-3.8V150H232.3z"/>
	<path d="M437.8,282.4h6.7v74.3h-6.7c-1.9-8.4-5.3-15.9-10.2-22.4c-18.7,21.1-42.5,31.6-71.5,31.6c-30.6,0-55.7-9.7-75.1-29.1
		c-19.4-19.4-29.2-45-29.2-76.9c0-21,4.5-40.7,13.4-59.2c9-18.5,21.5-32.2,37.5-41.2c16.1-9,33.7-13.4,52.8-13.4
		c15.8,0,30.2,3.3,43.1,9.8c12.9,6.5,22.5,13.7,28.8,21.7c4.5-8.9,7.2-18,8.1-27.5h6.9l1.9,80.4h-6.7c-4.7-28.6-14.3-48.4-28.7-59.6
		c-14.4-11.2-30.7-16.7-48.9-16.7c-22.2,0-39.8,9-52.9,27c-13.1,18-19.6,43.8-19.6,77.4c0,31.8,7.1,56.2,21.4,73.1
		c14.3,16.9,32.1,25.4,53.3,25.4c11.4,0,23-2.8,34.9-8.3c11.9-5.5,21.3-14.9,28.2-28.1C432.4,307.5,436.5,294.7,437.8,282.4z"/>
</g>
</svg>
