<?xml version="1.0" standalone="no"?>
<!DOCTYPE svg PUBLIC "-//W3C//DTD SVG 20010904//EN"
 "http://www.w3.org/TR/2001/REC-SVG-20010904/DTD/svg10.dtd">
<svg version="1.0" xmlns="http://www.w3.org/2000/svg"
 width="225.000000pt" height="225.000000pt" viewBox="0 0 225.000000 225.000000"
 preserveAspectRatio="xMidYMid meet">

<g transform="translate(0.000000,225.000000) scale(0.100000,-0.100000)"
fill="#000000" stroke="none">
<path d="M1325 1963 c-306 -38 -551 -213 -681 -486 l-36 -77 -164 0 -164 0 0
-90 0 -90 143 0 142 0 0 -95 0 -95 -142 0 -143 0 0 -90 0 -90 164 0 164 0 40
-84 c230 -480 833 -633 1256 -319 l65 48 -84 84 -83 84 -33 -27 c-35 -30 -124
-77 -179 -95 -65 -20 -182 -30 -257 -21 -135 17 -250 72 -348 166 -49 46 -115
136 -115 156 0 4 119 8 265 8 l265 0 0 90 0 90 -300 0 -300 0 0 95 0 95 300 0
300 0 0 90 0 90 -265 0 c-146 0 -265 4 -265 8 0 19 61 101 113 151 67 65 128
104 216 139 59 24 80 26 201 27 160 0 229 -19 338 -92 l66 -44 80 80 80 80
-22 23 c-37 40 -177 119 -264 148 -113 39 -251 56 -353 43z"/>
</g>
</svg>
