<?xml version="1.0" encoding="utf-8"?>
<!-- Generator: Adobe Illustrator 22.1.0, SVG Export Plug-In . SVG Version: 6.00 Build 0)  -->
<svg version="1.1" id="Layer_2" xmlns="http://www.w3.org/2000/svg" xmlns:xlink="http://www.w3.org/1999/xlink" x="0px" y="0px"
	 viewBox="0 0 512 512" style="enable-background:new 0 0 512 512;" xml:space="preserve">
<g>
	<g>
		<path d="M181.1,174c-3.5-1.8-16.9-7.8-41.3-7.8c-54.3,0-90.8,36.7-90.8,91.3c0,53.6,33.7,88.3,85.8,88.3c21.9,0,38.4-4.5,45.8-8.3
			c1.1-0.6,1.7-1.9,1.4-3.2l-4.3-17.5c-0.2-0.8-0.8-1.5-1.5-1.9c-0.8-0.4-1.7-0.4-2.4,0c-8.5,4.1-21.8,6.7-34.5,6.7
			c-38.6,0-61.7-24.3-61.7-64.9c0-41.7,23.5-66.7,62.9-66.7c16.6,0,27.5,4.2,32.5,6.7c0.7,0.4,1.6,0.4,2.4,0.1
			c0.8-0.3,1.3-1,1.6-1.8l5.5-17.7C182.9,176.1,182.3,174.7,181.1,174z"/>
		<path d="M332,169h-22c-1.6,0-2.8,1.3-2.8,2.8v67.7h-75.9v-67.7c0-1.6-1.3-2.8-2.8-2.8h-22c-1.6,0-2.8,1.3-2.8,2.8v168.4
			c0,1.6,1.3,2.8,2.8,2.8h22c1.6,0,2.8-1.3,2.8-2.8v-76.2h75.9v76.2c0,1.6,1.3,2.8,2.8,2.8h22c1.5,0,2.8-1.3,2.8-2.8V171.8
			C334.8,170.2,333.5,169,332,169z"/>
		<path d="M460.2,169h-90.7c-1.6,0-2.8,1.3-2.8,2.8v168.4c0,1.6,1.3,2.8,2.8,2.8h22c1.6,0,2.8-1.3,2.8-2.8v-73.4h60.7
			c1.6,0,2.8-1.3,2.8-2.8v-18c0-1.6-1.3-2.8-2.8-2.8h-60.7v-50.4h65.9c1.6,0,2.8-1.2,2.8-2.8v-18.2C463,170.2,461.7,169,460.2,169z"
			/>
	</g>
</g>
</svg>
