<?xml version="1.0" standalone="no"?>
<!DOCTYPE svg PUBLIC "-//W3C//DTD SVG 20010904//EN"
 "http://www.w3.org/TR/2001/REC-SVG-20010904/DTD/svg10.dtd">
<svg version="1.0" xmlns="http://www.w3.org/2000/svg"
 width="200.000000pt" height="200.000000pt" viewBox="0 0 200.000000 200.000000"
 preserveAspectRatio="xMidYMid meet">

<g transform="translate(0.000000,200.000000) scale(0.100000,-0.100000)"
fill="#000000" stroke="none">
<path d="M580 1506 c0 -9 17 -16 46 -21 53 -8 79 -30 91 -77 4 -18 7 -171 5
-340 l-3 -308 -69 0 -70 0 0 -35 0 -35 70 0 70 0 2 -47 c3 -71 -1 -114 -13
-150 -10 -32 -26 -40 -101 -57 -16 -4 -28 -13 -28 -21 0 -13 32 -15 220 -15
181 0 220 2 220 14 0 8 -22 19 -57 27 -76 18 -93 48 -93 166 l0 82 123 3 122
3 3 33 3 32 -125 0 -126 0 0 101 0 102 133 -6 c72 -3 144 -11 159 -17 25 -12
60 -75 70 -125 2 -11 11 -21 21 -23 16 -3 17 12 17 198 0 186 -1 201 -17 198
-10 -2 -19 -12 -21 -23 -7 -45 -45 -113 -71 -125 -14 -6 -86 -14 -158 -17
l-133 -6 0 211 c0 207 0 212 22 223 31 17 323 7 363 -12 37 -18 74 -71 81
-121 6 -32 11 -38 30 -38 24 0 24 0 24 120 l0 120 -405 0 c-339 0 -405 -2
-405 -14z"/>
</g>
</svg>
