<?xml version="1.0" encoding="utf-8"?>
<!-- Generator: Adobe Illustrator 22.1.0, SVG Export Plug-In . SVG Version: 6.00 Build 0)  -->
<svg version="1.1" id="Layer_2" xmlns="http://www.w3.org/2000/svg" xmlns:xlink="http://www.w3.org/1999/xlink" x="0px" y="0px"
	 viewBox="0 0 512 512" style="enable-background:new 0 0 512 512;" xml:space="preserve">
<g>
	<path d="M140.3,198.2c6.5,1.8,10.2,2.8,10.9,2.8c1.6,0,3.1-0.4,4.6-1.3c1.4-0.9,2.5-2.3,3-4.2h3.6l1.6,38.4h-3.9
		c-2.3-7.6-5.3-13.8-8.9-18.5c-7-8.8-16.5-13.2-28.3-13.2c-12,0-21.8,4.7-29.4,14.2c-7.6,9.5-11.4,22.5-11.4,39.1
		c0,15.3,4,27.4,12,36.5c8,9.1,18.1,13.7,30.4,13.7c8.9,0,17-2.1,24.5-6.3c4.3-2.4,9-6,14.1-10.9l3.2,3.2c-3.8,4.8-8.5,9-14.1,12.6
		c-9.6,6.1-20,9.2-31.2,9.2c-18.4,0-33-5.9-43.8-17.6c-10-10.9-15-24.4-15-40.7c0-16.7,5.3-30.6,15.8-41.9
		c11.1-11.9,25.5-17.8,43.3-17.8C127.4,195.4,133.8,196.3,140.3,198.2z"/>
	<path d="M174,307.4c6.3-0.7,10.4-1.8,12.2-3.4c1.9-1.6,2.8-5.6,2.8-12v-76.1c0-6.1-0.9-10-2.8-11.9c-1.8-1.9-5.9-3-12.3-3.5v-3.2
		h48.3v3.2c-6.3,0.3-10.5,1.4-12.7,3.1c-2.1,1.7-3.2,5.4-3.2,11.1V297c0,1.9,0.3,3.4,1,4.5c0.6,1.1,2,1.8,4.2,2
		c1.3,0.2,2.6,0.3,4.1,0.3s4.1,0.1,8,0.1c15.2,0,25.5-1.3,30.9-3.8c5.4-2.5,10.5-8.9,15.6-19.2h4.3l-8.4,29.7h-92V307.4z"/>
	<path d="M279.3,307.4c6.5-0.6,10.6-1.9,12.2-3.9c1.6-2,2.4-6.5,2.4-13.5v-74.1c0-6-0.9-9.9-2.7-11.8c-1.8-1.9-5.8-3.1-11.9-3.6
		v-3.2h45.1c14.5,0,25.6,2.8,33.2,8.4c7.7,5.6,11.5,13,11.5,22.2c0,11.6-4.3,20.1-12.8,25.3c-8.5,5.2-19.2,7.9-32,7.9
		c-1.8,0-4.2,0-7.1-0.1c-2.9-0.1-5-0.1-6.4-0.1V292c0,6.4,1,10.5,3,12.1c2,1.7,6.4,2.7,13.2,3.2v3.2h-47.9V307.4z M337,206.9
		c-4.8-2.1-11-3.2-18.4-3.2c-3.5,0-5.7,0.3-6.5,1c-0.8,0.7-1.2,2.2-1.2,4.6V254c3.1,0.3,5.1,0.4,6,0.5c0.9,0.1,1.9,0.1,2.8,0.1
		c7.9,0,14-1.1,18.5-3.3c8.2-4.1,12.3-11.7,12.3-22.8C350.6,218,346,210.8,337,206.9z"/>
	<path d="M381.7,279.7c1.6,6.9,3.8,12.2,6.6,15.9c5,6.7,12.6,10.1,22.6,10.3v-48.4c-11-6.5-18.3-11.5-21.8-15
		c-5.7-5.6-8.6-12.1-8.6-19.6c0-6.3,2.8-12.1,8.3-17.4c5.5-5.2,12.9-8.1,22.1-8.5v-10.7h5.9V197c4.6,0.3,9.7,1.2,15.3,2.7
		c5.2,1.6,9.2,3.8,12.2,6.4v19h-2.5c-1.3-7.3-4.3-13-8.9-17c-4.7-4-10-6.1-16-6.3v41.9c12.4,6.3,21,12,25.8,17
		c4.8,5,7.2,11.7,7.2,20.1c0,3.2-0.6,6.4-1.7,9.5c-1.7,4.8-4.5,8.9-8.5,12.2c-3.1,2.6-6.7,4.5-11,5.8c-4.3,1.3-8.2,2.1-11.8,2.3
		v15.1h-5.9v-15.1c-7.3-0.2-13.3-1-18-2.5c-3.2-1-7.7-3.1-13.6-6.2v-22.2H381.7z M410.9,201.7c-5.2,0.7-9.5,2.6-12.7,5.7
		c-3.2,3.1-4.8,7.1-4.8,12c0,4.6,2.3,9.1,6.9,13.7c2.9,2.8,6.4,5.4,10.6,7.8V201.7z M428.3,301.5c5.4-3.7,8.1-9.4,8.1-17.1
		c0-5.3-2-10.1-5.9-14.1c-2.4-2.4-7-5.7-13.7-9.8v45.4C421.6,304.9,425.4,303.5,428.3,301.5z"/>
</g>
</svg>
