<?xml version="1.0" encoding="utf-8"?>
<!-- Generator: Adobe Illustrator 22.1.0, SVG Export Plug-In . SVG Version: 6.00 Build 0)  -->
<svg version="1.1" id="Layer_3" xmlns="http://www.w3.org/2000/svg" xmlns:xlink="http://www.w3.org/1999/xlink" x="0px" y="0px"
	 viewBox="0 0 512 512" style="enable-background:new 0 0 512 512;" xml:space="preserve">
<path d="M138.8,201.2c6.2,1.7,9.6,2.6,10.4,2.6c1.5,0,3-0.4,4.4-1.3c1.4-0.8,2.3-2.2,2.9-4h3.4l1.5,36.4h-3.7
	c-2.2-7.2-5-13.1-8.5-17.5c-6.7-8.3-15.6-12.5-26.8-12.5c-11.4,0-20.6,4.5-27.8,13.5c-7.2,9-10.8,21.3-10.8,37.1
	c0,14.5,3.8,26,11.4,34.7c7.6,8.6,17.2,12.9,28.8,12.9c8.4,0,16.1-2,23.2-6c4.1-2.3,8.5-5.7,13.4-10.3l3,3c-3.6,4.5-8.1,8.5-13.4,12
	c-9.1,5.8-18.9,8.7-29.5,8.7c-17.4,0-31.3-5.6-41.5-16.7c-9.5-10.3-14.2-23.2-14.2-38.6c0-15.8,5-29,15-39.8
	c10.5-11.2,24.2-16.9,41-16.9C126.6,198.5,132.7,199.4,138.8,201.2z"/>
<path d="M186.1,212.5c10-9.6,22.3-14.3,36.8-14.3c14.6,0,26.9,4.8,36.9,14.4c10.8,10.4,16.2,24.3,16.2,41.6c0,17.6-5.6,31.6-16.8,42
	c-10,9.3-22.2,13.9-36.4,13.9c-15.2,0-27.8-5.1-37.9-15.4c-10.2-10.5-15.3-24-15.3-40.5C169.8,236.8,175.2,222.9,186.1,212.5z
	 M198.2,292c6.7,8.2,15,12.2,24.7,12.2c9.6,0,17.7-4,24.5-11.9c6.8-7.9,10.2-20.7,10.2-38.1c0-17.7-3.4-30.5-10.3-38.3
	c-6.9-7.9-15-11.8-24.4-11.8c-9.7,0-18,4.1-24.7,12.2c-6.7,8.2-10.1,20.8-10.1,37.9C188.1,271.2,191.5,283.8,198.2,292z"/>
<path d="M279.9,304.7c6-0.6,9.8-1.7,11.6-3.2c1.8-1.5,2.7-5.3,2.7-11.4V218c0-5.8-0.9-9.5-2.6-11.3c-1.7-1.8-5.6-2.9-11.6-3.3v-3
	h45.8v3c-6,0.3-10,1.3-12,2.9c-2,1.6-3,5.1-3,10.5v77.9c0,1.8,0.3,3.2,0.9,4.2c0.6,1,1.9,1.7,4,1.9c1.2,0.2,2.5,0.3,3.8,0.3
	c1.3,0.1,3.9,0.1,7.6,0.1c14.4,0,24.2-1.2,29.3-3.6c5.1-2.4,10-8.4,14.8-18.2h4.1l-7.9,28.1h-87.3V304.7z"/>
<path d="M382.7,278.5c1.5,6.5,3.6,11.6,6.2,15c4.8,6.3,11.9,9.6,21.4,9.7v-45.9c-10.4-6.2-17.4-10.9-20.7-14.2
	c-5.4-5.3-8.1-11.5-8.1-18.6c0-6,2.6-11.5,7.8-16.5c5.2-5,12.2-7.6,21-8.1v-10.1h5.6V200c4.4,0.3,9.2,1.1,14.5,2.5
	c4.9,1.5,8.8,3.6,11.6,6.1v18h-2.4c-1.2-7-4-12.3-8.5-16.1c-4.4-3.8-9.5-5.8-15.2-6v39.7c11.8,6,19.9,11.3,24.5,16.1
	c4.5,4.8,6.8,11.1,6.8,19.1c0,3.1-0.5,6.1-1.6,9c-1.6,4.6-4.3,8.5-8.1,11.6c-2.9,2.4-6.4,4.3-10.5,5.5c-4.1,1.2-7.8,2-11.2,2.2v14.3
	h-5.6v-14.3c-6.9-0.2-12.6-1-17.1-2.4c-3-1-7.3-2.9-12.9-5.9v-21H382.7z M410.3,204.6c-5,0.6-9,2.4-12,5.4c-3.1,3-4.6,6.8-4.6,11.4
	c0,4.3,2.2,8.7,6.6,13c2.7,2.6,6.1,5.1,10.1,7.4V204.6z M426.9,299.1c5.1-3.5,7.7-8.9,7.7-16.2c0-5.1-1.9-9.5-5.6-13.4
	c-2.3-2.3-6.6-5.4-13-9.3v43C420.5,302.4,424.1,301,426.9,299.1z"/>
</svg>
