<?xml version="1.0" encoding="utf-8"?>
<!-- Generator: Adobe Illustrator 22.1.0, SVG Export Plug-In . SVG Version: 6.00 Build 0)  -->
<svg version="1.1" id="Layer_2" xmlns="http://www.w3.org/2000/svg" xmlns:xlink="http://www.w3.org/1999/xlink" x="0px" y="0px"
	 viewBox="0 0 512 512" style="enable-background:new 0 0 512 512;" xml:space="preserve">
<g>
	<path d="M387.4,294.4c-5.4-5.9-11.9-8.8-19.4-8.8c-8.8,0-15.2,2.9-19.2,8.7c-4,5.8-7.3,13.3-10,22.5c-6.4,19.5-15.9,34.4-28.5,44.5
		c-11.4,9.2-25.2,14.1-41.3,15l56.9-215.8c3.8,5.6,7.4,11.9,10.8,18.9c5,10.5,9.5,17.9,13.6,22.2c4.1,4.3,10.1,6.4,18.3,6.4
		c7.3,0,13.5-3.1,18.6-9.3c5.1-6.2,7.7-13.3,7.7-21.5c0-14.8-5.3-30.5-15.8-47.1c-8.7-13.7-20.6-25.6-35.6-35.7l12.1-45.9
		c2-7.5-2.5-15.2-10-17.2c-7.5-2-15.2,2.5-17.2,10l-10.4,39.4c-8.4-3.3-17.2-5.7-26.5-7.3l7.8-29.7c2-7.5-2.5-15.2-10-17.2
		c-7.5-2-15.2,2.5-17.2,10l-9.2,34.8c-19.7,0.4-38.2,4.5-55.7,12.3c-18.4,8.3-34.4,20.3-48,36.1s-24.2,34.8-31.5,57.1
		c-7.3,22.2-11,47.4-11,75.6c0,17.3,1.5,33.7,4.4,49.1c2.9,15.4,7.3,29.9,13.1,43.5c5.8,13.6,12.9,25.9,21.1,36.8
		c6.3,8.2,13,15.3,20.2,21.3l-15.9,60.3c-2,7.5,2.5,15.2,10,17.2c1.2,0.3,2.4,0.5,3.6,0.5c6.2,0,11.9-4.2,13.6-10.5l13.5-51.4
		c7,3.3,14.4,6.1,22.2,8.1c1.2,0.3,2.5,0.6,3.8,0.8l-10.5,39.9c-2,7.5,2.5,15.2,10,17.2c1.2,0.3,2.4,0.5,3.6,0.5
		c6.2,0,11.9-4.2,13.6-10.5l11.4-43.1c4.3,0.3,8.7,0.4,13.2,0.4c21.8,0,40.8-3.9,57.2-11.7s29.8-17.9,40.3-30.4
		c10.5-12.5,18.3-25.2,23.2-38.1c4.9-12.9,7.4-25,7.4-36.1C395.5,307.6,392.8,300.3,387.4,294.4z M192.2,323.8
		c-6.8-18-10.2-40.6-10.2-67.8c0-40.7,7.7-72,23.2-94.1c11.5-16.4,25.2-27.3,42.2-31.9l-52.7,199.9
		C193.8,327.9,192.9,325.9,192.2,323.8z M220,363.1c-1.5-1-2.9-2.1-4.2-3.3l61-231.5c9.7,1.2,18.4,4.2,26,9l-62.2,235.9
		C233.2,370.9,226.4,367.6,220,363.1z"/>
</g>
</svg>
