<?xml version="1.0" standalone="no"?>
<!DOCTYPE svg PUBLIC "-//W3C//DTD SVG 20010904//EN"
 "http://www.w3.org/TR/2001/REC-SVG-20010904/DTD/svg10.dtd">
<svg version="1.0" xmlns="http://www.w3.org/2000/svg"
 width="416.000000pt" height="416.000000pt" viewBox="0 0 416.000000 416.000000"
 preserveAspectRatio="xMidYMid meet">

<g transform="translate(0.000000,416.000000) scale(0.100000,-0.100000)"
fill="#000000" stroke="none">
<path d="M3555 2727 c-20 -16 -28 -35 -32 -69 -5 -46 -6 -47 -54 -58 -65 -16
-157 -77 -192 -127 -80 -116 -73 -268 17 -357 45 -46 128 -90 189 -101 l37 -7
0 -134 c0 -87 -4 -134 -10 -134 -39 0 -110 66 -110 102 0 33 -28 75 -59 88
-71 29 -138 -26 -126 -104 20 -131 133 -246 268 -271 32 -6 35 -10 40 -53 8
-75 76 -115 139 -81 22 12 48 66 48 103 0 19 7 26 32 31 102 23 200 100 239
188 45 104 24 230 -52 306 -36 37 -134 87 -186 97 l-33 6 0 134 c0 87 4 134
10 134 17 0 64 -26 82 -47 9 -10 21 -38 27 -63 17 -78 76 -109 140 -75 41 21
52 61 37 127 -15 65 -28 89 -74 140 -38 42 -131 93 -189 104 -27 5 -33 11 -33
30 0 37 -26 91 -48 103 -33 18 -79 13 -107 -12z m-35 -417 c0 -69 -4 -110 -10
-110 -21 0 -88 40 -94 55 -11 30 -6 80 10 104 16 22 71 61 87 61 4 0 7 -49 7
-110z m233 -361 c69 -36 88 -99 46 -153 -18 -23 -67 -56 -84 -56 -3 0 -5 50
-5 110 0 114 2 120 43 99z"/>
<path d="M525 2621 c-207 -59 -346 -229 -374 -458 -17 -135 6 -260 67 -378
129 -245 435 -336 700 -207 116 56 232 206 232 300 0 74 -79 118 -137 77 -12
-9 -36 -44 -53 -80 -45 -95 -119 -148 -232 -166 -68 -11 -161 2 -218 31 -55
28 -124 109 -151 176 -19 49 -23 78 -23 169 -1 101 2 115 28 173 57 124 170
196 306 195 80 0 135 -15 188 -50 45 -31 101 -99 102 -124 0 -9 12 -28 26 -43
57 -57 154 -17 154 63 0 53 -45 135 -108 198 -122 123 -333 174 -507 124z"/>
<path d="M2503 2626 c-127 -31 -264 -137 -326 -253 -86 -161 -89 -397 -6 -570
39 -82 140 -188 216 -227 195 -98 444 -66 599 77 97 90 150 207 120 266 -43
82 -147 64 -175 -30 -18 -61 -102 -141 -171 -164 -71 -24 -179 -24 -247 -1
-193 65 -281 352 -171 558 37 70 82 112 158 146 77 36 193 36 271 0 75 -34
122 -78 148 -137 12 -28 31 -57 43 -65 59 -41 143 1 142 70 0 130 -176 296
-352 333 -68 14 -183 13 -249 -3z"/>
<path d="M1254 2585 l-25 -25 3 -358 3 -357 33 -67 c42 -86 109 -153 192 -192
54 -26 80 -32 152 -34 177 -8 310 73 386 235 l27 58 3 357 3 358 -25 25 c-35
35 -97 35 -131 0 l-25 -24 0 -318 c0 -177 -4 -333 -10 -352 -16 -58 -59 -109
-113 -136 -86 -42 -171 -29 -243 37 -70 65 -74 89 -74 455 l0 314 -25 24 c-34
35 -96 35 -131 0z"/>
</g>
</svg>
