<?xml version="1.0" encoding="utf-8"?>
<!-- Generator: Adobe Illustrator 22.1.0, SVG Export Plug-In . SVG Version: 6.00 Build 0)  -->
<svg version="1.1" id="Layer_3" xmlns="http://www.w3.org/2000/svg" xmlns:xlink="http://www.w3.org/1999/xlink" x="0px" y="0px"
	 viewBox="0 0 512 512" style="enable-background:new 0 0 512 512;" xml:space="preserve">
<g>
	<path d="M431,196.4h-43.1c1.6-9.2,2.4-19.1,2.4-29.6c0-4.2-0.2-8.1-0.4-12H431c6.9,0,12.5-5.6,12.5-12.5c0-6.9-5.6-12.5-12.5-12.5
		h-44.7c-1.9-7.7-4.4-14.8-7.6-21.1c-7.8-15.4-18.1-27.7-31.1-36.9c-13-9.2-27.9-15.7-44.8-19.4c-16.9-3.7-34.4-5.6-52.5-5.6
		c0,0-59.3,0-90.5,0c-31.3,0-28.8,39.1-28.8,39.1v44H81c-6.9,0-12.5,5.6-12.5,12.5c0,6.9,5.6,12.5,12.5,12.5h49.9v41.7H81
		c-6.9,0-12.5,5.6-12.5,12.5c0,6.9,5.6,12.5,12.5,12.5h49.9V404c0,0.2-0.1,0.4-0.1,0.6v33.9c0,14.9,12,26.9,26.9,26.9
		c14.8,0,26.9-12,26.9-26.9V429h0.1V294.1h51.2c51.2,0,89.8-10.7,115.7-32.1c13.2-10.9,22.9-24.4,29.4-40.7H431
		c6.9,0,12.5-5.6,12.5-12.5C443.5,202,437.9,196.4,431,196.4z M184.7,95.3h55.8c12.9,0,25,1.1,36.4,3.3c11.4,2.2,21.3,6,29.8,11.5
		c7.5,4.9,13.5,11.5,18.1,19.6h-140V95.3z M184.7,154.7h148c0.6,4.2,0.9,8.6,0.9,13.4c0,10.5-1.3,19.8-3.8,28.3H184.7L184.7,154.7
		L184.7,154.7z M311.5,225.1c-7.7,6.3-17.7,11.2-30,14.5c-12.3,3.4-27.4,5-45.4,5h-51.4v-23.3h130.8
		C314.2,222.7,312.9,224,311.5,225.1z"/>
</g>
</svg>
