<?xml version="1.0" encoding="utf-8"?>
<!-- Generator: Adobe Illustrator 22.1.0, SVG Export Plug-In . SVG Version: 6.00 Build 0)  -->
<svg version="1.1" id="Layer_3" xmlns="http://www.w3.org/2000/svg" xmlns:xlink="http://www.w3.org/1999/xlink" x="0px" y="0px"
	 viewBox="0 0 512 512" style="enable-background:new 0 0 512 512;" xml:space="preserve">
<g>
	<path d="M292.6,165.4c-0.2-0.3-0.2-0.7-0.1-1.1s0.5-0.6,0.9-0.6h17.4c0.4,0,0.7,0.2,0.9,0.5l14.7,23.6l14.7-23.6
		c0.2-0.3,0.5-0.5,0.9-0.5h17.1c0.4,0,0.7,0.2,0.9,0.6c0.2,0.3,0.2,0.7-0.1,1.1l-24.4,37.1c-0.2,0.3-0.5,0.5-0.9,0.5h-16.6
		c-0.3,0-0.7-0.2-0.9-0.5L292.6,165.4z M368.5,340.4l-5.2-17.6c-0.1-0.3-0.3-0.6-0.6-0.7c-0.3-0.1-0.6-0.1-0.9,0.1
		c-4.7,2.7-12.9,5.8-25.9,5.8c-29.9,0-43.3-23.3-43.3-46.4c0-27.5,17.1-45.9,42.6-45.9c12.6,0,20.9,3.2,27.6,6.1
		c0.3,0.1,0.6,0.1,0.9,0c0.3-0.1,0.5-0.4,0.6-0.7l3.9-17.1c0.1-0.5-0.1-0.9-0.5-1.2c-6.5-3.4-20-7.4-36.6-7.4
		c-38,0-63.6,26.2-63.6,65.2c0,39.9,28.2,67.7,68.5,67.7c14,0,26-3.6,32.1-6.6C368.4,341.4,368.6,340.9,368.5,340.4z M196.2,256.7
		l70.5-88.2c0.5-0.6,0.6-1.4,0.2-2.1c-0.3-0.7-1-1.1-1.8-1.1h-29.7c-0.6,0-1.2,0.3-1.6,0.8l-62.3,79.1v-78c0-1.1-0.9-1.9-2-1.9
		h-23.9c-1.1,0-2,0.9-2,1.9v174.3c0,1.1,0.9,2,2,2h23.9c1.1,0,2-0.9,2-2v-64.6l6.5-0.1l63.3,66c0.4,0.4,0.9,0.6,1.5,0.6h28.3
		c0.8,0,1.5-0.4,1.9-1.1c0.3-0.7,0.2-1.5-0.3-2.1L196.2,256.7z"/>
</g>
</svg>
