<?xml version="1.0" encoding="utf-8"?>
<!-- Generator: Adobe Illustrator 22.1.0, SVG Export Plug-In . SVG Version: 6.00 Build 0)  -->
<svg version="1.1" id="Layer_3" xmlns="http://www.w3.org/2000/svg" xmlns:xlink="http://www.w3.org/1999/xlink" x="0px" y="0px"
	 viewBox="0 0 512 512" style="enable-background:new 0 0 512 512;" xml:space="preserve">
<path d="M87.7,119.6h116.9v23.5h-88.9v72.1h82.1v23.2h-82.1v98.2h-28V119.6z"/>
<path d="M355.2,108v188.4c0,13.8,0.3,29.6,1.3,40.3H331l-1.3-27.1h-0.6c-8.7,17.4-27.7,30.6-53.1,30.6c-37.7,0-66.7-31.9-66.7-79.2
	c-0.3-51.9,31.9-83.7,69.9-83.7c23.8,0,39.9,11.3,47,23.8h0.6V108H355.2z M326.8,244.2c0-3.5-0.3-8.4-1.3-11.9
	c-4.2-18-19.6-32.9-40.9-32.9c-29.3,0-46.7,25.8-46.7,60.2c0,31.6,15.5,57.6,46.1,57.6c19,0,36.4-12.6,41.5-33.8
	c1-3.9,1.3-7.7,1.3-12.2V244.2z"/>
<path d="M351.2,381.8c12.9-1,24.2-4.5,30.9-11.9c7.7-9,10.6-21.3,10.6-58.6V180.8h28.3v141.4c0,30.3-4.8,49.9-18.7,64.1
	c-12.6,12.6-33.2,17.7-48.3,17.7L351.2,381.8z M424.3,137c0.3,9.3-6.4,17.4-17.7,17.4c-10.6,0-17.4-8.1-17.4-17.4
	c0-10,7.4-17.7,18-17.7C417.6,119.3,424.3,127,424.3,137z"/>
</svg>
