<?xml version="1.0" encoding="utf-8"?>
<!-- Generator: Adobe Illustrator 22.1.0, SVG Export Plug-In . SVG Version: 6.00 Build 0)  -->
<svg version="1.1" id="Layer_3" xmlns="http://www.w3.org/2000/svg" xmlns:xlink="http://www.w3.org/1999/xlink" x="0px" y="0px"
	 viewBox="0 0 512 512" style="enable-background:new 0 0 512 512;" xml:space="preserve">
<g>
	<path d="M266.9,367c1.1,1.2,1.4,2.9,0.6,4.4c-0.7,1.4-2.2,2.3-3.7,2.3h-28.1c-1.1,0-2.2-0.5-3-1.3l-62.3-64.9l-3.5,0.1v62.1
		c0,2.2-1.8,4-4.1,4h-23.7c-2.3,0-4.1-1.8-4.1-4V124.3c0-2.2,1.8-4,4.1-4h23.7c2.3,0,4.1,1.8,4.1,4v143.6l58.2-73.9
		c0.8-1,2-1.6,3.2-1.6h29.5c1.5,0,2.9,0.8,3.6,2.2c0.7,1.4,0.6,3.1-0.4,4.3l-68.9,86.2L266.9,367z M375.4,192.1
		c-37.5,0-53.7,19-58.3,26v-23.8c0-0.9-0.7-1.6-1.6-1.6h-27.9c-0.9,0-1.6,0.7-1.6,1.6l0,177.9c0,0.4,0.2,0.8,0.5,1.1
		c0.3,0.3,0.7,0.5,1.1,0.5h32c0.9,0,1.6-0.7,1.6-1.6v-94.8c0-5.4,0.7-10.5,1.4-14.8c4.4-24.2,20-38.9,41.8-39.5h11
		c0.4,0,0.8-0.2,1.1-0.5c0.3-0.3,0.5-0.7,0.5-1.1v-27.8C377,192.8,376.3,192.1,375.4,192.1z"/>
</g>
</svg>
