<?xml version="1.0" encoding="utf-8"?>
<!-- Generator: Adobe Illustrator 22.1.0, SVG Export Plug-In . SVG Version: 6.00 Build 0)  -->
<svg version="1.1" id="Layer_3" xmlns="http://www.w3.org/2000/svg" xmlns:xlink="http://www.w3.org/1999/xlink" x="0px" y="0px"
	 viewBox="0 0 512 512" style="enable-background:new 0 0 512 512;" xml:space="preserve">
<g>
	<path d="M137.3,266.7c17.9-15.2,24.6-29.3,24.6-51.6c0-15.4-5.6-28.8-15.7-37.8c-12.2-11.1-29.5-16-55.9-16l-45.6,0.2
		c-2.1,0-3.7,1.7-3.7,3.7v185.5c0,2.1,1.7,3.7,3.7,3.7h23.8c2.1,0,3.7-1.7,3.7-3.7v-76.1h36.4l28,77.4c0.5,1.5,2,2.5,3.5,2.5h24.6
		c1.2,0,2.4-0.6,3.1-1.6c0.7-1,0.8-2.3,0.4-3.4L137.3,266.7z M92.9,249.1H72.3v-61.9l19.8,0c17.6,0.2,38.6,5.7,38.6,30.7
		C130.7,236.8,115.8,249.1,92.9,249.1z M244.9,162.1c-16.6,0-33.4,1.3-50.1,3.8l-2.7,0.4v183.4l2.8,0.3c12.7,1.4,27,2.2,42.7,2.2
		c33.3,0,54.6-7.8,73.8-26.9c17.6-17.4,27-42.4,27-72.5c0-28.5-8.9-51.1-26.5-67.2C296,170.6,279.9,162.1,244.9,162.1z M242.2,327
		c-5.8,0-14.1-0.1-20.4-0.9V188.7c4.9-0.9,12.8-1.8,24.2-1.8c22.9,0,32.3,5.6,44.8,18.2c11.3,11.4,17,27.7,16.9,48.4
		C307.6,304.4,287.5,327,242.2,327z M467.8,271.9c-2.1-5.6-5.2-10.4-9.4-14.2c-4.2-3.8-9.5-7.1-15.8-9.8c-5.6-2.4-12.2-4.8-19.6-7
		v-54.2c12.3,3,19.1,11.1,20.1,24.3h0l0.1,1.5c0.2,6.1,5.2,10.9,11.4,10.9c6.5,0,11.6-4.9,11.6-11.3L466,210
		c-1.7-26.9-15.7-41.8-42.9-45.3v-29.2c0-6.1-5-11.1-11.1-11.1c-6.1,0-11.1,5-11.1,11.1v28.9c-4.9,0.6-9.4,1.6-13.7,3.3
		c-6.5,2.5-12.2,6-16.8,10.4c-4.6,4.4-8.2,9.7-10.6,15.6c-2.4,6-3.7,12.7-3.7,20c0,8.1,0.9,14.8,2.8,20.1c1.8,5.2,4.7,9.7,8.5,13.3
		c3.9,3.7,8.9,6.8,14.9,9.4c5.2,2.2,11.4,4.4,18.4,6.6v61.6c-15.8-3.4-24.2-13.9-24.9-31.4v-1.5c0-6.2-5.1-11.3-11.4-11.3
		c-6.7,0-11.6,4.8-11.6,11.3c1.7,33.5,17.4,51.8,47.9,55.6v29.1c0,6.1,5,11.1,11.1,11.1c6.1,0,11.1-5,11.1-11.1v-29
		c5.3-0.7,10.2-1.9,14.7-3.7c7-2.9,13-6.9,17.9-11.8c4.9-4.9,8.7-10.8,11.3-17.4c2.6-6.6,3.9-13.9,3.9-21.6
		C471,284.7,469.9,277.6,467.8,271.9z M401,234c-1.2-0.4-2.3-0.8-3.3-1.1c-5.5-1.9-9.6-3.8-12.3-5.8c-2.8-2.1-4.6-4.5-5.3-7
		c-0.6-2.3-0.9-5.4-0.9-9.1c0-4.3,0.9-8.1,2.6-11.3c1.7-3.2,4.1-6,7-8c2.9-2,6.3-3.6,10.2-4.6c0.7-0.2,1.3-0.3,2-0.5L401,234
		L401,234L401,234z M439.6,317.9c-4,3.8-9.5,6.2-16.5,7.4v-54.8c1.1,0.4,2.3,0.8,3.3,1.2c5.7,2,10.1,4.2,13.3,6.3
		c3.3,2.2,5.5,4.8,6.7,7.7c1.1,2.8,1.7,6.2,1.7,10.2C448,305,445.2,312.5,439.6,317.9z"/>
</g>
</svg>
