<?xml version="1.0" encoding="utf-8"?>
<!-- Generator: Adobe Illustrator 22.1.0, SVG Export Plug-In . SVG Version: 6.00 Build 0)  -->
<svg version="1.1" id="Layer_2" xmlns="http://www.w3.org/2000/svg" xmlns:xlink="http://www.w3.org/1999/xlink" x="0px" y="0px"
	 viewBox="0 0 512 512" style="enable-background:new 0 0 512 512;" xml:space="preserve">
<path d="M80.7,151.5c16.9-2.5,36.9-4.5,58.8-4.5c39.8,0,68.1,9.2,86.8,26.7c19.1,17.5,30.2,42.3,30.2,77c0,35-10.8,63.6-30.8,83.3
	c-20,20-53.1,30.8-94.8,30.8c-19.7,0-36.3-1-50.2-2.5V151.5z M108.4,341.1c7,1.3,17.2,1.6,28,1.6c59.2,0,91.3-33.1,91.3-91
	c0.3-50.6-28.3-82.7-86.8-82.7c-14.3,0-25.1,1.3-32.4,2.9V341.1z"/>
<path d="M302.8,295.6L280.5,363h-28.6l72.8-214.4h33.4L431.3,363h-29.6l-22.9-67.4H302.8z M373.1,274l-21-61.7
	c-4.8-14-8-26.7-11.1-39.1h-0.6c-3.2,12.7-6.7,25.8-10.8,38.8l-21,62H373.1z"/>
</svg>
