<?xml version="1.0" encoding="utf-8"?>
<!-- Generator: Adobe Illustrator 22.1.0, SVG Export Plug-In . SVG Version: 6.00 Build 0)  -->
<svg version="1.1" id="Layer_3" xmlns="http://www.w3.org/2000/svg" xmlns:xlink="http://www.w3.org/1999/xlink" x="0px" y="0px"
	 viewBox="0 0 512 512" style="enable-background:new 0 0 512 512;" xml:space="preserve">
<g>
	<path d="M74.2,350.2v-176H99l56.4,89.1c13.1,20.6,23.2,39.2,31.6,57.2l0.5-0.3c-2.1-23.5-2.6-44.9-2.6-72.3v-73.6h21.4v176h-23
		l-55.9-89.3c-12.3-19.6-24-39.7-32.9-58.8l-0.8,0.3c1.3,22.2,1.8,43.4,1.8,72.6v75.2H74.2z"/>
	<path d="M270.6,281.7h0.5c3.1-4.4,7.6-9.9,11.2-14.4l37.1-43.6h27.7l-48.8,52l55.6,74.4H326l-43.6-60.6l-11.8,13.1v47.5h-22.7
		V164.7h22.7V281.7z"/>
	<path d="M372.7,350.2V241.2H355v-17.5h17.8v-6c0-17.8,3.9-34,14.6-44.1c8.6-8.4,20.1-11.8,30.8-11.8c8.1,0,15.1,1.8,19.6,3.7
		l-3.1,17.8c-3.4-1.6-8.1-2.9-14.6-2.9c-19.6,0-24.5,17.2-24.5,36.6v6.8H426v17.5h-30.6v108.9H372.7z"/>
</g>
</svg>
