<?xml version="1.0" encoding="utf-8"?>
<!-- Generator: Adobe Illustrator 22.1.0, SVG Export Plug-In . SVG Version: 6.00 Build 0)  -->
<svg version="1.1" id="Layer_2" xmlns="http://www.w3.org/2000/svg" xmlns:xlink="http://www.w3.org/1999/xlink" x="0px" y="0px"
	 viewBox="0 0 512 512" style="enable-background:new 0 0 512 512;" xml:space="preserve">
<g>
	<path d="M366.9,347.7c-18.6,19.5-42.3,30.3-66.9,30.3c-40.3,0-75.2-28.3-91.6-69.2h111.9c9.7,0,17.6-7.9,17.6-17.6
		c0-9.7-7.9-17.6-17.6-17.6H199.4c-0.7-5.7-1.1-11.6-1.1-17.6c0-6.7,0.5-13.3,1.4-19.8h120.6c9.7,0,17.6-7.9,17.6-17.6
		s-7.9-17.6-17.6-17.6h-111c16.8-39.7,51.1-67,90.7-67c24.6,0,48.3,10.8,66.9,30.3c6.7,7,17.8,7.3,24.8,0.6c7-6.7,7.3-17.8,0.6-24.8
		c-25.3-26.6-58.1-41.2-92.4-41.2c-58.6,0-108.7,42.6-128.1,102.2h-47.1c-9.7,0-17.6,7.9-17.6,17.6c0,9.7,7.9,17.6,17.6,17.6h39.6
		c-0.7,6.5-1.1,13.1-1.1,19.8c0,5.9,0.3,11.8,0.9,17.6h-39.3c-9.7,0-17.6,7.9-17.6,17.6c0,9.7,7.9,17.6,17.6,17.6h46.4
		c18.9,60.8,69.5,104.4,128.8,104.4c34.3,0,67.1-14.6,92.4-41.2c6.7-7,6.4-18.2-0.6-24.8C384.7,340.3,373.6,340.6,366.9,347.7z"/>
</g>
</svg>
