<?xml version="1.0" encoding="utf-8"?>
<!-- Generator: Adobe Illustrator 22.1.0, SVG Export Plug-In . SVG Version: 6.00 Build 0)  -->
<svg version="1.1" id="Layer_2" xmlns="http://www.w3.org/2000/svg" xmlns:xlink="http://www.w3.org/1999/xlink" x="0px" y="0px"
	 viewBox="0 0 512 512" style="enable-background:new 0 0 512 512;" xml:space="preserve">
<g id="Layer_2_1_">
	<path d="M329.5,301.1c3.1,13.1,7.2,23.2,12.5,30.2c9.6,12.7,23.9,19.2,43,19.6v-92.1c-21-12.4-34.9-21.9-41.6-28.6
		c-10.9-10.6-16.3-23-16.3-37.3c0-12.1,5.2-23.1,15.7-33.1c10.5-10,24.6-15.4,42.2-16.2v-20.4h11.3v20.4c8.8,0.5,18.5,2.2,29.1,5.1
		c9.9,3.1,17.6,7.2,23.2,12.2v36.3h-4.8c-2.4-14-8.1-24.8-17-32.4s-19.1-11.7-30.5-12.1v79.8c23.7,12,40,22.8,49.2,32.4
		c9.1,9.6,13.7,22.4,13.7,38.3c0,6.2-1.1,12.2-3.2,18.1c-3.2,9.2-8.6,17-16.2,23.2c-5.8,4.9-12.8,8.5-21,11
		c-8.2,2.4-15.6,3.9-22.4,4.5v28.8H385V360c-13.8-0.3-25.3-1.9-34.3-4.8c-6-1.9-14.7-5.8-26-11.8v-42.2h4.8V301.1z M385,152.7
		c-10,1.3-18,4.9-24.2,10.9s-9.2,13.6-9.2,22.8c0,8.7,4.4,17.4,13.2,26.1c5.5,5.3,12.3,10.2,20.2,14.8V152.7z M418.3,342.6
		c10.3-7.1,15.4-18,15.4-32.6c0-10.2-3.8-19.1-11.3-26.9c-4.6-4.6-13.3-10.8-26.1-18.6v86.4C405.5,349.2,412.8,346.5,418.3,342.6z"
		/>
	<path d="M52.8,353.9c12.8-1.4,20.8-3.7,24-7c3.1-3.3,4.7-12,4.7-26.1V179.6c0-11.6-1.8-19.1-5.3-22.7c-3.5-3.6-11.3-5.8-23.4-6.6
		v-6h173.6l1.1,46.6h-9.1c-2.2-14.9-6.4-24.3-12.6-28.3c-6.2-4-18.3-5.9-36.4-5.9h-44.7c-4.4,0-7.2,0.7-8.4,2.2
		c-1.2,1.5-1.8,4.4-1.8,8.8v72.7h47.3c13.9,0,22.8-2.1,26.6-6.2c3.8-4.1,6.9-12.5,9.2-25h7.6v75.3h-7.6c-2.4-12.6-5.6-21-9.4-25.1
		c-3.8-4.1-12.6-6.1-26.4-6.1h-47.3v71.3c0,11.9,1.8,19.6,5.5,22.9c3.7,3.3,11.6,5.5,24,6.4v6H52.8V353.9z"/>
	<path d="M219.6,328.7c3.2-2.5,6.7-3.7,10.4-3.7c7.3,0,12.7,4.5,16.2,13.5c3.5,9,7.2,13.5,11.1,13.5c4.2,0,7.2-1.9,8.8-5.6
		c1.6-3.7,2.5-10.2,2.5-19.4V179.6c0-12.1-2-19.8-5.9-23.2c-3.9-3.4-12-5.4-24.4-6v-6H332v6c-12.6,0.7-20.8,3-24.6,6.8
		c-3.8,3.8-5.6,11.3-5.6,22.5v119.7c0,21.9-5.3,38-15.8,48.5c-10.5,10.6-23.5,15.9-39,15.9c-10.2,0-18.1-2.3-23.8-7
		c-5.7-4.7-8.5-9.9-8.5-15.6C214.7,335.3,216.3,331.2,219.6,328.7z"/>
</g>
</svg>
