<?xml version="1.0" encoding="utf-8"?>
<!-- Generator: Adobe Illustrator 22.1.0, SVG Export Plug-In . SVG Version: 6.00 Build 0)  -->
<svg version="1.1" id="Layer_2" xmlns="http://www.w3.org/2000/svg" xmlns:xlink="http://www.w3.org/1999/xlink" x="0px" y="0px"
	 viewBox="0 0 512 512" style="enable-background:new 0 0 512 512;" xml:space="preserve">
<g id="Layer_2_1_">
	<path d="M363.7,314.3c3.9-3.9,9.9-5.9,18-5.9c1.5,0,3.1,0.1,4.7,0.3c1.6,0.2,4,0.5,7.2,1c0.1-1.5,0.2-2.6,0.2-3.2
		c0-0.5,0.1-1.2,0.1-1.9c0-4.7-0.5-11.2-1.3-19.2c-0.5-4.9-1.7-14.2-3.6-27.8h-28.2v-11.7h27c-0.4-2.9-0.6-6.5-0.9-10.7
		c-0.3-4.2-0.4-7.9-0.4-11.1c0-15.3,4.4-28.4,13.1-39.4c8.7-11,21-16.6,36.8-16.6c8.5,0,16.2,2.2,23.1,6.5
		c6.9,4.3,10.5,10.1,10.5,17.5c0,3.3-1,6.3-3.1,9.1c-2,2.8-5,4.3-8.8,4.3c-2.5,0-4.7-0.6-6.7-2c-3.5-2.5-5.1-6.5-4.8-12.1l0.2-4.1
		c0.3-3.1-0.8-5.8-3.3-8.3c-2.5-2.5-6.3-3.6-11.4-3.6c-10.3,0-17.3,5.2-21,15.7c-2,5.6-3,12.9-3,22.2c0,2.8,0.3,7.6,0.7,14.1
		c0.5,6.6,1.1,12.8,1.9,18.8h32.6v11.7h-31.6c0,2.5,0,4.7,0.1,6.6c0.1,1.8,0.1,3.5,0.1,4.7c0,6.9-0.5,14.6-1.7,22.8
		c-1.1,8.3-2.6,15.4-4.6,21.6c4.2,1.9,9,3.6,14.4,5.1c8.6,2.5,16.4,3.7,23.4,3.7c5.9,0,11-0.8,15.4-2.4c4.4-1.5,8.9-4.6,13.7-9.2
		l4.2-3.9c0.4-0.4,0.7-0.6,1.1-0.8c0.5-0.2,1-0.5,1.6-0.7l1.5,1.1c-0.7,7-5.1,14.9-12.9,23.9c-7.9,8.9-18.4,13.4-31.6,13.4
		c-6.5,0-14.4-2.5-23.7-7.7c-4.1-2.4-8.2-5-12.3-8.1c-5.5,6.1-9.4,10.1-11.9,11.9c-4,2.9-8.6,4.4-13.7,4.4c-4.1,0-8-1.5-11.7-4.2
		c-3.7-2.8-5.6-7.1-5.6-12.9C357.8,322.4,359.7,318.3,363.7,314.3z M382.8,318.2c-1.9-0.4-4-0.5-6.3-0.5c-3.6,0-6.5,0.8-8.6,2.5
		c-2.1,1.7-3.2,3.8-3.2,6.5c0,1.7,0.5,3.4,1.3,4.9c1.7,3.1,4.8,4.7,9.1,4.7c5.3,0,9.5-2.1,12.6-6.2c2-2.6,3.2-5.6,3.6-8.7
		C389.2,319.9,386.4,318.8,382.8,318.2z"/>
	<path d="M31,338.2c10.4-1.1,16.8-3,19.4-5.7c2.5-2.7,3.8-9.7,3.8-21.1V197.2c0-9.4-1.4-15.5-4.2-18.4c-2.8-2.9-9.1-4.7-18.9-5.3
		v-4.9h140.5l0.9,37.7h-7.3c-1.8-12.1-5.2-19.7-10.2-22.9c-5-3.2-14.8-4.8-29.5-4.8H89.2c-3.5,0-5.8,0.6-6.8,1.8
		c-1,1.2-1.5,3.6-1.5,7.1v58.9h38.2c11.2,0,18.4-1.7,21.5-5c3.1-3.3,5.6-10.1,7.5-20.2h6.2v60.9h-6.2c-2-10.2-4.5-17-7.6-20.3
		c-3.1-3.3-10.2-5-21.4-5H81v57.7c0,9.7,1.5,15.8,4.4,18.5c3,2.7,9.4,4.4,19.4,5.2v4.9H31V338.2z"/>
	<path d="M176.8,338.6c10.7-0.9,17.4-2.8,20-5.7c2.6-3,3.9-10,3.9-21.2V197.2c0-9.5-1.4-15.7-4.3-18.5c-2.9-2.8-9.4-4.5-19.5-5.2
		v-4.9h75.1v4.9c-10.3,0.5-17,2.2-20,5.1c-3,2.9-4.5,9.1-4.5,18.5v54.1c16.2-13.8,29.5-25.6,39.8-35.3
		c18.5-17.6,27.7-28.8,27.7-33.8c0-3.5-1.6-5.8-4.7-6.9c-3.1-1.1-7.6-1.7-13.3-1.7v-4.9H346v4.9c-8.4,0.8-15.1,2.5-19.9,4.9
		c-4.9,2.4-11.6,7.7-20.2,15.9l-51.5,47.7l62.8,67.9c11.4,12.2,19.2,19.8,23.3,22.8c4.1,3,10.2,5,18.2,5.9v4.5h-80.7v-4.5
		c7.3-0.3,12.2-0.8,14.8-1.7s3.9-2.7,3.9-5.4c0-1.5-0.8-3.7-2.5-6.7c-1.7-3-4.3-6.5-7.9-10.5l-50.8-54.9l-8.1,7.5v47.7
		c0,9.8,1.5,16,4.4,18.6c3,2.6,9.4,4.4,19.4,5.2v4.5h-74.4V338.6z"/>
</g>
</svg>
