<?xml version="1.0" encoding="utf-8"?>
<!-- Generator: Adobe Illustrator 22.1.0, SVG Export Plug-In . SVG Version: 6.00 Build 0)  -->
<svg version="1.1" id="Layer_2" xmlns="http://www.w3.org/2000/svg" xmlns:xlink="http://www.w3.org/1999/xlink" x="0px" y="0px"
	 viewBox="0 0 512 512" style="enable-background:new 0 0 512 512;" xml:space="preserve">
<g>
	<g>
		<path d="M393.7,391.2L393.7,391.2l-2.8,0.6c-1.5,0.2-2.8,0.6-3.9,1.1l-1.2,0.4c-18.7,9.5-38.3,14.3-58.2,14.3
			c-3.6,0-10.4-1-20.1-2.8c-9.7-1.7-20.3-3.5-31.6-5.6c-11.3-2-22.4-4-33.3-5.9c-11-1.9-19.5-2.8-26-2.8c-4.6,0-9.2,0.2-13.8,0.7
			l-19.6,1.9l13.4-14.4c1.3-1.4,2.6-2.9,3.8-4.3c6-7,11-14.4,14.8-22c3.8-7.6,6.6-16,8.3-24.9c1.7-9,2.5-19.1,2.5-30.1
			c0-5-0.6-10-1.7-14.8l-2.2-9.2l74.7-0.1c1.3-0.1,2.5-0.4,3.6-0.9c8.3-2.7,13.6-10,13.6-18.3c0-9.3-6.6-17.2-15.8-18.9
			c-0.7-0.1-1.3-0.2-1.9-0.2l-0.1,0c-0.2,0-0.4,0-0.6,0l-1,0.1h-81.9l-1.6-5.3c-8.6-27.6-13-50.9-13-69.3c0-9,1.7-17.7,5-25.8
			c3.3-8.1,7.9-15.3,13.7-21.4c5.8-6.1,12.9-11,21.1-14.5c8.2-3.5,17.6-5.3,27.8-5.3c41.5,0,63.4,19.7,67.1,60.3
			c0.1,0.2,0.1,0.5,0.2,0.7l0.1,1.8l-0.1,0.4c0,0.8,0.3,2.1,0.8,3.6c1.9,12.9,12.4,21.9,24.9,21.9c13,0,23.7-9.9,25-22.5h0l0.2-3.5
			c0-0.1,0-0.5-0.1-0.9l0-0.6c-1.5-16.1-5.4-30.6-11.5-43c-6.2-12.3-14.4-22.8-24.3-31.2c-10-8.4-22-14.8-35.6-19.1
			c-13.7-4.3-29-6.5-45.3-6.5c-17.8,0-34.2,2.6-48.8,7.6c-14.6,5.1-27.4,12.4-37.8,21.8c-10.5,9.4-18.7,21.1-24.6,34.7
			c-5.8,13.7-8.8,29.2-8.8,46.1c0,8,1.1,17.8,3.2,29.2c1.7,9,4.2,19.4,7.6,31l2.8,9.6l-42.6-0.1c-9.8,0.9-17.4,9.2-17.4,19.2
			c0,9.8,7.4,18,17.2,19l1.8,0.3l52,0l1.3,5.9c2,9.1,3,18.3,3,27.6c0,13.6-1.3,25.8-3.8,36.2c-2.5,10.4-6.2,19.8-11,27.8
			c-4.8,8-10.7,15-17.5,21c-6.9,5.9-14.8,11.3-23.7,15.9c-14.2,4.7-30.1,13.3-27.4,28.3c2.2,12.2,13.9,21.1,26.3,19.5
			c0.4-0.1,0.4-0.1,0.7-0.2c34.7-15.8,66.3-23.8,93.9-23.8c3.6,0,8.6,0.6,14.9,1.8c6.3,1.2,13.2,2.7,20.7,4.4
			c7.5,1.7,15.2,3.6,23.2,5.6c8,2,15.7,3.9,23.1,5.6c7.4,1.7,14.2,3.2,20.3,4.5c6.1,1.3,10.9,1.9,14.5,1.9h1.1
			c27.9,0,57.6-11.7,58.8-12.2c2.7-1.2,11.1-4.3,11.1-4.3c13.3-3,21.5-15.9,18.6-28.9C417.1,398.1,405.7,389.9,393.7,391.2z"/>
	</g>
</g>
</svg>
