<?xml version="1.0" encoding="utf-8"?>
<!-- Generator: Adobe Illustrator 22.1.0, SVG Export Plug-In . SVG Version: 6.00 Build 0)  -->
<svg version="1.1" id="Layer_2" xmlns="http://www.w3.org/2000/svg" xmlns:xlink="http://www.w3.org/1999/xlink" x="0px" y="0px"
	 viewBox="0 0 512 512" style="enable-background:new 0 0 512 512;" xml:space="preserve">
<path id="path2995" d="M236,59.4l-25.1,25.2l-3.1,2.9l0.1,35.5l-3.4,1.1l-2.8,1l-2.9,0.9l-2.2,1l-2.6,1l-2.8,1.1l-2.5,1.2l-2.6,1.1
	l-2.3,1.1l-2,0.9l-2.4,1.3l-1.9,1.1l-2,1.1l-2.4,1.3l-1.9,1.1l-2.8,1.7l-3,2l-3.3,2.2l-2.5,1.7l-2.9,2.2l-1.8,1.4l-2.3,1.8l-2.1,1.7
	l-2.3,1.8l-2.1,1.7l-1.6,1.6l-2,1.8l-3.6,3.4l-1.6,1.5l-1.3,1.3l-1.7,1.7l-2.1,2.2l-2,2.1l-1.3,1.7l-1.6,1.7l-1.4,1.9l-1.4,1.8
	l-1.4,1.8l-1.4,1.7l-1.3,1.7l-1.3,1.6l-1,1.5l-1.2,1.9l-1.2,2l-1.1,1.4l-1,1.5l-1.6,2.5l-0.7,1.5l-0.9,1.5l-1.2,2l-1,1.5l-0.6,1.5
	l-1.2,2l-1.1,2l-1.2,2.5l-0.9,2.3l-1,2.5l-1,2.1l-0.8,1.8l-0.8,2.1l-1.2,2.6l-0.9,2.7l-1.3,3.9l-0.7,2.4l-0.8,2.7l-0.7,2.5l-0.6,2.5
	l-1.6,6.9l-0.4,2.1l-0.7,2.5l-0.5,3l-0.3,2l-0.5,3.2l-0.4,3.5l-0.5,5.5l-0.4,3.9l-0.2,3l-0.1,3.6l0.1,8.7l0.1,2.9L89,297l0.3,3.4
	l0.2,2.4l0.2,2.6l0.2,2.1l0.5,2.6l0.4,2.5l0.4,2.2l0.5,2.2l0.4,1.9l0.6,2.7l0.6,2.3l0.5,2.4l0.8,2.6l0.7,2.6l0.7,2.2l0.6,1.9
	l0.7,2.2l0.8,2.1l0.8,2.2l0.9,2.2l0.8,1.9l0.7,1.7l1,2.4l1,2.3l1.1,2.2l0.9,2.2l0.9,1.8l0.9,1.6l1.1,2.3l1,1.8l1,1.8l1.1,1.8
	l0.7,1.2l0.7,1.1l1,1.6l0.9,1.5l0.8,1.3l1,1.3l0.8,1.4l1.3,1.9l1.1,1.6l1.2,1.6l0.9,1.3l1,1.3l1.2,1.6l1,1.3l1.4,1.7l1.8,2.1
	l1.5,1.9l1.7,1.9l1.3,1.6l1.4,1.4l1.6,1.7l1.5,1.6l1.5,1.5l1.1,1.1l1.4,1.3l1.4,1.4l1.2,1.1l1.3,1.2l1.1,1l1.4,1.2l1.3,1.2l1.2,0.8
	l1.1,1l1.1,0.9l0.9,0.7l1,0.8l1.2,1l1.2,0.9l1.3,0.9l1.4,1l1.2,0.9l0.9,0.6l0.7,0.6l0.8,0.6l0.9,0.6l0.7,0.5l0.7,0.3h-47.2l-28,28
	h281l27.9-28l-146.5,0l-3.2-0.1l-3.8-0.4l-5.5-0.5l-5.1-1l-3.9-0.7l-4.1-1l-3.5-0.8l-3.9-1l-2.6-0.8l-4.1-1.5l-3.5-1.3l-3-1.1
	l-2.8-1.2l-2.9-1.5l-2.6-1.3l-3.4-1.6l-3.3-1.8l-3-1.8l-2.9-1.7l-2.2-1.4l-2.8-1.7l-2.6-1.9l-2.2-1.4l-2.2-1.6l-2.5-2.1l-2.5-2
	l-2.6-2.3l-2.5-2.1l-2.6-2.6l-2.4-2.4l-1.7-1.6l-2-2.4l-1.6-1.7l-1.6-1.7l-2-2.4l-2.2-2.7c0,0-1.9-2.6-1.9-2.8
	c0-0.2-1.9-2.4-1.9-2.4l-2.1-3.2l-1.7-2.5l-1.7-2.7l-1.6-2.8l-1.4-2.3l-1.2-2.3l-1.7-3.2l-1.3-3l-1.3-2.9l-1.4-3l-1-2.3l-0.8-2.1
	l-0.9-2.6l-1.2-3.6l-1.2-3.8l-1.2-4.3l-0.8-3.7l-0.8-4l-0.8-3.4l-0.5-4.1l-0.4-3.8l-0.4-4.3l-0.2-2.5l-0.2-2.9v-2.7l0.1-2.5l0.2-2.6
	l0.1-4.2l0.2-3.1l0.2-3.3l0.3-2.3l0.4-3.1l0.5-2.9l0.4-2.9l0.5-2.5l0.7-3.1l0.5-2.5l0.5-1.9l0.7-2.5l0.7-2.2l0.8-3l0.8-2.2l1.1-3
	l1-2.8l1-2.5l1.1-3.1l1.4-3l1-1.8l1.2-2.5l1.3-2.6l1.1-2l1.5-2.6l1.7-2.6l1.1-2l1.3-1.9l1.9-2.8l1.6-2.3l1.5-2.2l1.5-2l1.3-1.8
	l1.2-1.4l1.5-1.6l1.2-1.5l1.1-1.2l1.4-1.4l1.2-1.4l1.7-1.6l1.5-1.6l3-2.9l1.1-1.1l1.4-1.3l1.4-1.3l1.3-1.2l1.5-1.3l1.8-1.4l1.7-1.3
	l1.7-1.3l1.7-1.1l2.1-1.6l2-1.4l2.1-1.4l1.5-1.1l2-1.2l1.8-1.1l1.4-0.9l1.7-0.8l1.3-0.8l1.8-0.9l2-1l2-0.9l1.2-0.7l1.9-0.7l1.6-0.7
	l1.9-0.9l1.5-0.7l1.5-0.6l1.5-0.5l0.8-0.4v131.6l28.1-28l0.1-110.8l0.3-0.2l1.2-0.2l1.4-0.2l1.9-0.3l1.9-0.2l1.2,0l0,0l0.5,0.1
	l2.3-0.3l2.5-0.2l3-0.1l9.4-0.1l3.4,0.2l2.9,0.2l2.2,0.2l2.1,0.2l2.3,0.3l1.7,0.2l1.5,0.2l0,138.8l28.2-28V152.8l0.4,0.1l1,0.4
	l1.3,0.5l1.8,0.7l1.2,0.6l1.8,0.8l2,0.9l1.9,0.9l1.8,0.9l2,1l2.2,1.2l1.6,0.8l1.4,0.8l1.2,0.8l1.4,0.8l1.1,0.6l1.5,1l1.3,0.8
	l1.5,0.9l1.3,0.9l1.3,1l1.4,1l1.3,0.9l1.6,1.2l1.4,1.1l1.1,0.9l1.2,1l1.3,1l1.4,1.1l1.7,1.6l1.4,1.2l1.4,1.3l1.5,1.3l1.5,1.5
	l1.1,0.9l1,1.1l1.7,1.8l1.4,1.5l1,1.1l1,1.2l1.5,1.7l1.6,2l1.4,1.6l0.8,1.2l1,1.4l1.2,1.6l1,1.3l1,1.3l0.9,1.4l1.1,1.6l1,1.5
	l0.9,1.3l0.8,1.2l0.8,1.3l0.8,1.3l0.7,1.4l0.7,1.3l0.8,1.5l0.7,1.2l0.6,1.1l0.7,1.4l0.6,1l0.6,1.2l0.9,1.9l0.9,2l0.5,1.1l0.5,1.1
	l0.5,1.1l0.4,1.1l0.5,1.4l0.4,1.1l0.6,1.3l0.4,1l0.3,1l0.5,1.4l0.3,1l0.4,1.4l0.4,1.5l0.5,1.5l0.5,1.5l0.5,2l0.5,1.7l0.6,2.7
	l0.3,1.4l0.3,1.6l0.4,2.1l0.1,0.4l0.3,1.7l0.4,2l0.3,2.1l0.3,2.1l0.3,2.7l0.3,2.5l0.2,2.9l0.2,2.6l0.2,3.4l0.1,3.8l25.9-25.9l0-0.5
	l-0.2-1.1l-0.2-1.4l-0.2-1.4l-0.2-1.1l-0.3-1.7l-0.4-1.5l-0.2-1.4l-0.6-2.4l-0.3-1.3l-0.4-1.6l-0.5-1.8l-0.4-1.5l-0.4-1.5l-0.4-1.2
	l-0.4-1.4l-0.5-1.6l-0.5-1.7l-0.7-2.1l-0.6-1.7l-0.5-1.6l-0.6-1.6l-0.5-1.3l-0.7-1.9l-0.7-1.5l-0.6-1.3l-0.7-1.6l-0.7-1.5l-0.8-1.9
	l-0.7-1.5l-0.7-1.4l-0.8-1.7l-0.7-1.3l-0.8-1.7l-0.7-1.3l-0.7-1.4l-0.8-1.5l-1-1.6l-0.9-1.6l-0.8-1.3l-0.8-1.4l-0.8-1.2l-0.8-1.4
	l-0.7-1.1l-0.9-1.3l-0.6-1l-0.7-0.9l-1-1.5l-1-1.4l-0.9-1.2l-0.8-1.1l-1-1.3l-1-1.3l-1-1.3l-0.6-0.9l-0.9-1l-0.6-0.7l-1-1.2
	l-0.9-1.1l-1-1.2l-1.5-1.8L382,171l-1.2-1.2l-1.1-1.3l-1.3-1.3l-1.8-1.9l-1.6-1.5l-1.3-1.3l-1.6-1.6l-1.4-1.4l-1.3-1.1l-1.7-1.6
	l-1.4-1.1l-1.2-1.1l-1.5-1.2l-1.3-1.1l-1.5-1.2l-1.5-1.1l-1.6-1.2l-1.4-1l-1.6-1.3l-1.6-1.1l-1.3-0.9l-1.3-0.9l-1.4-0.9l-1.6-1
	l-1.7-1.1l-1.5-1l-1.3-0.8l-1.6-0.9l-1.4-0.8l-1.6-0.8l-1.6-1l-1.4-0.7l-1.6-0.9l-1.6-0.8l-1.4-0.7l-2-0.9l-1.8-0.8l-1.8-0.9l-2.2-1
	l-1.7-0.7l-1.9-0.7l-1.7-0.7l-1.5-0.6l-1.7-0.6l-2.2-0.9l-1.7-0.5l-1.9-0.7l-1.5-0.5l-1-0.2l0-63.6l-28.2,28.1l0,29.5l-2.3-0.4
	l-3-0.3l-2.4-0.3l-4-0.3l-3.8-0.1l-2.2-0.1l-5.4,0.1l-3.5,0l-4.1,0.2l-2.9,0.2l-0.7,0.2l0,0l-2.4,0.2l-2.5,0.2l-1.8,0.4l-0.8,0.3
	L236,59.4z"/>
</svg>
