<?xml version="1.0" encoding="utf-8"?>
<!-- Generator: Adobe Illustrator 22.1.0, SVG Export Plug-In . SVG Version: 6.00 Build 0)  -->
<svg version="1.1" id="Layer_3" xmlns="http://www.w3.org/2000/svg" xmlns:xlink="http://www.w3.org/1999/xlink" x="0px" y="0px"
	 viewBox="0 0 512 512" style="enable-background:new 0 0 512 512;" xml:space="preserve">
<g>
	<path d="M387.4,305c-5.4-5.9-11.9-8.8-19.4-8.8c-8.8,0-15.2,2.9-19.2,8.7c-4,5.8-7.3,13.3-10,22.5c-6.4,19.5-15.9,34.4-28.5,44.4
		c-12.6,10.1-28,15.1-46.2,15.1c-7.5,0-14.6-0.9-21.2-2.7l62-235.1c0.9,0.6,1.8,1.2,2.7,1.9c11.2,8.6,20.9,21.5,29.1,38.8
		c5,10.5,9.5,17.9,13.5,22.2c4.1,4.3,10.1,6.4,18.2,6.4c7.3,0,13.5-3.1,18.6-9.3c5.1-6.2,7.7-13.3,7.7-21.5
		c0-14.8-5.3-30.5-15.8-47.1c-10.5-16.6-25.7-30.5-45.5-41.8c-4.4-2.5-9-4.7-13.6-6.6l12.1-46c2-7.5-2.5-15.2-10-17.2
		c-7.5-2-15.2,2.5-17.2,10l-11.9,45.2c-8.6-1.6-17.7-2.3-27-2.3c-20.8,0-40.3,4.1-58.7,12.4c-18.4,8.3-34.4,20.3-48,36.1
		c-13.7,15.8-24.2,34.8-31.5,57.1c-7.3,22.2-11,47.4-11,75.6c0,17.3,1.5,33.7,4.4,49.1c2.9,15.4,7.3,29.9,13.1,43.5
		c5.8,13.6,12.9,25.9,21.1,36.8c9.3,12.1,19.4,21.8,30.4,29.2c5,3.4,10.4,6.3,16,8.9l-9.3,35.3c-2,7.5,2.5,15.2,10,17.2
		c1.2,0.3,2.4,0.5,3.6,0.5c6.2,0,11.9-4.2,13.6-10.5l8.9-33.7c12,2.6,25,3.9,39.1,3.9c21.8,0,40.8-3.9,57.2-11.7
		c16.4-7.8,29.8-17.9,40.3-30.4c10.5-12.5,18.3-25.2,23.2-38.1c4.9-13,7.4-25,7.4-36.1C395.5,318.1,392.8,310.8,387.4,305z
		 M192.2,334.4c-6.8-18-10.2-40.6-10.2-67.8c0-40.7,7.7-72.1,23.2-94.1c15.4-22.1,35-34.3,61.1-34.3c4.2,0,8.3,0.3,12.2,0.9
		l-61.2,232.3C206.2,362.6,198.5,350.9,192.2,334.4z"/>
</g>
</svg>
