<?xml version="1.0" encoding="utf-8"?>
<!-- Generator: Adobe Illustrator 22.1.0, SVG Export Plug-In . SVG Version: 6.00 Build 0)  -->
<svg version="1.1" id="Layer_2_1_" xmlns="http://www.w3.org/2000/svg" xmlns:xlink="http://www.w3.org/1999/xlink" x="0px" y="0px"
	 viewBox="0 0 512 512" style="enable-background:new 0 0 512 512;" xml:space="preserve">
<path d="M149.1,355.5c11.6-1.2,19.2-3.3,22.7-6.3c3.5-2.9,5.3-10.4,5.3-22.4V185c0-11.6-1.7-19.1-5.1-22.4
	c-3.4-3.3-11.1-5.4-22.9-6.2v-5.9h86c29,0,53.5,4.8,73.5,14.3c36.1,17.1,54.2,47.8,54.2,91.9c0,15.9-3.2,31-9.7,45.3
	s-16.3,26.4-29.4,36.3c-8.3,6.2-16.9,11-25.9,14.2c-16.3,6-36.3,9-60.1,9h-88.6V355.5z M213.4,347.1c2.5,1.7,7.8,2.5,15.8,2.5
	c24.9,0,45.4-4.9,61.5-14.8c24.7-15.2,37.1-41.1,37.1-77.8c0-32.7-10.2-57.4-30.5-73.9c-17.4-14.1-40.6-21.2-69.3-21.2
	c-7.2,0-12,0.8-14.6,2.3c-2.5,1.6-3.8,5-3.8,10.3v162.3C209.6,342,210.8,345.4,213.4,347.1z"/>
</svg>
