<?xml version="1.0" encoding="utf-8"?>
<!-- Generator: Adobe Illustrator 22.1.0, SVG Export Plug-In . SVG Version: 6.00 Build 0)  -->
<svg version="1.1" id="Layer_3" xmlns="http://www.w3.org/2000/svg" xmlns:xlink="http://www.w3.org/1999/xlink" x="0px" y="0px"
	 viewBox="0 0 512 512" style="enable-background:new 0 0 512 512;" xml:space="preserve">
<g>
	<path d="M409.5,223.3c0-99.2-59.3-169.9-150.5-169.9c-90.7,0-156.5,69.3-156.5,176.9c0,108.1,68.3,167,148,169.9l17,0.2l22.1,28.3
		l13.8,18.8c4.5,7.1,12.2,11.1,20.1,11.1c4.3,0,8.8-1.2,12.7-3.7c11.1-7,14.4-21.7,7.4-32.8l-27.9-37.7
		C370.4,364.1,409.5,308.1,409.5,223.3z M295.3,356.7l-16.6-22.4c-7-11.1-21.7-14.4-32.8-7.4c-11.1,7-14.4,21.7-7.4,32.8l3,4
		c-59.1-8.2-93.1-68.3-92.6-134.5c-0.5-72.8,35.4-140.5,108.6-140.5c71.3,0,106.2,69.3,106.2,136.6
		C363.6,285.8,339.4,337.4,295.3,356.7z"/>
</g>
</svg>
