<?xml version="1.0" encoding="utf-8"?>
<!-- Generator: Adobe Illustrator 22.1.0, SVG Export Plug-In . SVG Version: 6.00 Build 0)  -->
<svg version="1.1" id="Layer_2" xmlns="http://www.w3.org/2000/svg" xmlns:xlink="http://www.w3.org/1999/xlink" x="0px" y="0px"
	 viewBox="0 0 512 512" style="enable-background:new 0 0 512 512;" xml:space="preserve">
<g id="Layer_2_1_">
	<path d="M224.2,148.1c11.1,3.4,17.4,5.1,19.1,5.1c4.2,0,7.3-0.9,9-2.6c1.8-1.8,3.3-4.3,4.6-7.6h6.5l2.3,67.2h-6.8
		c-6.1-15.5-12.3-27-18.8-34.6c-11.7-13.3-26.8-20-45.5-20c-19,0-35.7,7.8-50.1,23.3c-14.4,15.5-21.6,41.1-21.6,76.8
		c0,29.4,7.2,52.4,21.5,68.9c14.4,16.5,32.1,24.8,53.2,24.8c3.6,0,7.8-0.4,12.6-1.1c4.8-0.7,9.4-1.9,13.7-3.4
		c7-2.5,11.4-4.6,13.2-6.5c1.7-1.8,2.6-4.5,2.6-8v-50.9c0-12.3-1.6-20-4.8-23c-3.2-3-10.3-4.9-21.2-5.6v-5.9h75.5v5.9
		c-7.3,0.5-12.2,1.8-14.6,3.9c-4,3.3-6.1,10.2-6.1,20.6v62.8c0,3.7-8.5,8.7-25.5,15c-17,6.2-33.4,9.4-49.1,9.4
		c-28.9,0-53.3-9.1-73.2-27.3c-21.9-20.1-32.8-47-32.8-80.7c0-29.7,8.7-55.2,26.2-76.4c19.2-23.4,44.6-35.1,76.3-35.1
		C201.9,143,213.1,144.7,224.2,148.1z"/>
	<path d="M294.4,301.1c3.1,13.1,7.2,23.2,12.5,30.2c9.6,12.7,23.9,19.2,43,19.6v-92.1c-21-12.4-34.9-21.9-41.6-28.6
		c-10.9-10.6-16.3-23-16.3-37.3c0-12.1,5.2-23.1,15.7-33.1c10.5-10,24.6-15.4,42.2-16.2v-20.4h11.3v20.4c8.8,0.5,18.5,2.2,29.1,5.1
		c9.9,3.1,17.6,7.2,23.2,12.2v36.3h-4.8c-2.4-14-8.1-24.8-17-32.4s-19.1-11.7-30.5-12.1v79.8c23.7,12,40,22.8,49.2,32.4
		c9.1,9.6,13.7,22.4,13.7,38.3c0,6.2-1.1,12.2-3.2,18.1c-3.2,9.2-8.6,17-16.2,23.2c-5.8,4.9-12.8,8.5-21,11
		c-8.2,2.4-15.6,3.9-22.4,4.5v28.8h-11.4V360c-13.8-0.3-25.3-1.9-34.3-4.8c-6-1.9-14.7-5.8-26-11.8v-42.2h4.8V301.1z M349.9,152.7
		c-10,1.3-18,4.9-24.2,10.9s-9.2,13.6-9.2,22.8c0,8.7,4.4,17.4,13.2,26.1c5.5,5.3,12.3,10.2,20.2,14.8V152.7z M383.2,342.6
		c10.3-7.1,15.4-18,15.4-32.6c0-10.2-3.8-19.1-11.3-26.9c-4.6-4.6-13.3-10.8-26.1-18.6v86.4C370.4,349.2,377.7,346.5,383.2,342.6z"
		/>
</g>
</svg>
