<?xml version="1.0" encoding="utf-8"?>
<!-- Generator: Adobe Illustrator 22.1.0, SVG Export Plug-In . SVG Version: 6.00 Build 0)  -->
<svg version="1.1" id="Layer_2" xmlns="http://www.w3.org/2000/svg" xmlns:xlink="http://www.w3.org/1999/xlink" x="0px" y="0px"
	 viewBox="0 0 512 512" style="enable-background:new 0 0 512 512;" xml:space="preserve">
<g>
	<g>
		<g>
			<path d="M229.8,275.1h30.5c15.8,0,26.9,11.6,26.9,27.5v54.5h34.2v-54.5c0-34.6-26.5-61.6-61-61.6h-8l75.7-84.7h-45.8l-52.5,58.2
				v-58.2h-34.2v200.9h18.2h15.9L229.8,275.1L229.8,275.1z"/>
		</g>
		<g>
			<polygon points="180.6,156.3 178.3,156.3 146.4,156.3 146.4,239.6 87.7,239.6 87.7,156.3 53.5,156.3 53.5,357.1 87.7,357.1 
				87.7,273.8 146.4,273.8 146.4,357.1 178.3,357.1 180.6,357.1 			"/>
		</g>
		<g>
			<path d="M458.2,300.6c0-27.6-18-51.1-44-58.3v-49.2c6.8,4.8,10.1,12.1,10.1,20.6h34.2c0-28.3-18.3-51.2-44.3-58.3v-15.5h-34.2
				v15.8c-24.6,7.5-42.9,30.6-42.9,57.9c0,27.3,18.3,50.4,42.9,57.9v48.8c-5.5-4.9-8.4-11.8-8.4-19.2h-34.2c0,26.8,18,50,42.6,57.6
				v13.5h34.2v-13.2C440.2,351.6,458.2,328.2,458.2,300.6z M371.3,213.6c0-7.8,3.3-14.8,8.7-19.6v39.3
				C374.6,228.4,371.3,221.4,371.3,213.6z M414.2,321.1v-40.9c6.8,4.9,9.8,12.2,9.8,20.4C424,308.8,421.1,316.2,414.2,321.1z"/>
		</g>
	</g>
</g>
</svg>
