<?xml version="1.0" encoding="utf-8"?>
<!-- Generator: Adobe Illustrator 22.1.0, SVG Export Plug-In . SVG Version: 6.00 Build 0)  -->
<svg version="1.1" id="Layer_2" xmlns="http://www.w3.org/2000/svg" xmlns:xlink="http://www.w3.org/1999/xlink" x="0px" y="0px"
	 viewBox="0 0 512 512" style="enable-background:new 0 0 512 512;" xml:space="preserve">
<g>
	<path d="M409,269.1V375c0,1.2-1,2.2-2.2,2.2H379c-1.2,0-2.2-1-2.2-2.2V272.8c0-33.3-12.7-50.2-37.7-50.2c-18.5,0-34.1,12.3-40,31.4
		c-1.3,3.7-2.1,8.9-2.1,14.4v106.6c0,1.2-1,2.2-2.2,2.2h-34.4c-1.2,0-2.2-1-2.2-2.2L258,197.7c0-0.6,0.2-1.2,0.6-1.6
		c0.4-0.4,1-0.6,1.6-0.6h29.2c0.6,0,1.2,0.2,1.6,0.7c0.4,0.4,0.6,1,0.6,1.6l-0.1,22.2c8-12.6,21.9-26.2,50.4-26.2
		C357.7,193.7,409,199.1,409,269.1z M160.5,288.3l69.3-86.6c1-1.2,1.2-3,0.4-4.3c-0.7-1.3-2.1-2.2-3.7-2.2h-29.6
		c-1.3,0-2.5,0.6-3.3,1.6L135.1,271V126.7c0-2.2-1.8-4-4.1-4h-23.9c-2.3,0-4.1,1.8-4.1,4v246.5c0,2.2,1.9,4,4.1,4H131
		c2.3,0,4.1-1.8,4.1-4v-62.4l3.5-0.1l62.6,65.2c0.8,0.8,1.9,1.3,3,1.3h28.2c1.6,0,3-0.9,3.7-2.3c0.7-1.5,0.5-3.2-0.6-4.4
		L160.5,288.3z"/>
</g>
</svg>
