<?xml version="1.0" encoding="utf-8"?>
<!-- Generator: Adobe Illustrator 22.1.0, SVG Export Plug-In . SVG Version: 6.00 Build 0)  -->
<svg version="1.1" id="Layer_2_1_" xmlns="http://www.w3.org/2000/svg" xmlns:xlink="http://www.w3.org/1999/xlink" x="0px" y="0px"
	 viewBox="0 0 512 512" style="enable-background:new 0 0 512 512;" xml:space="preserve">
<path d="M291.6,151.3c11.1,3.4,17.4,5.1,19.1,5.1c4.2,0,7.3-0.9,9-2.6c1.8-1.8,3.3-4.3,4.6-7.6h6.5l2.3,67.2h-6.8
	c-6.1-15.5-12.3-27-18.8-34.6c-11.7-13.3-26.8-20-45.5-20c-19,0-35.7,7.8-50.1,23.3s-21.6,41.1-21.6,76.8c0,29.4,7.2,52.4,21.5,68.9
	c14.4,16.5,32.1,24.8,53.2,24.8c3.6,0,7.8-0.4,12.6-1.1s9.4-1.9,13.7-3.4c7-2.5,11.4-4.6,13.2-6.5c1.7-1.8,2.6-4.5,2.6-8v-50.9
	c0-12.3-1.6-20-4.8-23c-3.2-3-10.3-4.9-21.2-5.6v-5.9h75.5v5.9c-7.3,0.5-12.2,1.8-14.6,3.9c-4,3.3-6.1,10.2-6.1,20.6v62.8
	c0,3.7-8.5,8.7-25.5,15c-17,6.2-33.4,9.4-49.1,9.4c-28.9,0-53.3-9.1-73.2-27.3c-21.9-20.1-32.8-47-32.8-80.7
	c0-29.7,8.7-55.2,26.2-76.4c19.2-23.4,44.6-35.1,76.3-35.1C269.3,146.2,280.5,147.9,291.6,151.3z"/>
</svg>
