<?xml version="1.0" encoding="utf-8"?>
<!-- Generator: Adobe Illustrator 22.1.0, SVG Export Plug-In . SVG Version: 6.00 Build 0)  -->
<svg version="1.1" id="Layer_3" xmlns="http://www.w3.org/2000/svg" xmlns:xlink="http://www.w3.org/1999/xlink" x="0px" y="0px"
	 viewBox="0 0 512 512" style="enable-background:new 0 0 512 512;" xml:space="preserve">
<g>
	<g>
		<path d="M257.7,135.9H134.1c-2,0-3.6,1.6-3.6,3.6v229.5c0,2,1.6,3.6,3.6,3.6h29.6c2,0,3.6-1.6,3.6-3.6V268.8h83.2
			c2,0,3.6-1.6,3.6-3.6v-24.5c0-2-1.6-3.6-3.6-3.6h-83.2V168h90.4c2,0,3.6-1.6,3.6-3.6v-24.9C261.3,137.6,259.7,135.9,257.7,135.9z"
			/>
		<path d="M377.9,200.6h-39.3v-35.9c0-1.1-0.5-2.2-1.4-2.8c-0.9-0.7-2-0.9-3.1-0.6l-29.3,0c-1.6,0.4-2.7,1.8-2.7,3.5v35.9h-21.9
			c-2,0-3.6,1.6-3.6,3.6v22.8c0,2,1.6,3.6,3.6,3.6h21.9V317c0,22,4,36.5,12.5,45.3c7.9,9,20,13.8,35.1,13.8
			c11.2,0,21.1-1.5,27.9-4.4c1.4-0.6,2.3-2,2.2-3.5l-0.1-22.5c-0.1-1.1-0.6-2.1-1.5-2.7c-0.9-0.6-2-0.8-3-0.5
			c-3.2,0.9-9.9,1.9-17.7,1.9c-9.8,0-18.9-3.4-18.9-28.4v-85.3h39.3c2,0,3.6-1.6,3.6-3.6v-22.8C381.5,202.3,379.9,200.6,377.9,200.6
			z"/>
	</g>
</g>
</svg>
