<?xml version="1.0" encoding="utf-8"?>
<!-- Generator: Adobe Illustrator 22.1.0, SVG Export Plug-In . SVG Version: 6.00 Build 0)  -->
<svg version="1.1" id="Layer_2" xmlns="http://www.w3.org/2000/svg" xmlns:xlink="http://www.w3.org/1999/xlink" x="0px" y="0px"
	 viewBox="0 0 512 512" style="enable-background:new 0 0 512 512;" xml:space="preserve">
<g>
	<g>
		<path d="M333.6,186.2c-18.9,0-33.6,6.7-44.8,20.4l0-13.8c0-1.9-1.5-3.4-3.4-3.4l-21.4,0c-0.9,0-1.8,0.4-2.4,1
			c-0.6,0.6-1,1.5-1,2.4l-0.1,196.4c0,0.9,0.4,1.8,1,2.4c0.6,0.6,1.5,1,2.4,1h22.2c1.9,0,3.4-1.5,3.4-3.4v-66.3
			c9.6,10.2,23.8,15.9,39.8,15.9c32.6,0,67.7-24.5,67.7-78.3C397,217.4,370.3,186.2,333.6,186.2z M329.6,312.1
			c-22.7,0-41.2-22.2-41.2-49.6c0-27.3,18.5-49.6,41.2-49.6c22.7,0,41.2,22.2,41.2,49.6C370.9,289.9,352.4,312.1,329.6,312.1z"/>
		<path d="M214.9,227.9c18-15.4,25-30.4,25-52.9c0-15.9-5.8-29.8-16.3-39.1c-12.6-11.4-30.4-16.5-57.5-16.5l-46.6,0.2
			c-2.5,0-4.5,2-4.5,4.5v189.5c0,2.5,2,4.5,4.5,4.5h24.3c2.5,0,4.5-2,4.5-4.5v-77.1h36l28.4,78.6c0.6,1.8,2.3,3,4.2,3h25.1
			c1.5,0,2.9-0.7,3.7-1.9c0.8-1.2,1-2.7,0.5-4.1L214.9,227.9z M206.6,177.8c0,19-14.9,31.2-37.9,31.2h-20.4v-61.9l19.5,0
			C193.5,147.4,206.6,157.7,206.6,177.8z"/>
	</g>
</g>
</svg>
