<?xml version="1.0" encoding="utf-8"?>
<!-- Generator: Adobe Illustrator 22.1.0, SVG Export Plug-In . SVG Version: 6.00 Build 0)  -->
<svg version="1.1" id="Layer_2" xmlns="http://www.w3.org/2000/svg" xmlns:xlink="http://www.w3.org/1999/xlink" x="0px" y="0px"
	 viewBox="0 0 512 512" style="enable-background:new 0 0 512 512;" xml:space="preserve">
<g>
	<path d="M225.4,154.8H122.1L122,376.9c0,10.9-8.9,19.8-19.8,19.8s-19.8-8.9-19.8-19.8L82.6,135c0-10.9,8.9-19.8,19.8-19.8h123
		c59.4,0,107.8,48.3,107.8,107.8v101.2c0,10.9-8.9,19.8-19.8,19.8s-19.8-8.9-19.8-19.8V223C293.6,185.4,263,154.8,225.4,154.8z
		 M409.8,115.3c-10.9,0-19.8,8.9-19.8,19.8l-0.1,222.1H286.6c-37.6,0-68.2-30.6-68.2-68.2V187.8c0-10.9-8.9-19.8-19.8-19.8
		s-19.8,8.9-19.8,19.8V289c0,59.4,48.3,107.8,107.8,107.8h123c10.9,0,19.8-8.9,19.8-19.8l0.1-241.9
		C429.5,124.1,420.7,115.3,409.8,115.3z"/>
</g>
</svg>
