<?xml version="1.0" encoding="utf-8"?>
<!-- Generator: Adobe Illustrator 22.1.0, SVG Export Plug-In . SVG Version: 6.00 Build 0)  -->
<svg version="1.1" id="Layer_2" xmlns="http://www.w3.org/2000/svg" xmlns:xlink="http://www.w3.org/1999/xlink" x="0px" y="0px"
	 viewBox="0 0 512 512" style="enable-background:new 0 0 512 512;" xml:space="preserve">
<g>
	<path d="M375.6,142.9h-29.7c-2-17.2-8-33.3-17.5-45.8h47.2c11.3,0,20.4-8.4,20.4-19.7c0-11.3-9.1-20-20.4-20H215.6
		c-0.6,0-1.1,0-1.8,0c-0.4,0-0.8,0-1.2,0h-76.2c-11.3,0-20.4,8.7-20.4,20s9.1,19.7,20.4,19.7h90.7c28.6,2.1,58.6,13.2,66.5,45.8
		H136.4c-11.3,0-20.4,9.2-20.4,20.5c0,11.3,9.1,20.5,20.4,20.5h155.2c-9.7,25.8-36.2,41.5-73,41.5h-40.7h-0.1h-23.7
		c-11,0-19.9,8.9-19.9,19.9c0,11,8.9,19.9,19.9,19.9h23.4c0.1,0,0.2,0.1,0.3,0.1h37c40.2,1.5,58.1,19,68.3,66.7
		c8,35.4,13.9,58.5,18.6,72.3c3.5,12.8,10.4,32.1,22.3,43.6c4.7,4.5,10.7,6.7,16.7,6.7c6.3,0,12.6-2.5,17.4-7.4
		c8.7-9,8.8-23,0.9-32.3c0-0.1,0-0.2-0.1-0.3c-7.3-13.6-16.2-50.1-27-96.4c-8.6-37.6-24.7-61.1-49-71.5
		c30.6-11.7,51.6-34.2,59.9-62.9h32.8c11.3,0,20.4-9.2,20.4-20.5S386.9,142.9,375.6,142.9z"/>
</g>
</svg>
