<?xml version="1.0" encoding="utf-8"?>
<!-- Generator: Adobe Illustrator 22.1.0, SVG Export Plug-In . SVG Version: 6.00 Build 0)  -->
<svg version="1.1" id="Layer_3" xmlns="http://www.w3.org/2000/svg" xmlns:xlink="http://www.w3.org/1999/xlink" x="0px" y="0px"
	 viewBox="0 0 512 512" style="enable-background:new 0 0 512 512;" xml:space="preserve">
<style type="text/css">
	.st0{fill:#020202;}
</style>
<path class="st0" d="M96.7,166.2l12.3-25.4c0,0,38.5,27.1,51.7,48.2c13.1,21,20.1,56.9,3.5,74.4s-54.3,21.9-72.7,13.1
	c-18.4-8.8-14-51.7-14-51.7h8.8c0,0-2.6,28.9,24.5,29.8c27.1,0.9,42.9-7,47.3-12.3s6.2-25.3-27.1-53.4
	C105.5,167.6,96.7,166.2,96.7,166.2z"/>
<circle class="st0" cx="230.5" cy="255.3" r="24"/>
<path class="st0" d="M371.6,168c0,0-5.9-25-32.2-28.6c-26.3-3.6-50.9,18.1-51.9,47s16.4,37.4,27.3,48.3c0,0-29.6,23-30.2,61.7
	s14.1,50.2,17.1,53.2c3,3,20.4,20.7,66.7,23.3s66.7-31.5,66.7-31.5s-31.5,5.3-52.9,5.3s-62.4-4.6-76.5-31.5
	c-14.1-26.9-1.6-52.5,18.1-63.4s71.3-35.5,71.3-35.5l5.9-27.3c0,0-46,21.3-50.2,23.6c-4.3,2.3-11.2,4.6-21,0.3S306,201.5,304,192.6
	c-2.1-9.5,1.8-19.6,9.9-25.9C321.4,160.7,334.5,155.8,371.6,168z"/>
</svg>
