<?xml version="1.0" encoding="utf-8"?>
<!-- Generator: Adobe Illustrator 22.1.0, SVG Export Plug-In . SVG Version: 6.00 Build 0)  -->
<svg version="1.1" id="Layer_2" xmlns="http://www.w3.org/2000/svg" xmlns:xlink="http://www.w3.org/1999/xlink" x="0px" y="0px"
	 viewBox="0 0 512 512" style="enable-background:new 0 0 512 512;" xml:space="preserve">
<g>
	<g>
		<path d="M310.3,326.8L310.3,326.8c8.4,0,16.8,0,25.3-0.1l3.4,0c9.8-0.1,19.6-0.1,29.5-0.1c2.4,0,4.3-1.8,4.5-4.2
			c4.8-69.2-0.6-98.4-21.5-115.8c-0.8-0.7-1.8-1-2.9-1l-0.5,0c-1.2,0.1-2.4,0.8-3.1,1.8c-11.7,15.8-11.4,30.1,1.1,46.3
			c4.5,5.9,6.3,14.5,8.4,24.6c0.6,3.2,1.3,6.4,2.1,9.7c-7.3,0-14.3-0.1-21.4-0.1l-1.9,0c-7.5-0.1-14.7-0.1-21.8-0.1
			c-12.6,0-23,0.2-32.6,0.5l-1.5,0c-12.5,0-17.9-4.5-18.9-15.6c-1.2-14.6-2.6-31.8-3.9-48.2c-1.7-21.4-3.3-41.5-4.3-53
			c-1.8-19.9-12.8-52.2-14-55.8c-0.6-1.8-2.3-3-4.3-3c-1.9,0-3.6,1.2-4.2,3c-1,2.9-2.4,6-3.7,9c-3.3,7.2-6.6,14.7-5.9,22.4
			c1.6,16.5,4.6,33,7.5,49.2l0.1,0.5c1.8,10.1,3.7,20.6,5.2,31c1.5,10.4,2.6,21.3,3.6,31c1.3,12.2,2.5,24.9,4.6,37.4
			c3.2,19.2,13.9,29.9,30.3,30.2C281.6,326.7,294.6,326.8,310.3,326.8z"/>
		<path d="M305.2,363.9l17.9,20.4c0.8,0.9,2,1.5,2.9,1.5l0.5,0c1.1,0,2.2-0.4,3.1-1.2l19.4-18.1c1.8-1.7,1.9-4.4,0.3-6.2l-19.1-21.9
			c-0.8-0.9-1.9-1.5-3.4-1.5c-1.1,0-2.2,0.4-3,1.2l-19.6,18.1c-0.7,0.6-1,1.4-1.2,2.2l-17.7-21c-0.8-0.9-1.9-1.5-3.4-1.6
			c-1.1,0-2.2,0.4-3,1.2l-19.4,17.7c-1.8,1.6-2,4.4-0.4,6.3l19.4,22.5c0.8,0.9,1.9,1.5,3.3,1.6h0.1c1.1,0,2.2-0.4,3-1.2l19.2-17.5
			C304.6,365.5,305,364.8,305.2,363.9z"/>
		<path d="M204.3,120.3c-0.9-7-6.1-13.3-15.8-19.1c-3.7-2.2-7.1-5.5-10.6-8.9c-1.8-1.8-3.8-3.6-5.8-5.5c-0.8-0.7-1.9-1.1-3-1.1
			l-0.7,0.1c-1.3,0.2-2.5,1-3.2,2.2c-10.9,18.6-6.9,34.9-2.3,53.7l1.1,4.4c8.4,35.5,11.9,72.9,15.4,109.2l1.3,13.5
			c2.2,22.6-0.5,37.7-8.6,47.4c-8.4,10.1-23,15.6-47.5,17.9c-4.2,0.4-8.4,0.4-11.9,0.4l-8.8-0.1c-22.4,0-38.7-6.1-47.1-17.5
			c-4.1-5.5-5.6-10.3-5.1-16c0.5-6.6,7.2-28,17.5-43.6c1.5-2.3,2-5,1.5-7.7c-0.6-2.7-2.1-5-4.4-6.5c-4.6-3-11.3-1.6-14.2,2.9
			c-14.4,20.4-21.4,49.1-22.6,54.7c-4,16.5-1.3,32.5,7.6,45.3c9,13,23.6,21.3,41,23.4c8.8,1.1,18.1,1.6,28.2,1.6
			c8.5,0,17.5-0.4,27.7-1.1c24.4-1.8,42.8-9.9,54.7-23.9c12.8-15.1,17.9-37,15.2-65c-2.3-23.9-5.1-47.8-7.8-70.9l-0.2-1.4
			c-2-16.9-4-34.3-5.8-51.4c-0.5-4.7,0.5-9.9,2.1-11.6C201.4,135.9,205.3,127.9,204.3,120.3z"/>
		<path d="M469.3,268.3l-2.7-3.2c-5.2-6.7-18.5-23.6-30.5-37.4c-5.8-6.7-16.9-7.4-23.6-1.6c-6.9,6.1-7.6,16.7-1.6,23.6
			c8.8,10.1,18.7,22.4,25.6,31.1c1.3,1.4,2.2,2.7,3.1,3.9c0.8,1.1,1.7,2.3,2.7,3.4c8.7,10.2,21.2,30.5,6.2,53.1
			c-27.6,41.5-59.6,62.6-94.9,62.6c0,0,0,0,0,0c-2.8,0-5.6-0.1-8.5-0.4c-7-0.6-14.2-2.2-21.1-3.7c-1.5-0.3-3-0.6-4.6-1
			c-1.9-0.4-3.8-0.8-5.3-1.1c-3.6-0.8-6.1,1.8-6.9,3.9c-0.5,2.3,0.9,4.6,3.2,5.3c7.6,2.1,15.6,5,22.7,7.6
			c16.1,5.8,32.7,11.9,49.1,11.9c1.3,0,2.6,0,3.9-0.1c34.4-2.1,58.3-26.6,83.2-62.5c0.6-0.6,14.7-15.8,15.2-46.4
			C485,286.8,469.9,269,469.3,268.3z"/>
	</g>
</g>
</svg>
