<?xml version="1.0" encoding="utf-8"?>
<!-- Generator: Adobe Illustrator 22.1.0, SVG Export Plug-In . SVG Version: 6.00 Build 0)  -->
<svg version="1.1" id="Layer_3" xmlns="http://www.w3.org/2000/svg" xmlns:xlink="http://www.w3.org/1999/xlink" x="0px" y="0px"
	 viewBox="0 0 512 512" style="enable-background:new 0 0 512 512;" xml:space="preserve">
<g>
	<path d="M64.8,170.2h23v86.1h0.8c4.8-6.9,9.5-13.2,14-19.1l54.6-67h28.6l-64.6,75.8l69.7,102.8h-27.3L104.8,261l-17,19.6v68.1h-23
		V170.2z"/>
	<path d="M205.1,320.6c10.3,6.4,25.4,11.7,41.3,11.7c23.6,0,37.3-12.4,37.3-30.5c0-16.7-9.5-26.2-33.6-35.5
		C221,256,203,240.9,203,215.7c0-27.8,23-48.5,57.7-48.5c18.3,0,31.5,4.2,39.5,8.7l-6.4,18.8c-5.8-3.2-17.7-8.5-33.9-8.5
		c-24.4,0-33.6,14.6-33.6,26.8c0,16.7,10.9,24.9,35.5,34.4c30.2,11.7,45.6,26.2,45.6,52.4c0,27.5-20.4,51.4-62.5,51.4
		c-17.2,0-36-5-45.6-11.4L205.1,320.6z"/>
	<path d="M338.1,160.6h23.3v80h0.5c3.7-6.6,9.5-12.4,16.7-16.4c6.9-4,15.1-6.6,23.8-6.6c17.2,0,44.8,10.6,44.8,54.8v76.3h-23.3
		v-73.6c0-20.7-7.7-38.1-29.7-38.1c-15.1,0-27,10.6-31.3,23.3c-1.3,3.2-1.6,6.6-1.6,11.1v77.3h-23.3V160.6z"/>
</g>
</svg>
