<?xml version="1.0" encoding="utf-8"?>
<!-- Generator: Adobe Illustrator 22.1.0, SVG Export Plug-In . SVG Version: 6.00 Build 0)  -->
<svg version="1.1" id="Layer_3" xmlns="http://www.w3.org/2000/svg" xmlns:xlink="http://www.w3.org/1999/xlink" x="0px" y="0px"
	 viewBox="0 0 512 512" style="enable-background:new 0 0 512 512;" xml:space="preserve">
<path d="M290.8,197l-58.4-47.2l23.9-32.2c0,0,19.7,19.6,44.9,18.2c25.2-1.4,30.3-27.9,31.8-39.8c0,0-27.6,9.7-76.7-29.4
	c0,0-56.4,75.7-58.9,80c-2.5,4.3-9.6,15.9,0,26.1c9.6,10.2,42.2,37.3,42.2,37.3v22.2h-38.4v37.2h38.4v40.6c0,0-50.5-3.5-58.9,37.8
	c-8.4,41.3,14.8,65,58.9,97.8h51.1V269.3h32.8v-37.2h-32.8V197z M239,398.8c0,0-24.1-13.9-23.6-35.5c0.5-21.6,23.6-14.9,23.6-14.9
	V398.8z"/>
</svg>
