<?xml version="1.0" encoding="utf-8"?>
<!-- Generator: Adobe Illustrator 22.1.0, SVG Export Plug-In . SVG Version: 6.00 Build 0)  -->
<svg version="1.1" id="Layer_2" xmlns="http://www.w3.org/2000/svg" xmlns:xlink="http://www.w3.org/1999/xlink" x="0px" y="0px"
	 viewBox="0 0 512 512" style="enable-background:new 0 0 512 512;" xml:space="preserve">
<g id="Layer_2_1_">
	<path d="M215.3,159.4c11.3,3.2,17.5,4.7,18.8,4.7c2.9,0,5.4-0.8,7.9-2.4s4.2-3.9,5.2-7.2h6.2l2.7,66.2h-6.7
		c-3.9-13.1-9.1-23.7-15.5-31.8c-12.1-15.1-28.4-22.7-48.7-22.7c-20.7,0-37.5,8.1-50.6,24.4c-13.1,16.3-19.7,38.6-19.7,67.2
		c0,26.2,6.9,47.2,20.7,62.8c13.8,15.6,31.3,23.5,52.3,23.5c15.3,0,29.2-3.7,42.2-10.9c7.4-4.2,15.5-10.4,24.4-18.7l5.5,5.5
		c-6.6,8.2-14.6,15.5-24.4,21.7c-16.5,10.6-34.3,15.8-53.6,15.8c-31.6,0-56.8-10.1-75.3-30.4c-17.1-18.7-25.7-42-25.7-70.1
		c0-28.7,9.1-52.8,27.2-72.3c19-20.3,43.9-30.6,74.4-30.6C193.2,154.7,204.2,156.2,215.3,159.4z"/>
	<path d="M273.2,347.4c11.6-1.2,18.8-3.4,21.7-6.4c2.9-3,4.2-10.9,4.2-23.5V190c0-10.4-1.5-17.3-4.7-20.5s-10.2-5.2-21.2-6v-5.5H430
		l1,42.2h-8.2c-2-13.4-5.9-22-11.4-25.5c-5.5-3.5-16.5-5.4-32.9-5.4h-40.3c-3.9,0-6.4,0.7-7.6,2s-1.7,4-1.7,7.9v65.7h42.7
		c12.6,0,20.5-1.8,24-5.5c3.5-3.7,6.2-11.3,8.4-22.5h6.9v68.1h-6.9c-2.2-11.4-5-19-8.4-22.7c-3.5-3.7-11.4-5.5-23.9-5.5H329v64.4
		c0,10.8,1.7,17.6,5,20.7c3.4,3,10.6,4.9,21.7,5.7v5.5h-82.3v-5.4H273.2z"/>
</g>
</svg>
