<?xml version="1.0" encoding="utf-8"?>
<!-- Generator: Adobe Illustrator 22.1.0, SVG Export Plug-In . SVG Version: 6.00 Build 0)  -->
<svg version="1.1" id="Layer_2" xmlns="http://www.w3.org/2000/svg" xmlns:xlink="http://www.w3.org/1999/xlink" x="0px" y="0px"
	 viewBox="0 0 512 512" style="enable-background:new 0 0 512 512;" xml:space="preserve">
<g>
	<path d="M462.2,255.8h-61.1l8.7-35.3h52.4c4.9,0,8.8-4,8.8-8.8c0-4.9-4-8.8-8.8-8.8h-48l10.6-43c2.7-11.1,4.1-19.2,4.1-24
		c0-6-2-10.7-6.1-14.7c-4.2-4-9.2-5.9-15.2-5.9c-5.9,0-10.4,1.4-13.2,4.2c-3.3,3.3-5.6,6.9-6.9,10.9c-1.5,4.7-3.2,11.3-5,19.7
		l-11.8,52.8h-66.3L292.9,161c-3.4-12.5-6.2-21.6-8.1-26.9c-1.7-4.6-5-9.1-9.6-13.1c-4.3-3.8-10.6-5.7-18.9-5.7
		c-8.2,0-14.6,1.9-19.1,5.5c-4.8,3.9-8.2,8.5-10.3,13.8c-2.3,5.9-5.1,14.8-8.1,26.4l-11.2,41.9h-66.1l-11.8-52.7
		c-2.6-12.2-5.6-21.5-8.9-27.7c-1-1.8-3.9-7.2-16.2-7.2c-6.2,0-11.2,2-15.3,6c-4.1,4-6.1,8.8-6.1,14.6c0,5.3,1.4,13.3,4.1,23.9
		l10.6,43.1h-48c-4.9,0-8.8,4-8.8,8.8c0,4.9,3.9,8.8,8.8,8.8h52.4l8.7,35.3H49.8c-4.9,0-8.8,4-8.8,8.8c0,4.9,3.9,8.8,8.8,8.8h65.5
		l19,76.8c1.4,5.6,3,11.7,4.8,18.3c1.7,6.1,3.8,11.4,6.4,15.8c2.4,4,5.3,7.1,9.1,9.2c3.7,2.1,8.7,3.2,14.7,3.2
		c7.5,0,13.2-1.8,17.5-5.4c4.5-3.8,7.7-8.1,9.5-12.8c2.1-5.4,4.9-14.6,8.4-27.2l21.3-78h60.2l21,78c3.7,13,6.5,22.3,8.5,27.6
		c1.7,4.5,4.9,8.7,9.4,12.5c4.3,3.5,10.2,5.3,17.5,5.3c7.8,0,13.9-1.8,17.9-5.4c4.4-3.9,7.5-8.4,9.3-13.5c2-5.8,4.7-15.1,7.8-27.7
		l19-76.8h65.5c4.9,0,8.8-3.9,8.8-8.8C471,259.7,467.1,255.8,462.2,255.8z M366.6,220.5l-7.9,35.3h-40.1l-9.6-35.3H366.6z
		 M256.3,162.5l10.9,40.4h-21.9L256.3,162.5z M145.4,220.5h57.4l-9.5,35.3h-40L145.4,220.5z M171.5,336.9l-14.2-63.5h31.3
		L171.5,336.9z M230.9,255.8l9.6-35.3H272l9.5,35.3H230.9z M340.5,336.8l-17.2-63.4h31.4L340.5,336.8z"/>
</g>
</svg>
