<?xml version="1.0" encoding="utf-8"?>
<!-- Generator: Adobe Illustrator 22.1.0, SVG Export Plug-In . SVG Version: 6.00 Build 0)  -->
<svg version="1.1" id="Layer_3" xmlns="http://www.w3.org/2000/svg" xmlns:xlink="http://www.w3.org/1999/xlink" x="0px" y="0px"
	 viewBox="0 0 512 512" style="enable-background:new 0 0 512 512;" xml:space="preserve">
<g id="Layer_2_2_">
	<path d="M259.9,355.5c10.5-1.2,17.4-3.3,20.6-6.3c3.2-2.9,4.8-10.4,4.8-22.4V185c0-11.6-1.5-19.1-4.6-22.4
		c-3.1-3.3-10.1-5.4-20.8-6.2v-5.9H338c26.3,0,48.6,4.8,66.8,14.3c32.8,17.1,49.2,47.8,49.2,91.9c0,15.9-2.9,31-8.8,45.3
		c-5.9,14.3-14.8,26.4-26.7,36.3c-7.5,6.2-15.3,11-23.5,14.2c-14.8,6-33,9-54.6,9h-80.5V355.5z M318.3,347.1
		c2.3,1.7,7.1,2.5,14.4,2.5c22.6,0,41.2-4.9,55.9-14.8c22.4-15.2,33.7-41.1,33.7-77.8c0-32.7-9.3-57.4-27.7-73.9
		c-15.8-14.1-36.9-21.2-62.9-21.2c-6.5,0-10.9,0.8-13.3,2.3c-2.3,1.6-3.5,5-3.5,10.3v162.3C314.9,342,315.9,345.4,318.3,347.1z"/>
	<path d="M58,356c11.7-1,19-3.4,21.8-6.9c2.8-3.6,4.2-12.1,4.2-25.6V185.1c0-11.5-1.6-19-4.7-22.4c-3.1-3.4-10.3-5.5-21.3-6.3v-5.9
		h82.1v5.9c-11.3,0.6-18.5,2.7-21.8,6.2c-3.3,3.5-4.9,11-4.9,22.4v65.3c17.8-16.7,32.3-31,43.6-42.7c20.2-21.2,30.3-34.8,30.3-40.8
		c0-4.2-1.7-7-5.1-8.4c-3.4-1.3-8.3-2-14.6-2v-5.9h75.6v5.9c-9.2,1-16.5,3-21.8,5.9c-5.3,2.9-12.7,9.3-22.1,19.2l-56.3,57.7l68.7,82
		c12.5,14.7,21,23.9,25.5,27.6c4.5,3.7,11.1,6.1,19.9,7.2v5.4h-88.2V356c8-0.3,13.4-1,16.2-2.1s4.2-3.3,4.2-6.5
		c0-1.8-0.9-4.5-2.7-8.1c-1.8-3.6-4.7-7.9-8.7-12.6l-55.5-66.3l-8.9,9.1v57.7c0,11.9,1.6,19.4,4.9,22.5c3.2,3.2,10.3,5.3,21.2,6.3
		v5.4H58V356z"/>
</g>
</svg>
