<?xml version="1.0" encoding="utf-8"?>
<!-- Generator: Adobe Illustrator 22.1.0, SVG Export Plug-In . SVG Version: 6.00 Build 0)  -->
<svg version="1.1" id="Layer_2" xmlns="http://www.w3.org/2000/svg" xmlns:xlink="http://www.w3.org/1999/xlink" x="0px" y="0px"
	 viewBox="0 0 512 512" style="enable-background:new 0 0 512 512;" xml:space="preserve">
<g>
	<path d="M438.7,440.2L289.9,277.1h117.7c11.7,0,21.2-9.5,21.2-21.2c0-11.7-9.5-21.2-21.2-21.2H295.3L426.1,71.3
		c2.2-2.7,2.5-6.5,0.9-9.5c-1.6-3-4.6-4.8-8-4.8h-64.7c-2.8,0-5.4,1.3-7.1,3.4L219.3,222.7V65.9c0-4.9-4-8.8-9-8.8h-52.1
		c-5,0-9,4-9,8.8v169h-57c-11.7,0-21.2,9.5-21.2,21.2c0,11.7,9.5,21.2,21.2,21.2h57v169c0,4.9,4,8.8,9,8.8h52.1c5,0,9-4,9-8.8V309.8
		l7.6-0.1l136.8,142.5c1.7,1.8,4.1,2.8,6.6,2.8H432c3.4,0,6.6-2,8.1-5C441.7,446.7,441.1,442.9,438.7,440.2z"/>
</g>
</svg>
