<?xml version="1.0" encoding="utf-8"?>
<!-- Generator: Adobe Illustrator 22.1.0, SVG Export Plug-In . SVG Version: 6.00 Build 0)  -->
<svg version="1.1" id="Layer_2" xmlns="http://www.w3.org/2000/svg" xmlns:xlink="http://www.w3.org/1999/xlink" x="0px" y="0px"
	 viewBox="0 0 512 512" style="enable-background:new 0 0 512 512;" xml:space="preserve">
<polygon points="75,287.5 90.7,269.4 110.5,292.9 94.3,311 "/>
<polygon points="264.1,287.5 279.8,269.4 299.7,292.9 283.4,311 "/>
<path d="M149.1,255.6c0,0-12.6,11.4-16.3,53.6c-3.6,42.2,15.7,55.4,25.3,60.8c9.6,5.4,41,6.6,62.6-16.3s19.3-55.4,19.3-70.5
	c0-15.1-4.8-91.6-4.8-91.6s1.8,0.6,4.2,0.6s9.6-28.9,9.6-28.9s-28.3-13.9-31.3-24.7c0,0-10.8,15.7-12.6,21.1
	c-1.8,5.4-3.6,12.6,2.4,18.1c0,0,11.4,107.2,7.2,127.7c-4.2,20.5-49.4,34.9-58.4,19.3c-10.4-18-10.2-30.7-8.4-48.2
	S150.9,260.4,149.1,255.6z"/>
<path d="M337,255.6c0,0-12.6,11.4-16.3,53.6c-3.6,42.2,15.7,55.4,25.3,60.8c9.6,5.4,41,6.6,62.6-16.3s19.3-55.4,19.3-70.5
	c0-15.1-4.8-91.6-4.8-91.6s1.8,0.6,4.2,0.6c2.4,0,9.6-28.9,9.6-28.9s-28.3-13.9-31.3-24.7c0,0-10.8,15.7-12.6,21.1
	c-1.8,5.4-3.6,12.6,2.4,18.1c0,0,11.4,107.2,7.2,127.7c-4.2,20.5-49.4,34.9-58.4,19.3c-10.4-18-10.2-30.7-8.4-48.2
	S338.8,260.4,337,255.6z"/>
</svg>
