<?xml version="1.0" encoding="utf-8"?>
<!-- Generator: Adobe Illustrator 22.1.0, SVG Export Plug-In . SVG Version: 6.00 Build 0)  -->
<svg version="1.1" id="Layer_2" xmlns="http://www.w3.org/2000/svg" xmlns:xlink="http://www.w3.org/1999/xlink" x="0px" y="0px"
	 viewBox="0 0 512 512" style="enable-background:new 0 0 512 512;" xml:space="preserve">
<g>
	<path d="M284.8,219.2h25.6c4.9,0,8.8-4,8.8-8.8c0-4.9-3.9-8.8-8.8-8.8h-25.8c-1.7-11.6-6.7-21.7-14.8-28.8
		c-12.1-10.9-29.2-15.8-55.5-15.8l-46.1,0.2c-1.4,0-2.6,1.2-2.6,2.6v42h-29.3c-4.9,0-8.8,3.9-8.8,8.8c0,4.9,3.9,8.8,8.8,8.8h29.3
		v127.6c0,1.4,1.1,2.6,2.6,2.6h24c1.4,0,2.6-1.1,2.6-2.6v-78h38.8l28.6,78.9c0.4,1,1.3,1.7,2.4,1.7h24.8c0.8,0,1.6-0.4,2.1-1.1
		c0.5-0.7,0.6-1.6,0.3-2.4l-31.5-84.3C275.8,248.6,283.1,236.3,284.8,219.2z M194.8,180.5l21.2,0c15.4,0.2,33.2,4.3,38.6,21.1h-59.7
		V180.5z M216.8,245.4h-22v-26.2h60.8C252.5,235.3,238,245.4,216.8,245.4z M384.4,314.7c0,24.6-19.4,40.4-49.5,40.4
		c-13.5,0-26.7-3.2-36.2-8.9l-1.8-1.1c-0.5-0.3-0.8-0.9-0.6-1.5l7.3-22.1c0.1-0.4,0.4-0.7,0.8-0.8c0.4-0.1,0.8-0.1,1.1,0.1l2.9,1.9
		c6.2,4.1,17,8.2,27.1,8.2c12.4,0,19.7-5.3,19.7-14.2c0-8.5-5.1-13.2-20.1-18.7c-28.8-10.3-34.8-26.4-34.8-38.2
		c0-23.4,18.9-39.7,46-39.7c11.4,0,23.4,3,32,8.1l1.8,1.1c0.5,0.3,0.8,1,0.6,1.6l-7.3,21.3c-0.1,0.4-0.4,0.7-0.8,0.8
		c-0.4,0.1-0.8,0.1-1.1-0.1l-2.8-1.8c-3.1-1.9-11.4-6.4-22.8-6.4c-9.8,0-16.5,5.1-16.5,12.7c0,7.1,4.6,10.9,20.6,17
		C373.8,283.3,384.4,295.8,384.4,314.7z"/>
</g>
</svg>
