<?xml version="1.0" encoding="utf-8"?>
<!-- Generator: Adobe Illustrator 22.1.0, SVG Export Plug-In . SVG Version: 6.00 Build 0)  -->
<svg version="1.1" id="Layer_2" xmlns="http://www.w3.org/2000/svg" xmlns:xlink="http://www.w3.org/1999/xlink" x="0px" y="0px"
	 viewBox="0 0 512 512" style="enable-background:new 0 0 512 512;" xml:space="preserve">
<g>
	<g>
		<path d="M356.7,252.4c3,0,5.4-2.4,5.4-5.4v-19.2c0-3-2.4-5.4-5.4-5.4h-30.8v-34.5c0-1.4-0.6-2.9-1.6-3.9c-1.3-1.3-3.2-1.5-3.9-1.6
			h-24.7c-3,0-5.4,2.5-5.4,5.4v34.5h-16.1c-3,0-5.4,2.4-5.4,5.4V247c0,3,2.4,5.4,5.4,5.4h16.1v70.4c0,19.3,3.5,31.9,11.1,39.8
			c7.2,8.2,18,12.5,31.4,12.5c9.7,0,18.4-1.4,24.5-3.9c2.1-0.9,3.5-3,3.4-5.4l-1.1-19c-0.1-1.6-0.9-3.1-2.3-4.1
			c-1.3-0.9-3-1.3-4.6-0.8c-2.6,0.7-6.9,1.5-13.2,1.5c-6.6,0-13.5-1.7-13.5-21.6v-69.6H356.7z"/>
		<path d="M271.3,339h-81.6V142.2c0-2.9-2.4-5.2-5.2-5.2h-29.2c-2.9,0-5.2,2.3-5.2,5.2v226.6c0,2.9,2.4,5.2,5.2,5.2h116.1
			c2.9,0,5.2-2.3,5.2-5.2v-24.5C276.5,341.3,274.1,339,271.3,339z"/>
	</g>
</g>
</svg>
