<?xml version="1.0" encoding="utf-8"?>
<!-- Generator: Adobe Illustrator 22.1.0, SVG Export Plug-In . SVG Version: 6.00 Build 0)  -->
<svg version="1.1" id="Layer_3" xmlns="http://www.w3.org/2000/svg" xmlns:xlink="http://www.w3.org/1999/xlink" x="0px" y="0px"
	 viewBox="0 0 512 512" style="enable-background:new 0 0 512 512;" xml:space="preserve">
<g>
	<g>
		<path d="M254.5,341h-84.7V136.7c0-3-2.4-5.4-5.4-5.4h-30.4c-3,0-5.4,2.4-5.4,5.4v235.2c0,3,2.4,5.4,5.4,5.4h120.5
			c3,0,5.4-2.4,5.4-5.4v-25.5C259.9,343.4,257.5,341,254.5,341z"/>
		<path d="M337.3,271.6c-22-8.4-25.7-13.1-25.7-20.4c0-8.8,7.9-14.7,19.6-14.7c14.4,0,24.9,5.7,28.8,8.1l3.7,2.3
			c0.9,0.6,2.1,0.7,3.1,0.3c1-0.4,1.8-1.2,2.2-2.2l9.5-27.8c0.6-1.6-0.1-3.4-1.6-4.3l-2.4-1.4c-11.5-6.8-27.4-10.8-42.7-10.8
			c-36.4,0-61.9,22.1-61.9,53.7c0,15.9,8.1,37.8,46.6,51.6c18.7,6.9,25,12.6,25,22.7c0,10.4-8.9,16.6-23.9,16.6
			c-12.7,0-26.4-5.2-34.3-10.4l-3.7-2.4c-0.9-0.6-2-0.8-3.2-0.4c-1.1,0.4-1.9,1.2-2.2,2.3l-9.5,28.9c-0.5,1.6,0.1,3.3,1.6,4.2
			l2.4,1.4c12.8,7.5,30.3,11.8,48.2,11.8c40.4,0,66.5-21.5,66.5-54.6C383.5,300.6,369.2,283.8,337.3,271.6z"/>
	</g>
</g>
</svg>
