<?xml version="1.0" encoding="utf-8"?>
<!-- Generator: Adobe Illustrator 22.1.0, SVG Export Plug-In . SVG Version: 6.00 Build 0)  -->
<svg version="1.1" id="Layer_3" xmlns="http://www.w3.org/2000/svg" xmlns:xlink="http://www.w3.org/1999/xlink" x="0px" y="0px"
	 viewBox="0 0 512 512" style="enable-background:new 0 0 512 512;" xml:space="preserve">
<g id="Layer_2_3_">
	<path d="M240.7,346.2c10.5-1.1,17.5-3,20.6-5.7s4.7-9.4,4.7-20.3V191.7c0-10.5-1.6-17.3-4.7-20.3c-3.1-3-10.1-4.9-20.8-5.7v-5.3
		h77.9c26.3,0,48.5,4.4,66.5,12.9c32.7,15.6,49.1,43.3,49.1,83.2c0,14.3-3,28-8.8,41.1c-5.8,12.9-14.8,23.9-26.6,32.9
		c-7.6,5.7-15.3,9.9-23.4,12.9c-14.8,5.5-32.9,8.2-54.4,8.2h-80.2v-5.3H240.7z M298.9,338.7c2.4,1.6,7.1,2.2,14.3,2.2
		c22.5,0,41.1-4.4,55.7-13.4c22.3-13.7,33.5-37.3,33.5-70.5c0-29.6-9.3-51.9-27.7-66.9C359,177.4,338,171,311.9,171
		c-6.4,0-10.9,0.6-13.2,2c-2.4,1.4-3.5,4.6-3.5,9.3v146.9C295.4,334.1,296.7,337.1,298.9,338.7z"/>
	<path d="M78.3,346.2c10.7-1.1,17.5-3,20.6-5.7c3.1-2.7,4.7-9.4,4.7-20.3V191.7c0-10.2-1.6-17-4.7-20.1c-3.1-3.1-10.1-5-20.8-5.8
		v-5.3h81.5v5.3c-10.7,0.6-17.8,2.4-21.4,5.2c-3.6,3-5.5,9.1-5.5,18.7v138.8c0,3.1,0.5,5.7,1.6,7.6s3.5,3,7.1,3.5
		c2.2,0.3,4.4,0.5,6.9,0.6c2.4,0.2,6.9,0.2,13.5,0.2c25.6,0,43.1-2,52.1-6.3c9-4.2,17.8-15.1,26.3-32.4h7.4l-14.2,50H78v-5.3H78.3z"
		/>
</g>
</svg>
