<?xml version="1.0" encoding="utf-8"?>
<!-- Generator: Adobe Illustrator 22.1.0, SVG Export Plug-In . SVG Version: 6.00 Build 0)  -->
<svg version="1.1" id="Layer_3" xmlns="http://www.w3.org/2000/svg" xmlns:xlink="http://www.w3.org/1999/xlink" x="0px" y="0px"
	 viewBox="0 0 512 512" style="enable-background:new 0 0 512 512;" xml:space="preserve">
<path d="M62.2,313.3c7.6-0.8,12.5-2.5,14.6-5.2c2.2-2.7,3.2-8.8,3.2-18.5v-74.5c0-6.6-1-10.9-3.1-12.9c-2.1-2-6.8-3.2-14.3-3.5v-3.4
	h36.2l42.2,91.5l41.1-91.5h36.5v3.4c-6.8,0.5-11.2,1.7-13.2,3.7c-2,2-3,6.3-3,12.8v81.6c0,6.7,1,11,3,12.9s6.4,3.1,13.2,3.7v3.4
	h-51.4v-3.4c7.4-0.6,12-1.9,13.9-4c1.8-2.1,2.7-7,2.7-14.7v-82.4l-47,104.6h-2.5L88.1,216.5v73.2c0,10,1.5,16.6,4.4,19.6
	c1.9,2,6.2,3.3,12.8,4v3.4H62.2V313.3z"/>
<path d="M224.3,313.3c6.7-0.7,11.1-1.9,13.1-3.6c2-1.7,3-6,3-12.9v-81.7c0-6.7-1-11-3-12.9c-2-1.9-6.4-3.1-13.2-3.6v-3.4h49.5
	c16.7,0,30.8,2.8,42.3,8.2c20.8,9.9,31.2,27.5,31.2,52.9c0,9.1-1.9,17.8-5.6,26.1c-3.7,8.2-9.4,15.2-16.9,20.9
	c-4.8,3.6-9.7,6.3-14.9,8.2c-9.4,3.5-20.9,5.2-34.6,5.2h-51V313.3z M261.3,308.5c1.5,1,4.5,1.4,9.1,1.4c14.3,0,26.1-2.8,35.4-8.5
	c14.2-8.7,21.3-23.7,21.3-44.8c0-18.8-5.9-33-17.6-42.5c-10-8.1-23.3-12.2-39.9-12.2c-4.1,0-6.9,0.4-8.4,1.3
	c-1.5,0.9-2.2,2.9-2.2,5.9v93.4C259.1,305.6,259.9,307.5,261.3,308.5z"/>
<path d="M342.1,313.3c6.8-0.7,11.1-1.9,13.1-3.6c2-1.7,3-6,3-12.9v-81.7c0-6.5-1-10.8-3-12.8c-2-2-6.4-3.2-13.2-3.7v-3.4h51.8v3.4
	c-6.8,0.4-11.3,1.5-13.6,3.3c-2.3,1.9-3.5,5.8-3.5,11.9v88.2c0,2,0.3,3.6,1,4.8c0.7,1.2,2.2,1.9,4.5,2.2c1.4,0.2,2.8,0.3,4.4,0.4
	c1.5,0.1,4.4,0.1,8.6,0.1c16.3,0,27.4-1.3,33.1-4c5.7-2.7,11.3-9.6,16.7-20.6h4.7l-9,31.8h-98.8V313.3z"/>
</svg>
