<?xml version="1.0" encoding="utf-8"?>
<!-- Generator: Adobe Illustrator 22.1.0, SVG Export Plug-In . SVG Version: 6.00 Build 0)  -->
<svg version="1.1" id="Layer_3" xmlns="http://www.w3.org/2000/svg" xmlns:xlink="http://www.w3.org/1999/xlink" x="0px" y="0px"
	 viewBox="0 0 512 512" style="enable-background:new 0 0 512 512;" xml:space="preserve">
<g id="Layer_2_2_">
	<path d="M70.9,376.3v-6.6c9.2-1,16.1-4.5,20.7-10.4c4.6-5.9,12.5-22,23.6-48.2l74.4-175.3h7.1l89,202.5
		c5.9,13.4,10.7,21.7,14.2,24.9c3.5,3.2,9.5,5.3,17.9,6.5v6.6H227v-6.6c10.4-0.9,17.2-2.1,20.2-3.4c3-1.3,4.5-4.6,4.5-9.8
		c0-1.7-0.6-4.8-1.7-9.2c-1.2-4.4-2.8-9-4.9-13.9L230.8,299h-94.1c-9.3,23.4-14.8,37.6-16.6,42.8c-1.8,5.2-2.7,9.2-2.7,12.2
		c0,6,2.4,10.2,7.3,12.5c3,1.4,8.7,2.4,17.1,3.1v6.6H70.9z M224.7,284.5l-40.9-98.4l-41.1,98.4H224.7z"/>
	<path d="M324.6,370.7c10.5-0.9,17.5-2.8,20.9-5.6s5.1-8.8,5.1-17.9V270c0-11.3-1.1-19.4-3.2-24.2c-2.1-4.9-6-7.3-11.6-7.3
		c-1.1,0-2.7,0.1-4.5,0.4c-1.9,0.3-3.9,0.7-5.9,1.1v-5.7c6.5-2.3,13.1-4.6,20-7c6.8-2.4,11.6-4.1,14.2-5.1
		c5.7-2.2,11.6-4.6,17.6-7.4c0.8,0,1.3,0.3,1.5,0.9c0.2,0.6,0.3,1.8,0.3,3.6v28.1c7.3-10.2,14.4-18.1,21.2-23.8
		c6.8-5.7,13.9-8.6,21.2-8.6c5.8,0,10.6,1.7,14.2,5.2c3.7,3.5,5.5,7.9,5.5,13.1c0,4.7-1.4,8.6-4.2,11.8c-2.8,3.2-6.3,4.8-10.5,4.8
		c-4.3,0-8.7-2-13.1-6s-7.8-6-10.4-6c-4,0-8.9,3.2-14.7,9.7c-5.8,6.5-8.7,13.1-8.7,19.9v77.2c0,9.8,2.3,16.6,6.8,20.5
		c4.6,3.8,12.2,5.6,22.8,5.4v5.7h-84.4L324.6,370.7L324.6,370.7z"/>
</g>
</svg>
