<?xml version="1.0" encoding="utf-8"?>
<!-- Generator: Adobe Illustrator 22.1.0, SVG Export Plug-In . SVG Version: 6.00 Build 0)  -->
<svg version="1.1" id="Layer_2" xmlns="http://www.w3.org/2000/svg" xmlns:xlink="http://www.w3.org/1999/xlink" x="0px" y="0px"
	 viewBox="0 0 512 512" style="enable-background:new 0 0 512 512;" xml:space="preserve">
<g>
	<path d="M179.7,281.3l-7.1-0.2V166.5c0-2.7-2.2-4.9-4.9-4.9H74.3c-2.7,0-4.9,2.2-4.9,4.9v36c0,19.3-0.2,37.4-5.3,53.6
		c-2.7,8.7-6.7,17.1-11.7,24.9l-9.2,0.2c-2.7,0.1-4.8,2.3-4.7,5l0,62.5c0,2.6,3.3,4.8,6,4.8h19.7c2.6,0,5.8-2.1,5.8-4.7l0-39.2h85
		l0,39.2c0.1,2.6,3.2,4.7,5.8,4.7h17.3c2.6,0,5.9-2.1,6-4.8l0.3-62.5c0-1.3-0.5-2.5-1.4-3.5C182.2,281.8,181,281.3,179.7,281.3z
		 M138.4,190.5v90.2H88.8c3.3-6.6,5.8-13,7.8-19.5c4.8-16.2,4.9-34.5,4.9-52.8v-18L138.4,190.5L138.4,190.5L138.4,190.5z
		 M265.7,158.5c-41,0-69.7,32.6-69.7,79.4c0,45.3,28.6,74.5,72.8,74.5c23.2,0,38.9-4.9,48-9c2.1-1,3.3-3.3,2.7-5.6l-4.3-18
		c-0.3-1.4-1.3-2.6-2.5-3.2c-1.3-0.6-2.8-0.7-4.1-0.1c-8.3,3.5-18.4,6.8-36.4,6.8c-12,0-39.3-3.8-42.3-38.2h92
		c2.5,0,4.6-1.9,4.8-4.3l0.1-1.2c0.3-2.5,0.7-6.4,0.7-11.1C327.6,193.6,308.5,158.5,265.7,158.5z M263.7,186.2
		c8.6,0,15.5,2.6,20.5,7.7c6.9,7,8.8,17.1,9.3,23.4h-62.6C233.9,203.8,243.3,186.2,263.7,186.2z M473.5,166.5v138.2
		c0,2.7-2.2,4.9-4.9,4.9h-24.8c-2.7,0-4.9-2.2-4.9-4.9V247H383v57.7c0,2.7-2.2,4.9-4.9,4.9h-24.8c-2.7,0-4.9-2.2-4.9-4.9V166.5
		c0-2.7,2.2-4.9,4.9-4.9h24.8c2.7,0,4.9,2.2,4.9,4.9v50.8h55.9v-50.8c0-2.7,2.2-4.9,4.9-4.9h24.8
		C471.3,161.6,473.5,163.8,473.5,166.5z"/>
</g>
</svg>
