<?xml version="1.0" encoding="utf-8"?>
<!-- Generator: Adobe Illustrator 22.1.0, SVG Export Plug-In . SVG Version: 6.00 Build 0)  -->
<svg version="1.1" id="Layer_2" xmlns="http://www.w3.org/2000/svg" xmlns:xlink="http://www.w3.org/1999/xlink" x="0px" y="0px"
	 viewBox="0 0 512 512" style="enable-background:new 0 0 512 512;" xml:space="preserve">
<g>
	<path d="M406.1,73c-5.1-4.6-13.6-7-25.1-7H130.4c-10.9,0-19.1,2.3-24.5,6.9c-5,4.3-7.5,10.2-7.5,17.9c0,7.5,2.4,13.2,7.2,17.6
		c5,4.5,13.3,6.8,24.7,6.8h93.9v106.3l-84,49.2c-7.9,4.7-10.6,14.8-5.9,22.8c3.1,5.3,8.7,8.2,14.4,8.2c2.9,0,5.8-0.7,8.4-2.3
		l67.2-39.4v52.6l-84,49.2c-7.9,4.6-10.6,14.8-5.9,22.8c3.1,5.3,8.7,8.2,14.4,8.2c2.9,0,5.8-0.7,8.4-2.3l67.2-39.4v54.6
		c0,14,3,24.3,8.9,30.7c5.8,6.3,13.3,9.4,22.7,9.4c9.3,0,16.6-3,22.3-9.3c5.8-6.3,8.8-16.7,8.8-30.9v-91.4l84.5-49.5
		c7.9-4.7,10.6-14.8,5.9-22.8c-4.6-7.9-14.8-10.6-22.8-5.9l-67.7,39.7v-52.6l84.5-49.5c7.9-4.7,10.6-14.8,5.9-22.8
		c-4.6-7.9-14.8-10.6-22.8-5.9l-67.7,39.7v-69.5H381c11.4,0,19.8-2.3,25-6.9c5-4.4,7.4-10.1,7.4-17.6
		C413.5,83.3,411.1,77.4,406.1,73z"/>
</g>
</svg>
