<?xml version="1.0" encoding="utf-8"?>
<!-- Generator: Adobe Illustrator 22.1.0, SVG Export Plug-In . SVG Version: 6.00 Build 0)  -->
<svg version="1.1" id="Layer_3" xmlns="http://www.w3.org/2000/svg" xmlns:xlink="http://www.w3.org/1999/xlink" x="0px" y="0px"
	 viewBox="0 0 512 512" style="enable-background:new 0 0 512 512;" xml:space="preserve">
<g>
	<path d="M50.2,305.2c6.8-0.7,11.1-2.2,13.1-4.6c1.9-2.4,2.9-7.9,2.9-16.5v-66.7c0-5.9-0.9-9.8-2.8-11.6c-1.9-1.8-6.1-2.8-12.7-3.2
		v-3H83l37.7,81.8l36.8-81.8h32.6v3c-6.1,0.4-10,1.5-11.8,3.3c-1.8,1.8-2.6,5.6-2.6,11.4v73c0,6,0.9,9.8,2.6,11.5
		c1.8,1.7,5.7,2.8,11.8,3.3v3h-45.9v-3c6.6-0.5,10.8-1.7,12.4-3.6c1.6-1.8,2.4-6.2,2.4-13.2v-73.7L117,308.3h-2.2l-41.3-89.7v65.5
		c0,9,1.3,14.8,3.9,17.5c1.7,1.8,5.5,3,11.5,3.6v3H50.2V305.2z"/>
	<path d="M204.8,211.8c10.1-9.7,22.5-14.5,37.3-14.5c14.8,0,27.3,4.9,37.4,14.6c11,10.5,16.4,24.6,16.4,42.1c0,17.8-5.7,32-17,42.5
		c-10.2,9.4-22.4,14.1-36.8,14.1c-15.4,0-28.2-5.2-38.3-15.6c-10.3-10.6-15.5-24.3-15.5-41C188.3,236.5,193.8,222.4,204.8,211.8z
		 M217.1,292.3c6.8,8.3,15.1,12.4,25,12.4c9.7,0,18-4,24.8-12.1c6.9-8,10.3-20.9,10.3-38.6c0-17.9-3.5-30.8-10.4-38.8
		c-7-8-15.2-11.9-24.7-11.9c-9.8,0-18.2,4.1-25,12.4c-6.8,8.3-10.2,21-10.2,38.4C206.9,271.3,210.3,284,217.1,292.3z"/>
	<path d="M295.2,307.4c6.5-0.6,10.6-1.9,12.2-3.9s2.4-6.5,2.4-13.5v-74.1c0-6-0.9-9.9-2.7-11.8c-1.8-1.9-5.8-3.1-11.9-3.6v-3.2h45.1
		c14.5,0,25.6,2.8,33.2,8.4c7.7,5.6,11.5,13,11.5,22.2c0,11.6-4.3,20.1-12.8,25.3c-8.5,5.2-19.2,7.9-32,7.9c-1.8,0-4.2,0-7.1-0.1
		s-5-0.1-6.4-0.1V292c0,6.4,1,10.5,3,12.1c2,1.7,6.4,2.7,13.2,3.2v3.2H295v-3.1H295.2z M352.9,206.9c-4.8-2.1-11-3.2-18.4-3.2
		c-3.5,0-5.7,0.3-6.5,1c-0.8,0.7-1.2,2.2-1.2,4.6V254c3.1,0.3,5.1,0.4,6,0.5s1.9,0.1,2.8,0.1c7.9,0,14-1.1,18.5-3.3
		c8.2-4.1,12.3-11.7,12.3-22.8C366.5,218,361.9,210.8,352.9,206.9z"/>
	<path d="M393.6,279.7c1.6,6.9,3.8,12.2,6.6,15.9c5,6.7,12.6,10.1,22.6,10.3v-48.4c-11-6.5-18.3-11.5-21.8-15
		c-5.7-5.6-8.6-12.1-8.6-19.6c0-6.3,2.8-12.1,8.3-17.4c5.5-5.2,12.9-8.1,22.1-8.5v-10.7h5.9V197c4.6,0.3,9.7,1.2,15.3,2.7
		c5.2,1.6,9.2,3.8,12.2,6.4v19h-2.5c-1.3-7.3-4.3-13-8.9-17c-4.7-4-10-6.1-16-6.3v41.9c12.4,6.3,21,12,25.8,17s7.2,11.7,7.2,20.1
		c0,3.2-0.6,6.4-1.7,9.5c-1.7,4.8-4.5,8.9-8.5,12.2c-3.1,2.6-6.7,4.5-11,5.8s-8.2,2.1-11.8,2.3v15.1h-5.9v-15.1
		c-7.3-0.2-13.3-1-18-2.5c-3.2-1-7.7-3.1-13.6-6.2v-22.2L393.6,279.7L393.6,279.7z M422.8,201.7c-5.2,0.7-9.5,2.6-12.7,5.7
		c-3.2,3.1-4.8,7.1-4.8,12c0,4.6,2.3,9.1,6.9,13.7c2.9,2.8,6.4,5.4,10.6,7.8V201.7z M440.2,301.5c5.4-3.7,8.1-9.4,8.1-17.1
		c0-5.3-2-10.1-5.9-14.1c-2.4-2.4-7-5.7-13.7-9.8v45.4C433.5,304.9,437.3,303.5,440.2,301.5z"/>
</g>
</svg>
