<?xml version="1.0" encoding="utf-8"?>
<!-- Generator: Adobe Illustrator 22.1.0, SVG Export Plug-In . SVG Version: 6.00 Build 0)  -->
<svg version="1.1" id="Layer_3" xmlns="http://www.w3.org/2000/svg" xmlns:xlink="http://www.w3.org/1999/xlink" x="0px" y="0px"
	 viewBox="0 0 512 512" style="enable-background:new 0 0 512 512;" xml:space="preserve">
<path d="M119.6,162.9v5.1c-10.6,0.7-17.4,2.5-20.6,5.3c-3.1,2.8-4.7,9.3-4.7,19.4v88.1c0,14.4,2,25.7,5.9,33.8
	c7.4,14.7,21.3,22.1,41.8,22.1c22.5,0,37.6-7.5,45.3-22.6c4.3-8.4,6.5-21.4,6.5-39v-71.7c0-15-1.8-24.4-5.4-28.2
	c-3.6-3.8-10.4-6.2-20.5-7.2v-5.1h63.8v5.1c-10.7,1.2-17.6,3.7-20.9,7.7c-3.3,4-4.9,13.2-4.9,27.6v71.7c0,19-2.9,33.9-8.7,44.5
	c-10.8,19.6-31.2,29.5-61.4,29.5c-29.8,0-50.1-9.7-60.8-29.1c-5.8-10.4-8.7-24.1-8.7-41.2v-86.1c0-10-1.5-16.5-4.6-19.3
	c-3.1-2.8-9.8-4.6-20.2-5.4v-5.1H119.6z"/>
<path d="M235.8,340.1c11.4-1.2,18.7-3.7,21.9-7.7c3.2-4,4.8-13.2,4.8-27.8V192.7c0-9.9-1.6-16.4-4.7-19.4c-3.1-3-10.3-4.8-21.4-5.3
	v-5.1h54.3L354,300.1l61.7-137.3h54.8v5.1c-10.2,0.7-16.8,2.6-19.8,5.6c-3,3-4.4,9.4-4.4,19.2v122.5c0,10,1.5,16.5,4.4,19.3
	c3,2.8,9.6,4.7,19.8,5.6v5.1h-77.1v-5.1c11.1-0.9,18-2.9,20.8-6c2.7-3.1,4.1-10.5,4.1-22.1V188.3l-70.6,156.9H344l-69.4-150.4v109.8
	c0,15.1,2.2,24.9,6.6,29.4c2.9,3,9.3,5,19.2,6.1v5.1h-64.7V340.1z"/>
</svg>
