<?xml version="1.0" encoding="utf-8"?>
<!-- Generator: Adobe Illustrator 22.1.0, SVG Export Plug-In . SVG Version: 6.00 Build 0)  -->
<svg version="1.1" id="Layer_2" xmlns="http://www.w3.org/2000/svg" xmlns:xlink="http://www.w3.org/1999/xlink" x="0px" y="0px"
	 viewBox="0 0 512 512" style="enable-background:new 0 0 512 512;" xml:space="preserve">
<path d="M123.5,143.7c15-3.1,36.4-4.8,56.8-4.8c31.6,0,52,5.8,66.3,18.7c11.6,10.2,18,25.8,18,43.5c0,30.2-19,50.3-43.2,58.5v1
	c17.7,6.1,28.2,22.4,33.6,46.2c7.5,31.9,12.9,54,17.7,62.9h-30.6c-3.7-6.5-8.8-26.2-15.3-54.7c-6.8-31.6-19-43.5-45.9-44.5h-27.9
	v99.2h-29.6V143.7z M153.1,248h30.2c31.6,0,51.7-17.3,51.7-43.5c0-29.6-21.4-42.5-52.7-42.8c-14.3,0-24.5,1.4-29.2,2.7V248z"/>
<path d="M288.2,339.1c8.8,5.8,24.5,11.9,39.4,11.9c21.7,0,31.9-10.9,31.9-24.5c0-14.3-8.5-22.1-30.6-30.2
	c-29.6-10.5-43.5-26.8-43.5-46.6c0-26.5,21.4-48.3,56.8-48.3c16.7,0,31.3,4.8,40.4,10.2l-7.5,21.7c-6.5-4.1-18.4-9.5-33.6-9.5
	c-17.7,0-27.5,10.2-27.5,22.4c0,13.6,9.9,19.7,31.3,27.9c28.5,10.9,43.2,25.1,43.2,49.6c0,28.9-22.4,49.3-61.5,49.3
	c-18,0-34.7-4.4-46.2-11.2L288.2,339.1z"/>
</svg>
