<?xml version="1.0" encoding="utf-8"?>
<!-- Generator: Adobe Illustrator 22.1.0, SVG Export Plug-In . SVG Version: 6.00 Build 0)  -->
<svg version="1.1" id="Layer_3" xmlns="http://www.w3.org/2000/svg" xmlns:xlink="http://www.w3.org/1999/xlink" x="0px" y="0px"
	 viewBox="0 0 512 512" style="enable-background:new 0 0 512 512;" xml:space="preserve">
<path d="M60.1,307.7c7.1-0.7,11.6-2.3,13.6-4.8c2-2.5,3-8.2,3-17.2v-69.3c0-6.2-1-10.2-2.9-12c-1.9-1.9-6.4-3-13.3-3.3v-3.2h33.7
	l39.2,85l38.3-85h33.9v3.2c-6.3,0.4-10.4,1.6-12.3,3.5c-1.8,1.9-2.8,5.8-2.8,11.9v75.9c0,6.2,0.9,10.2,2.8,12
	c1.8,1.7,5.9,2.9,12.3,3.5v3.2h-47.8v-3.2c6.9-0.6,11.2-1.8,12.9-3.7c1.7-1.9,2.5-6.5,2.5-13.7v-76.6l-43.7,97.2h-2.3l-43-93.2v68.1
	c0,9.3,1.4,15.4,4.1,18.2c1.8,1.8,5.8,3.1,11.9,3.7v3.2H60.1V307.7z"/>
<path d="M269.7,240.8c5.9,5.4,8.8,13.1,8.8,23.1h-52.9c0.6,12.9,3.5,22.2,8.8,28.1c5.3,5.9,11.5,8.8,18.8,8.8
	c5.8,0,10.8-1.5,14.8-4.6c4-3,7.7-7.4,11.1-13l2.9,1c-2.3,7.1-6.5,13.6-12.8,19.6c-6.3,6-13.9,9-23,9c-10.5,0-18.5-3.9-24.2-11.8
	c-5.7-7.9-8.5-17-8.5-27.3c0-11.2,3.3-20.8,9.9-28.9c6.6-8.1,15.2-12.2,25.8-12.2C256.9,232.7,263.8,235.4,269.7,240.8z
	 M229.7,247.2c-1.8,3-3.1,6.8-3.8,11.3h35.2c-0.6-5.6-1.7-9.7-3.2-12.4c-2.7-4.9-7.3-7.3-13.7-7.3
	C237.9,238.7,233.1,241.5,229.7,247.2z"/>
<path d="M325.3,234.2v2.3c-2.1,0.1-3.9,0.3-5.4,0.9c-1.5,0.5-2.2,1.6-2.2,3.3c0,1.1,1.5,4,4.4,8.9c1.6,2.5,3.6,5.6,6,9.3
	c3.2-4.4,5.6-7.9,7.2-10.5c2.7-4.1,4.1-6.8,4.1-8c0-1.4-0.6-2.4-1.8-2.9c-1.2-0.5-2.8-0.8-4.9-1v-2.3h26.8v2.3
	c-2.8,0.2-5.5,1-7.9,2.3c-2.4,1.3-4.4,3-5.9,5.2l-14.1,20.3l21.9,33.6c2.8,4.3,5.2,7.1,7.2,8.4c2,1.3,4.2,2,6.8,2.1v2.3h-34.4v-2.3
	l2.4-0.2c1.3-0.1,2.3-0.5,3.2-1.2c0.9-0.7,1.3-1.5,1.3-2.5c0-1.1-1.1-3.4-3.2-7c-1-1.8-2.5-4.3-4.4-7.4c-0.9-1.5-2.3-3.6-4.1-6.4
	c-1.8-2.7-3.4-5-4.6-6.9L310,298.3c-1.6,2.5-2.6,4.2-3,5c-0.4,0.8-0.6,1.5-0.6,2.1c0,1.1,0.4,1.8,1.3,2.1c0.9,0.3,2.7,0.7,5.6,1.1
	v2.3h-24.7v-2.3c3-0.6,5.2-1.4,6.7-2.3c1.4-0.9,3.4-3.1,5.8-6.6l18.9-28.2l-15.5-24.3c-3.2-4.8-5.4-7.7-6.7-8.6
	c-1.2-0.9-3.9-1.5-8-1.9v-2.3H325.3z"/>
<path d="M383.7,279.7c1.6,6.9,3.8,12.2,6.6,15.9c5,6.7,12.6,10.1,22.6,10.3v-48.4c-11-6.5-18.3-11.5-21.8-15
	c-5.7-5.6-8.6-12.1-8.6-19.6c0-6.3,2.8-12.1,8.3-17.4c5.5-5.2,12.9-8.1,22.1-8.5v-10.7h5.9V197c4.6,0.3,9.7,1.2,15.3,2.7
	c5.2,1.6,9.2,3.8,12.2,6.4v19h-2.5c-1.3-7.3-4.3-13-8.9-17c-4.7-4-10-6.1-16-6.3v41.9c12.4,6.3,21,12,25.8,17s7.2,11.7,7.2,20.1
	c0,3.2-0.6,6.4-1.7,9.5c-1.7,4.8-4.5,8.9-8.5,12.2c-3.1,2.6-6.7,4.5-11,5.8s-8.2,2.1-11.8,2.3v15.1H413v-15.1
	c-7.3-0.2-13.3-1-18-2.5c-3.2-1-7.7-3.1-13.6-6.2v-22.2L383.7,279.7L383.7,279.7z M412.9,201.7c-5.2,0.7-9.5,2.6-12.7,5.7
	c-3.2,3.1-4.8,7.1-4.8,12c0,4.6,2.3,9.1,6.9,13.7c2.9,2.8,6.4,5.4,10.6,7.8V201.7z M430.3,301.5c5.4-3.7,8.1-9.4,8.1-17.1
	c0-5.3-2-10.1-5.9-14.1c-2.4-2.4-7-5.7-13.7-9.8v45.4C423.6,304.9,427.4,303.5,430.3,301.5z"/>
</svg>
