<?xml version="1.0" encoding="utf-8"?>
<!-- Generator: Adobe Illustrator 22.1.0, SVG Export Plug-In . SVG Version: 6.00 Build 0)  -->
<svg version="1.1" id="Layer_2" xmlns="http://www.w3.org/2000/svg" xmlns:xlink="http://www.w3.org/1999/xlink" x="0px" y="0px"
	 viewBox="0 0 512 512" style="enable-background:new 0 0 512 512;" xml:space="preserve">
<g>
	<path d="M203.2,257.1c19-13.4,31.5-36.1,31.5-61.8c0-41.1-31.9-74.5-71.2-74.5l-56.5,0.1v270.3h18.4V269.8h50.4
		c29.1,0,52.8,25.1,52.8,56v65.4H247v-65.4C247,294.9,228.9,268.3,203.2,257.1z M125.4,251.3v-112l38.1,0c29.1,0,52.8,25.1,52.8,56
		c0,30.9-23.7,56-52.8,56H125.4z"/>
	<polygon points="383.4,120.8 335.1,243.3 286.6,120.8 265,120.8 265,391.2 283.4,391.2 283.4,162.8 325.8,269.8 344.4,269.8 
		386.6,163 386.6,391.2 405,391.2 405,120.8 	"/>
</g>
</svg>
