<?xml version="1.0" encoding="utf-8"?>
<!-- Generator: Adobe Illustrator 22.1.0, SVG Export Plug-In . SVG Version: 6.00 Build 0)  -->
<svg version="1.1" id="Layer_3" xmlns="http://www.w3.org/2000/svg" xmlns:xlink="http://www.w3.org/1999/xlink" x="0px" y="0px"
	 viewBox="0 0 512 512" style="enable-background:new 0 0 512 512;" xml:space="preserve">
<g>
	<g>
		<path d="M405,169H282.2c-2.2,0-4.1,1.8-4.1,4.1v18.2c0,2.2,1.8,4.1,4.1,4.1h46.3v143.5c0,2.2,1.8,4.1,4.1,4.1h21.6
			c2.2,0,4.1-1.8,4.1-4.1V195.4H405c2.2,0,4.1-1.8,4.1-4.1v-18.2C409,170.9,407.2,169,405,169z"/>
		<path d="M252.6,169h-26.4c-2.8,0-5.4,1.8-6.4,4.4l-28.6,77.7c-4.3,12.1-7.8,22.7-10.7,32.1c-2.8-9.3-6.1-19.9-10.2-32.1
			l-27.4-77.6c-0.9-2.7-3.5-4.5-6.4-4.5h-26.4c-3.7,0-6.8,3-6.8,6.8L103,336.2c0,1.8,0.7,3.5,2,4.8c1.3,1.3,3,2,4.8,2l18.1,0v-0.2
			c2.9-0.7,5.1-3.4,5.1-6.6c0-0.4,0-0.8-0.1-1.2l0-91.5c1.8,5.5,3.7,11.3,5.8,17.6l26.1,76.4c0.9,2.8,3.5,4.6,6.4,4.6h15.7
			c2.9,0,5.4-1.8,6.4-4.5l28.2-77.8c2.8-7.6,5.3-14.8,7.7-21.8l0,98.2c0,1.8,0.7,3.5,2,4.8c1.3,1.3,3,2,4.8,2h16.8
			c1.8,0,3.5-0.7,4.8-2c1.3-1.3,2-3,2-4.8l-0.1-160.4C259.4,172.1,256.4,169,252.6,169z"/>
	</g>
</g>
</svg>
