<?xml version="1.0" encoding="utf-8"?>
<!-- Generator: Adobe Illustrator 22.1.0, SVG Export Plug-In . SVG Version: 6.00 Build 0)  -->
<svg version="1.1" id="Layer_3" xmlns="http://www.w3.org/2000/svg" xmlns:xlink="http://www.w3.org/1999/xlink" x="0px" y="0px"
	 viewBox="0 0 512 512" style="enable-background:new 0 0 512 512;" xml:space="preserve">
<g id="Layer_2_3_">
	<path d="M88.1,345c12.9-1.3,21.2-4.2,24.9-8.8c3.7-4.5,5.5-15,5.5-31.5V166.8l-4.3-5c-4.6-5.4-8.5-8.7-11.7-10
		c-3.2-1.3-8-2-14.4-2.2v-5.8h53.4l120.8,149.8v-104c0-17.1-2.5-28.2-7.6-33.4c-3.4-3.3-10.8-5.5-22.3-6.5v-5.8h73.5v5.8
		c-11.9,1.2-19.9,4.1-23.8,8.7c-4,4.6-6,15.1-6,31.5v164.8h-5.3L132.3,182.9v121.9c0,17.1,2.5,28.3,7.5,33.4
		c3.3,3.4,10.5,5.7,21.9,6.9v5.8H88.1V345z"/>
	<path d="M294.2,301.1c3.1,13.1,7.2,23.2,12.5,30.2c9.6,12.7,23.9,19.2,43,19.6v-92.1c-21-12.4-34.9-21.9-41.6-28.6
		c-10.9-10.6-16.3-23-16.3-37.3c0-12.1,5.2-23.1,15.7-33.1c10.5-10,24.6-15.4,42.2-16.2v-20.4H361v20.4c8.8,0.5,18.5,2.2,29.1,5.1
		c9.9,3.1,17.6,7.2,23.2,12.2v36.3h-4.8c-2.4-14-8.1-24.8-17-32.4s-19.1-11.7-30.5-12.1v79.8c23.7,12,40,22.8,49.2,32.4
		c9.1,9.6,13.7,22.4,13.7,38.3c0,6.2-1.1,12.2-3.2,18.1c-3.2,9.2-8.6,17-16.2,23.2c-5.8,4.9-12.8,8.5-21,11
		c-8.2,2.4-15.6,3.9-22.4,4.5v28.8h-11.4V360c-13.8-0.3-25.3-1.9-34.3-4.8c-6-1.9-14.7-5.8-26-11.8v-42.2h4.8L294.2,301.1
		L294.2,301.1z M349.7,152.7c-10,1.3-18,4.9-24.2,10.9s-9.2,13.6-9.2,22.8c0,8.7,4.4,17.4,13.2,26.1c5.5,5.3,12.3,10.2,20.2,14.8
		V152.7z M383,342.6c10.3-7.1,15.4-18,15.4-32.6c0-10.2-3.8-19.1-11.3-26.9c-4.6-4.6-13.3-10.8-26.1-18.6v86.4
		C370.2,349.2,377.5,346.5,383,342.6z"/>
</g>
</svg>
