<?xml version="1.0" encoding="utf-8"?>
<!-- Generator: Adobe Illustrator 22.1.0, SVG Export Plug-In . SVG Version: 6.00 Build 0)  -->
<svg version="1.1" id="Layer_3" xmlns="http://www.w3.org/2000/svg" xmlns:xlink="http://www.w3.org/1999/xlink" x="0px" y="0px"
	 viewBox="0 0 512 512" style="enable-background:new 0 0 512 512;" xml:space="preserve">
<g>
	<path d="M415.7,274.2h-47.1v-45.3h47.1c7.1,0,12.8-5.7,12.8-12.8c0-7.1-5.7-12.8-12.8-12.8h-47.1v-62.8c0-9.2-1.8-15.9-5.4-20
		c-3.4-3.9-7.9-5.7-14-5.7c-5.9,0-10.2,1.8-13.5,5.7c-3.5,4.1-5.3,10.8-5.3,20v62.8h-88.6l-37.7-57c-3.2-5.1-6.3-9.9-9.2-14.4
		c-2.7-4.1-5.2-7.5-7.7-10c-2.2-2.2-4.6-3.9-7.5-5.3c-2.7-1.2-6.2-1.9-10.3-1.9c-5.2,0-9.9,1.4-14.5,4.4c-4.5,2.9-7.6,6.5-9.5,11
		c-1.7,4.3-2.5,10.8-2.5,19.2v54H96.3c-7.1,0-12.8,5.7-12.8,12.8s5.7,12.8,12.8,12.8h46.6v45.3H96.3c-7.1,0-12.8,5.7-12.8,12.8
		c0,7.1,5.7,12.8,12.8,12.8h46.6v71.7c0,8.9,1.9,15.6,5.6,19.8c3.5,4,8,5.9,14,5.9c5.8,0,10.3-1.9,14-5.9c3.8-4.1,5.7-10.8,5.7-19.8
		v-71.7h80.2l43.4,66.5c3,4.4,6.1,8.8,9.2,13.2c2.8,3.9,5.9,7.4,9.1,10.2c2.9,2.6,6,4.5,9.3,5.7c3.3,1.2,7.2,1.8,11.6,1.8
		c11.7,0,23.7-3.6,23.7-30.2v-67.2h47.1c7.1,0,12.8-5.7,12.8-12.8C428.5,279.9,422.8,274.2,415.7,274.2z M330.3,228.9v45.3h-41.7
		l-29.9-45.3L330.3,228.9L330.3,228.9z M182.2,176.9l17.2,26.4h-17.2V176.9z M182.2,274.2v-45.3h33.9l29.5,45.3H182.2z M330.3,337.4
		l-24.8-37.5h24.8V337.4L330.3,337.4z"/>
</g>
</svg>
