<?xml version="1.0" encoding="utf-8"?>
<!-- Generator: Adobe Illustrator 22.1.0, SVG Export Plug-In . SVG Version: 6.00 Build 0)  -->
<svg version="1.1" id="Layer_3" xmlns="http://www.w3.org/2000/svg" xmlns:xlink="http://www.w3.org/1999/xlink" x="0px" y="0px"
	 viewBox="0 0 512 512" style="enable-background:new 0 0 512 512;" xml:space="preserve">
<g id="Layer_2_3_">
	<g>
		<path d="M230.8,163.6c10.4,2.9,16.3,4.5,17.4,4.5c2.6,0,5-0.6,7.4-2.1c2.2-1.4,4-3.7,4.8-6.7h5.8l2.6,61.4h-6.2
			c-3.7-12.1-8.5-22.1-14.2-29.6C237.1,177,221.9,170,203,170c-19.2,0-34.8,7.5-47,22.7c-12.1,15.2-18.2,36-18.2,62.5
			c0,24.5,6.4,43.8,19.2,58.3s28.9,21.9,48.6,21.9c14.2,0,27.2-3.4,39.2-10.1c6.9-3.8,14.4-9.6,22.5-17.4l5.1,5.1
			c-6.1,7.7-13.6,14.4-22.5,20.1c-15.3,9.7-32,14.7-49.9,14.7c-29.4,0-52.7-9.4-70-28.1c-16-17.4-24-39-24-65.1
			c0-26.7,8.5-48.9,25.3-67c17.7-19,40.8-28.4,69.2-28.4C210.2,159.1,220.4,160.6,230.8,163.6z"/>
		<path d="M297,293.9c2.6,11,6.1,19.5,10.5,25.4c8,10.7,20.1,16.1,36.1,16.5v-77.4c-17.6-10.4-29.2-18.4-34.8-24
			c-9.1-9-13.7-19.3-13.7-31.3c0-10.1,4.5-19.3,13.3-27.8c8.8-8.3,20.6-12.9,35.3-13.6v-17.1h9.4v17.1c7.4,0.5,15.5,1.9,24.5,4.3
			c8.3,2.6,14.7,6.1,19.5,10.2v30.4h-4c-2.1-11.7-6.9-20.8-14.2-27.2c-7.5-6.4-16-9.7-25.6-10.1v67c19.8,10.1,33.6,19.2,41.2,27.2
			c7.7,8,11.5,18.7,11.5,32.1c0,5.1-1,10.2-2.7,15.2c-2.7,7.7-7.2,14.2-13.6,19.5c-5,4.2-10.7,7.2-17.6,9.3
			c-6.9,2.1-13.1,3.4-18.9,3.7v24.1h-9.4v-24.1c-11.7-0.3-21.3-1.6-28.8-4c-5.1-1.6-12.3-5-21.7-9.9v-35.5L297,293.9L297,293.9z
			 M343.7,169.2c-8.3,1.1-15.2,4.2-20.3,9.1c-5.1,5-7.7,11.3-7.7,19.2c0,7.4,3.7,14.5,11,21.9c4.6,4.5,10.2,8.6,16.9,12.5V169.2z
			 M371.5,328.7c8.6-5.9,12.9-15,12.9-27.3c0-8.5-3.2-16.1-9.4-22.5c-3.8-3.8-11.2-9.1-21.9-15.7v72.6
			C360.8,334.2,366.8,331.9,371.5,328.7z"/>
	</g>
</g>
</svg>
