<?xml version="1.0" encoding="utf-8"?>
<!-- Generator: Adobe Illustrator 22.1.0, SVG Export Plug-In . SVG Version: 6.00 Build 0)  -->
<svg version="1.1" id="Layer_3" xmlns="http://www.w3.org/2000/svg" xmlns:xlink="http://www.w3.org/1999/xlink" x="0px" y="0px"
	 viewBox="0 0 512 512" style="enable-background:new 0 0 512 512;" xml:space="preserve">
<style type="text/css">
	.st0{fill:#020202;}
</style>
<path class="st0" d="M96,120v31.1h99.2v54.2c0,17.6-14.3,31.9-31.9,31.9H157l-25.9-34.4l-24.8,18.7L233,390l24.8-18.7l-78.9-105
	c16.4-4.2,30.2-14.9,38.6-29.1l34.2,0.2c-2.8,10.7-3.2,21.8-0.9,32.5c2.5,11.7,9.4,27.6,27.3,40.9c4.3,3.2,10.5,1.9,13.2-2.7
	l6.6-11.3c2.3-3.9,1.3-8.9-2.3-11.7c-7.8-6-12.6-13.3-14.4-21.7c-2.3-10.5,0.5-22.6,7.4-32.3c6.4-9.1,15.4-14.8,24-15.1
	c8.2-0.3,16.1,4.1,23.6,13.2c17.2,20.9,21.2,48.1,11.9,80.8c-4.8,16.9-12.1,31.2-16.8,39.2c-2.3,4.1-1.2,9.3,2.7,11.9l10.8,7.4
	c4.3,3,10.3,1.7,12.9-2.9c5.5-9.4,14.2-26.1,20-46.3c12.4-42.9,6.4-80.9-17.6-110c-17.4-21.1-36.1-24.9-48.7-24.5
	c-16,0.6-31.3,8.4-43,21.6l-42.2-0.3c0-0.3,0-0.6,0-0.9v-54.2H414V120H96z"/>
</svg>
