<?xml version="1.0" encoding="utf-8"?>
<!-- Generator: Adobe Illustrator 22.1.0, SVG Export Plug-In . SVG Version: 6.00 Build 0)  -->
<svg version="1.1" id="Layer_2" xmlns="http://www.w3.org/2000/svg" xmlns:xlink="http://www.w3.org/1999/xlink" x="0px" y="0px"
	 viewBox="0 0 512 512" style="enable-background:new 0 0 512 512;" xml:space="preserve">
<style type="text/css">
	.st0{fill:#020202;}
</style>
<g id="Layer_2_1_">
	<circle class="st0" cx="230.4" cy="282.8" r="24"/>
	<path class="st0" d="M332.8,242.3l23.6-15.4c0,0,19,43.1,19.4,68c0.4,24.7-12.1,59.1-35.4,65.5c-23.2,6.4-57.8-9.2-69-26.3
		c-11.2-17,14.7-51.5,14.7-51.5l7.5,4.5c0,0-17.1,23.4,5.6,38.2c22.8,14.7,40.4,16.1,46.9,13.9s18.4-18.5,4.3-59.7
		C339.6,247.9,332.8,242.3,332.8,242.3z"/>
	<circle class="st0" cx="430.4" cy="282.8" r="24"/>
	<path class="st0" d="M145.6,167.5c0,0-5.9-25-32.2-28.6c-26.3-3.6-50.9,18.1-51.9,47s16.4,37.4,27.3,48.3c0,0-29.6,23-30.2,61.7
		s14.1,50.2,17.1,53.2s20.4,20.7,66.7,23.3c46.3,2.6,66.7-31.5,66.7-31.5s-31.5,5.3-52.9,5.3c-21.3,0-62.4-4.6-76.5-31.5
		s-1.6-52.5,18.1-63.4c19.7-10.8,71.3-35.5,71.3-35.5l5.9-27.3c0,0-46,21.3-50.2,23.6c-4.3,2.3-11.2,4.6-21,0.3S80,201,78,192.1
		c-2.1-9.5,1.8-19.6,9.9-25.9C95.4,160.2,108.5,155.3,145.6,167.5z"/>
</g>
</svg>
