<?xml version="1.0" encoding="utf-8"?>
<!-- Generator: Adobe Illustrator 22.1.0, SVG Export Plug-In . SVG Version: 6.00 Build 0)  -->
<svg version="1.1" id="Layer_2" xmlns="http://www.w3.org/2000/svg" xmlns:xlink="http://www.w3.org/1999/xlink" x="0px" y="0px"
	 viewBox="0 0 512 512" style="enable-background:new 0 0 512 512;" xml:space="preserve">
<g>
	<path d="M365.4,160.7L289,354.2c-0.6,1.6-2.1,2.6-3.8,2.6h-18.5c-1.3,0-2.6-0.7-3.3-1.7c-0.8-1.1-0.9-2.5-0.4-3.8l75.9-193.4
		c0.6-1.6,2.1-2.6,3.8-2.6h19.1c1.3,0,2.6,0.7,3.3,1.8C365.7,158.1,365.9,159.5,365.4,160.7z M401,332.3c0,12.4-8.7,21.5-20.6,21.5
		h-0.3c-11.5,0-20.1-9.2-20.1-21.5c0-12.2,8.9-21.5,20.6-21.5C392.4,310.9,401,319.9,401,332.3z M236.1,251.1l-6-2.7l5.8-3
		c11.9-6,25.9-17.8,25.3-39.7c-1.2-44.1-42.6-50.2-87.1-50.2l-60.3,0c-1.6,0-2.8,1.3-2.8,2.8v194.4c0,0.8,0.3,1.5,0.9,2
		c0.5,0.5,1.2,0.8,2,0.8l49.9,0.1c2.7,0.1,5.2,0.1,7.7,0.1c35.2,0,60.6-7.7,75.6-22.8c9.4-9.5,14-21.8,13.9-36.8
		C260.6,273.2,252.5,258.4,236.1,251.1z M214,226.6c-6.4,6.6-14,7.1-20.6,7.7l-1.7,0.1c-1,0.1-1.5,0.1-2.4,0c0,0-0.1,0-0.1,0
		l-40.6,0v-52l42.3,0.1c13.7,0,29.6,6.6,29.6,25.2C220.6,215.7,218.5,222.1,214,226.6z M148.5,272.2l42,0.2
		c13.8,0,29.9,6.6,29.9,25.2c0.1,8.1-2,14.4-6.4,18.9c-7,7.1-17.9,7.9-22.3,7.9c-0.8,0-1.4,0-2.1-0.1l-41,0L148.5,272.2L148.5,272.2
		z"/>
</g>
</svg>
