<?xml version="1.0" encoding="utf-8"?>
<!-- Generator: Adobe Illustrator 22.1.0, SVG Export Plug-In . SVG Version: 6.00 Build 0)  -->
<svg version="1.1" id="Layer_3" xmlns="http://www.w3.org/2000/svg" xmlns:xlink="http://www.w3.org/1999/xlink" x="0px" y="0px"
	 viewBox="0 0 512 512" style="enable-background:new 0 0 512 512;" xml:space="preserve">
<g>
	<path d="M362.9,158.5l-82.2,197.7c-0.6,1.6-2.3,2.7-4.1,2.7h-19.9c-1.4,0-2.8-0.7-3.6-1.8c-0.8-1.1-1-2.5-0.5-3.8l81.6-197.7
		c0.6-1.6,2.3-2.7,4.1-2.7h20.5c1.4,0,2.8,0.7,3.6,1.8C363.2,155.8,363.4,157.2,362.9,158.5z M379.3,311.9c-12.7,0-22.2,9.4-22.2,22
		c0,12.5,9.3,21.9,21.6,21.9h0.3c12.9,0,22.2-9.2,22.2-21.9C401.2,321.2,392,311.9,379.3,311.9z M191,236.8
		c-30.3-11.1-35.6-18.7-35.6-30.6c0-10.9,9.6-21.9,31-21.9c19.2,0,31.2,6.2,34.4,8.1c1.7,1,3.9,1.3,5.9,0.6c2-0.7,3.6-2.2,4.3-4.2
		l7.2-20.2c1.1-3.1-0.2-6.6-3.1-8.2c-5.6-3.1-21.3-10.3-47.8-10.3c-42.6,0-72.3,24.2-72.3,58.9c0,27.6,19,47.6,57.9,61.1
		c28,9.9,33.4,19,33.4,31.4c0,16.2-13.2,25.9-35.2,25.9c-15.2,0-30.7-4.2-42.7-11.5c-1.8-1.1-4.1-1.3-6-0.7
		c-2.1,0.7-3.7,2.3-4.3,4.3l-6.9,20.8c-1,2.9,0.2,6.2,2.9,7.8c12.5,7.9,35.7,13.6,55.3,13.6c57.1,0,77.4-33.6,77.4-62.3
		C246.8,269.8,230.6,251.7,191,236.8z"/>
</g>
</svg>
