<?xml version="1.0" encoding="utf-8"?>
<!-- Generator: Adobe Illustrator 22.1.0, SVG Export Plug-In . SVG Version: 6.00 Build 0)  -->
<svg version="1.1" id="Layer_3" xmlns="http://www.w3.org/2000/svg" xmlns:xlink="http://www.w3.org/1999/xlink" x="0px" y="0px"
	 viewBox="0 0 512 512" style="enable-background:new 0 0 512 512;" xml:space="preserve">
<path d="M156.5,356c11.7-1,19-3.4,21.8-6.9c2.8-3.6,4.2-12.1,4.2-25.6V185.1c0-11.5-1.6-19-4.7-22.4s-10.3-5.5-21.3-6.3v-5.9h82.1
	v5.9c-11.3,0.6-18.5,2.7-21.8,6.2s-4.9,11-4.9,22.4v65.3c17.8-16.7,32.3-31,43.6-42.7c20.2-21.2,30.3-34.8,30.3-40.8
	c0-4.2-1.7-7-5.1-8.4c-3.4-1.3-8.3-2-14.6-2v-5.9h75.6v5.9c-9.2,1-16.5,3-21.8,5.9c-5.3,2.9-12.7,9.3-22.1,19.2l-56.3,57.7l68.7,82
	c12.5,14.7,21,23.9,25.5,27.6s11.1,6.1,19.9,7.2v5.4h-88.2V356c8-0.3,13.4-1,16.2-2.1s4.2-3.3,4.2-6.5c0-1.8-0.9-4.5-2.7-8.1
	s-4.7-7.9-8.7-12.6l-55.5-66.3l-8.9,9.1v57.7c0,11.9,1.6,19.4,4.9,22.5c3.2,3.2,10.3,5.3,21.2,6.3v5.4h-81.6V356z"/>
</svg>
