<?xml version="1.0" encoding="utf-8"?>
<!-- Generator: Adobe Illustrator 22.1.0, SVG Export Plug-In . SVG Version: 6.00 Build 0)  -->
<svg version="1.1" id="Layer_2" xmlns="http://www.w3.org/2000/svg" xmlns:xlink="http://www.w3.org/1999/xlink" x="0px" y="0px"
	 viewBox="0 0 512 512" style="enable-background:new 0 0 512 512;" xml:space="preserve">
<g>
	<g>
		<path d="M266.1,356h-94.8c6.5-7.5,12.4-15,17.4-21.5l79.2-103c0.5-0.7,0.8-1.6,0.8-2.5v-20.1c0-2.3-1.8-4.1-4.1-4.1H129.9
			c-2.3,0-4.1,1.8-4.1,4.1v25.6c0,2.3,1.8,4.1,4.1,4.1h87.6c-5.9,6.8-11.4,13.5-18.2,21.9l-80,104.1c-0.5,0.7-0.8,1.6-0.8,2.5v18.6
			c0,2.3,1.8,4.1,4.1,4.1h143.5c2.3,0,4.1-1.8,4.1-4.1v-25.6C270.2,357.8,268.4,356,266.1,356z"/>
		<path d="M391.3,198.2c-3.6-4.8-10.5-5.8-15.4-2.2l-27.4,20.5v-90.2c0-2.3-1.8-4.1-4.1-4.1h-32.1c-2.3,0-4.1,1.8-4.1,4.1v120.4
			l-44.6,33.4c-4.8,3.6-5.8,10.5-2.2,15.4c2.2,2.9,5.5,4.4,8.8,4.4c2.3,0,4.6-0.7,6.6-2.2l31.4-23.5v111.5c0,2.3,1.8,4.1,4.1,4.1
			h32.1c2.3,0,4.1-1.8,4.1-4.1V244l40.6-30.4C394,209.9,394.9,203.1,391.3,198.2z"/>
	</g>
</g>
</svg>
