<?xml version="1.0" encoding="utf-8"?>
<!-- Generator: Adobe Illustrator 22.1.0, SVG Export Plug-In . SVG Version: 6.00 Build 0)  -->
<svg version="1.1" id="Layer_3" xmlns="http://www.w3.org/2000/svg" xmlns:xlink="http://www.w3.org/1999/xlink" x="0px" y="0px"
	 viewBox="0 0 512 512" style="enable-background:new 0 0 512 512;" xml:space="preserve">
<path d="M235,406v-28.9c-31.4-2.3-55.3-12.7-71.6-31.3c-18.8-20.9-28.2-50.6-28.2-89.1c0-39,9.4-68.8,28.2-89.4
	c17-18.8,40.8-29,71.6-30.6V106h17.9v30.6c8.9,0.5,17,1.8,24.1,4.1c9.6,3,17.7,7.5,24.1,13.4l15.1-15.1l11.7,35.1V212h-11.7
	c-6.4-21.6-15.7-36.6-27.9-45.1c-8.9-6.7-20.8-10.8-35.4-12.4v106.3h123.9v17.9h-32.3l-13.1,18.6V331c0,16.5-6.1,28.3-18.2,35.4
	c-11,6.8-31.1,10.3-60.2,10.7V406C252.9,406,235,406,235,406z M252.9,359.2c15.1-0.2,26.5-3.2,34.1-8.9c7.6-6,11.4-12.4,11.4-19.3
	v-33.7l-13.1-18.6h-32.3C252.9,278.7,252.9,359.2,252.9,359.2z M235,358.9V154.5c-13.5,1.8-24.3,5.7-32.3,11.7
	c-11.5,8-20.1,20-25.8,35.8c-5.7,15.8-8.6,34.1-8.6,54.7c0,20.6,2.9,38.9,8.6,54.7c5.7,15.8,14.3,27.8,25.8,35.8
	C210.5,353.1,221.3,357,235,358.9z"/>
</svg>
