<?xml version="1.0" encoding="utf-8"?>
<!-- Generator: Adobe Illustrator 22.1.0, SVG Export Plug-In . SVG Version: 6.00 Build 0)  -->
<svg version="1.1" id="Layer_3" xmlns="http://www.w3.org/2000/svg" xmlns:xlink="http://www.w3.org/1999/xlink" x="0px" y="0px"
	 viewBox="0 0 512 512" style="enable-background:new 0 0 512 512;" xml:space="preserve">
<g>
	<path d="M87.2,156.1c18.1-17.4,40.5-26.1,67-26.1c26.1,0,48.3,8.6,66.5,25.8c20.1,18.9,30.1,44.3,30.1,76
		c0,25.1-6.4,46.4-19.1,63.8c-13.8,18.7-33.4,30.5-58.7,35.4c11.9,17.1,26.3,29.3,43.2,36.5c9.5,4,22.3,7,38.4,8.9v5.5h-12.1
		c-15.9,0-30.1-1.3-42.4-3.9c-12.3-2.6-23.5-6.5-33.6-11.8c-10.1-5.2-19.4-12.4-28-21.6c-8.6-9.2-13.4-14.1-14.3-14.5l-3.7-1.7
		c-16.3-7.6-29-16.2-37.9-25.9c-16.6-17.9-24.9-41.5-24.9-70.6C57.5,200.4,67.4,175.2,87.2,156.1z M109.2,300.6
		c12.2,14.8,27.2,22.2,45,22.2c17.4,0,32.3-7.2,44.6-21.7c12.3-14.4,18.5-37.6,18.5-69.3c0-32.2-6.2-55.4-18.7-69.7
		c-12.5-14.3-27.3-21.5-44.4-21.5c-17.7,0-32.7,7.4-44.9,22.2c-12.3,14.8-18.4,37.8-18.4,68.9C90.9,262.9,97,285.8,109.2,300.6z"/>
	<path d="M265,323.9c11.3-1.1,18.4-3.2,21.2-6.6c2.8-3.3,4.2-11.1,4.2-23.4V166.2c0-10.4-1.6-17.2-4.7-20.4
		c-3.1-3.2-10-5.3-20.7-6.1v-5.5h81.6c17,0,31.1,2.2,42.5,6.5c21.5,8.1,32.3,23.1,32.3,45c0,14.7-4.8,25.9-14.3,33.8
		c-9.6,7.9-22.5,13-38.9,15.5l60.8,74.8c3.7,4.6,7.5,7.9,11.2,10c3.7,2.1,8.5,3.4,14.4,4v5.5H407l-73.8-90.9l-12.9,0.7v58.1
		c0,10.9,1.7,17.8,5,20.7c3.3,2.9,10.5,4.9,21.7,5.8v5.5H265V323.9z M365.8,221.7c15.6-6.4,23.5-18.5,23.5-36.2
		c0-17.1-7-28.7-21-34.9c-7.5-3.4-17.4-5-29.8-5c-8.4,0-13.5,0.6-15.3,1.8c-1.9,1.2-2.8,4-2.8,8.4v72.6
		C341.5,227.5,356.7,225.3,365.8,221.7z"/>
</g>
</svg>
