<?xml version="1.0" encoding="utf-8"?>
<!-- Generator: Adobe Illustrator 22.1.0, SVG Export Plug-In . SVG Version: 6.00 Build 0)  -->
<svg version="1.1" id="Layer_3" xmlns="http://www.w3.org/2000/svg" xmlns:xlink="http://www.w3.org/1999/xlink" x="0px" y="0px"
	 viewBox="0 0 512 512" style="enable-background:new 0 0 512 512;" xml:space="preserve">
<g>
	<path d="M172.9,300.8l-11.2-0.4V157.8c0-1.8-1.4-3.2-3.2-3.2H68.7c-1.8,0-3.2,1.4-3.2,3.2v41.3c0,29-3.6,49.9-8.8,67.7
		c-3.7,12.4-9.5,23.8-14.8,33.6l-10.5,0.4c-1.7,0.1-3.1,1.5-3.1,3.3l1.4,55.8c0,1.7,1.5,3.1,3.2,3.1h16.4c1.7,0,3.1-1.4,3.2-3.1
		l1.3-36.1h96.5l1.3,36.1c0.1,1.7,1.5,3.1,3.2,3.1h16.4c1.7,0,3.1-1.4,3.2-3.1l1.5-55.8C176,302.3,174.7,300.9,172.9,300.8z
		 M134.4,178.4v121.7H70.9c3.7-7.1,8-16.5,11-26.8c5.6-17.8,9.6-39.9,9.6-67.4v-27.5H134.4z M301.2,203.7v116.9
		c0,1.8-1.4,3.2-3.2,3.2h-20.3c-1.8,0-3.2-1.4-3.2-3.2v-49.5c0-14.1,0.3-22.9,0.8-34.7c-4.4,8.5-8.4,15.8-13.5,24.7
		c-5.5,9-11.4,19-17.5,29.3c-6.2,10.6-12.7,21.5-19,31.9c-0.6,0.9-1.6,1.5-2.7,1.5h-24.4c-1.8,0-3.2-1.4-3.2-3.2V203.7
		c0-1.8,1.4-3.2,3.2-3.2h20.1c1.8,0,3.2,1.4,3.2,3.2V253c0,13.9-0.1,23.6-0.5,33.7c3.9-7.8,7.6-14.7,13-24.1l36.5-60.5
		c0.6-0.9,1.6-1.5,2.7-1.5H298C299.7,200.6,301.2,202,301.2,203.7z M432.8,203.7v116.9c0,1.8-1.4,3.2-3.2,3.2h-21
		c-1.8,0-3.2-1.4-3.2-3.2v-49.7h-49.2v49.7c0,1.8-1.4,3.2-3.2,3.2h-21c-1.8,0-3.2-1.4-3.2-3.2V203.7c0-1.8,1.4-3.2,3.2-3.2h21
		c1.8,0,3.2,1.4,3.2,3.2v43.9h49.2v-43.9c0-1.8,1.4-3.2,3.2-3.2h21C431.4,200.6,432.8,202,432.8,203.7z M491.3,308.1
		c0,10.8-7.3,18.4-17.7,18.4c-10.1,0-17.4-7.7-17.4-18.4s7.4-18.4,17.7-18.4C484,289.7,491.3,297.4,491.3,308.1z"/>
</g>
</svg>
