<?xml version="1.0" encoding="utf-8"?>
<!-- Generator: Adobe Illustrator 22.1.0, SVG Export Plug-In . SVG Version: 6.00 Build 0)  -->
<svg version="1.1" id="Layer_3" xmlns="http://www.w3.org/2000/svg" xmlns:xlink="http://www.w3.org/1999/xlink" x="0px" y="0px"
	 viewBox="0 0 512 512" style="enable-background:new 0 0 512 512;" xml:space="preserve">
<path d="M49.3,327.7c9.2-1,14.9-2.7,17.1-5c2.2-2.4,3.4-8.6,3.4-18.6V203.1c0-8.3-1.3-13.7-3.8-16.2c-2.5-2.5-8.1-4.1-16.7-4.7v-4.3
	h124.2l0.8,33.3h-6.5c-1.6-10.6-4.6-17.4-9-20.2c-4.4-2.8-13.1-4.2-26.1-4.2h-32c-3.1,0-5.1,0.5-6,1.6c-0.9,1.1-1.3,3.1-1.3,6.3v52
	h33.8c9.9,0,16.3-1.5,19-4.4c2.7-2.9,4.9-8.9,6.6-17.9h5.5v53.8h-5.5c-1.7-9-4-15-6.7-17.9c-2.7-2.9-9-4.4-18.9-4.4H93.5v51
	c0,8.5,1.3,14,3.9,16.4c2.6,2.4,8.3,3.9,17.1,4.6v4.3H49.3V327.7z"/>
<path d="M178,327.7c9-0.8,14.5-2.6,16.7-5.2c2.2-2.6,3.3-8.8,3.3-18.5V203.1c0-8.2-1.2-13.6-3.7-16.1c-2.5-2.5-7.9-4.2-16.3-4.8
	v-4.3h64.5c13.4,0,24.6,1.7,33.6,5.1c17,6.4,25.5,18.3,25.5,35.6c0,11.6-3.8,20.5-11.3,26.7c-7.6,6.2-17.8,10.3-30.8,12.3l48,59.2
	c3,3.6,5.9,6.2,8.9,7.9c3,1.7,6.8,2.7,11.4,3.2v4.3h-37.5l-58.3-71.8l-10.2,0.6v45.9c0,8.6,1.3,14.1,3.9,16.4
	c2.6,2.3,8.3,3.8,17.1,4.6v4.3H178V327.7z M257.6,246.9c12.4-5.1,18.6-14.6,18.6-28.6c0-13.5-5.5-22.7-16.6-27.6
	c-5.9-2.6-13.8-4-23.6-4c-6.6,0-10.6,0.5-12.1,1.4c-1.5,0.9-2.2,3.2-2.2,6.6v57.4C238.4,251.5,250.4,249.8,257.6,246.9z"/>
<path d="M409.2,229.5c-4.6,0.5-7.9,1.3-10.1,2.3c-2.2,1-3.3,3-3.3,6c0,1.6,0.2,3.3,0.7,5c0.5,1.7,1.2,3.7,2,6l20.7,53.9l20.2-49.2
	c0.9-2.1,1.9-4.9,3-8.4c1.1-3.5,1.6-6,1.6-7.8c0-2.8-0.9-4.7-2.6-5.7c-1.7-1-4.3-1.7-7.6-2.2v-3.2h28.9v3.2
	c-1.9,0.4-3.5,1.3-4.7,2.7c-1.2,1.4-2.9,4.9-5.1,10.2l-36.4,89.8c-0.3,0.7-0.6,1.2-0.8,1.5c-0.2,0.3-0.6,0.5-1,0.5
	c-0.9-0.5-1.4-0.9-1.6-1.2l-27.8-68.8l-27.8,68.6c-0.2,0.4-0.4,0.7-0.6,1c-0.3,0.3-0.6,0.4-1,0.4c-0.9-0.5-1.4-0.8-1.6-1.1l-34-83.9
	c-3.7-9.3-6.2-14.8-7.4-16.4c-1.2-1.7-3.6-2.7-7.2-3.3v-3.2h42.3v3.2c-3.5,0.3-6.2,0.9-8,1.9c-1.9,1-2.8,3-2.8,6.1
	c0,2.2,1.6,7.7,4.7,16.3c1.8,4.9,4.2,10.8,7,17.7l13.1,31.8l20.1-43.1l0.2-1.3c0-1.5-0.8-4.4-2.4-8.5c-1.6-4.2-3.2-7.9-4.7-11.2
	c-1.5-3.5-3.2-5.9-5.2-7.3c-1.9-1.4-4.6-2.2-8.1-2.5v-3.2h47.5V229.5z"/>
</svg>
