<?xml version="1.0" encoding="utf-8"?>
<!-- Generator: Adobe Illustrator 22.1.0, SVG Export Plug-In . SVG Version: 6.00 Build 0)  -->
<svg version="1.1" id="Layer_2" xmlns="http://www.w3.org/2000/svg" xmlns:xlink="http://www.w3.org/1999/xlink" x="0px" y="0px"
	 viewBox="0 0 512 512" style="enable-background:new 0 0 512 512;" xml:space="preserve">
<g id="Layer_2_1_">
	<path d="M301.3,301.1c3.1,13.1,7.2,23.2,12.5,30.2c9.6,12.7,23.9,19.2,43,19.6v-92.1c-21-12.4-34.9-21.9-41.6-28.6
		c-10.9-10.6-16.3-23-16.3-37.3c0-12.1,5.2-23.1,15.7-33.1c10.5-10,24.6-15.4,42.2-16.2v-20.4h11.3v20.4c8.8,0.5,18.5,2.2,29.1,5.1
		c9.9,3.1,17.6,7.2,23.2,12.2v36.3h-4.8c-2.4-14-8.1-24.8-17-32.4s-19.1-11.7-30.5-12.1v79.8c23.7,12,40,22.8,49.2,32.4
		c9.1,9.6,13.7,22.4,13.7,38.3c0,6.2-1.1,12.2-3.2,18.1c-3.2,9.2-8.6,17-16.2,23.2c-5.8,4.9-12.8,8.5-21,11
		c-8.2,2.4-15.6,3.9-22.4,4.5v28.8h-11.4V360c-13.8-0.3-25.3-1.9-34.3-4.8c-6-1.9-14.7-5.8-26-11.8v-42.2h4.8L301.3,301.1
		L301.3,301.1z M356.8,152.7c-10,1.3-18,4.9-24.2,10.9s-9.2,13.6-9.2,22.8c0,8.7,4.4,17.4,13.2,26.1c5.5,5.3,12.3,10.2,20.2,14.8
		V152.7z M390.1,342.6c10.3-7.1,15.4-18,15.4-32.6c0-10.2-3.8-19.1-11.3-26.9c-4.6-4.6-13.3-10.8-26.1-18.6v86.4
		C377.3,349.2,384.6,346.5,390.1,342.6z"/>
	<path d="M88.2,331.4c12.8,7.9,31.4,14.4,51,14.4c29.1,0,46.1-15.4,46.1-37.6c0-20.6-11.8-32.4-41.5-43.8
		c-36-12.8-58.2-31.4-58.2-62.5c0-34.3,28.5-59.9,71.3-59.9c22.6,0,38.9,5.2,48.7,10.8l-7.9,23.2c-7.2-3.9-21.9-10.5-41.9-10.5
		c-30.1,0-41.5,18-41.5,33c0,20.6,13.4,30.7,43.8,42.5c37.3,14.4,56.3,32.4,56.3,64.8c0,34-25.2,63.5-77.2,63.5
		c-21.3,0-44.5-6.2-56.3-14.1L88.2,331.4z"/>
	<path d="M266.6,144.5v224.8h-29V144.5H266.6z"/>
</g>
</svg>
