<?xml version="1.0" encoding="utf-8"?>
<!-- Generator: Adobe Illustrator 22.1.0, SVG Export Plug-In . SVG Version: 6.00 Build 0)  -->
<svg version="1.1" id="Layer_2" xmlns="http://www.w3.org/2000/svg" xmlns:xlink="http://www.w3.org/1999/xlink" x="0px" y="0px"
	 viewBox="0 0 512 512" style="enable-background:new 0 0 512 512;" xml:space="preserve">
<g id="Layer_2_1_">
	<path d="M225.4,348.8c11.3-1.1,18.4-3.2,21.2-6.6c2.8-3.3,4.2-11.1,4.2-23.4V191.1c0-10.4-1.6-17.2-4.7-20.4s-10-5.3-20.7-6.1v-5.5
		H307c17,0,31.1,2.2,42.5,6.5c21.5,8.1,32.3,23.1,32.3,45c0,14.7-4.8,25.9-14.3,33.8c-9.6,7.9-22.5,13-38.9,15.5l60.8,74.8
		c3.7,4.6,7.5,7.9,11.2,10s8.5,3.4,14.4,4v5.5h-47.6l-73.8-90.9l-12.9,0.7v58.1c0,10.9,1.7,17.8,5,20.7c3.3,2.9,10.5,4.9,21.7,5.8
		v5.5h-82V348.8z M326.2,246.6c15.6-6.4,23.5-18.5,23.5-36.2c0-17.1-7-28.7-21-34.9c-7.5-3.4-17.4-5-29.8-5
		c-8.4,0-13.5,0.6-15.3,1.8c-1.9,1.2-2.8,4-2.8,8.4v72.6C301.9,252.4,317.1,250.2,326.2,246.6z"/>
	<path d="M103.5,293.1c4.7,12.8,10.4,22.9,16.9,30.5c11.2,13.3,25.3,19.9,42.1,19.9c9,0,16.9-2.8,23.6-8.5c6.6-5.7,10-13.8,10-24
		c0-9.3-3.3-17.2-10-24.2c-4.3-4.4-13.4-10.9-27.5-19.6l-24.2-15.2c-7.3-4.6-13.1-9.3-17.6-14.1c-8.1-9-12-18.8-12-29.7
		c0-14.4,4.7-26.3,14.2-35.9c9.5-9.5,22.2-14.2,38-14.2c6.5,0,14.2,1.6,23.4,4.7c9.2,3.2,14.4,4.7,15.7,4.7c3.5,0,6-0.8,7.3-2.5
		c1.3-1.7,2.4-4,3.2-7.1h5.9l6.3,60.6h-6.8c-4.6-18.2-12-31-22.3-38.1c-10.3-7.3-20.4-10.8-30.4-10.8c-7.8,0-14.6,2.2-20.4,6.8
		c-5.9,4.6-8.7,10.9-8.7,19.1c0,7.3,2.2,13.6,6.6,18.8c4.4,5.2,11.4,10.8,20.7,16.5l25,15.3c15.7,9.7,26.7,18.5,33.1,26.6
		c6.3,8.2,9.5,17.7,9.5,29c0,14.9-5.7,27.4-16.9,37.3c-11.2,10-25.6,15-43.2,15c-8.9,0-18-1.7-27.5-5.1c-9.7-3.3-15-5.1-16.5-5.1
		c-3.3,0-5.5,0.9-6.8,3c-1.1,2.1-1.9,4.3-2.2,6.5h-6.3L97,293.1L103.5,293.1L103.5,293.1z"/>
</g>
</svg>
