<svg width="512" height="512" viewBox="0 0 512 512" fill="none" xmlns="http://www.w3.org/2000/svg">
<path d="M102.184 341.206C91.8884 341.206 82.6227 339.956 74.3865 337.456C66.1503 334.808 58.2818 330.249 50.781 323.778C48.869 322.16 47.3983 320.322 46.3688 318.262C45.3392 316.203 44.8245 314.144 44.8245 312.085C44.8245 308.703 46.0011 305.761 48.3543 303.261C50.8545 300.613 53.9431 299.29 57.62 299.29C60.4144 299.29 62.9147 300.172 65.1208 301.937C70.7096 306.496 76.2249 309.953 81.6667 312.306C87.2555 314.659 94.0945 315.836 102.184 315.836C107.625 315.836 112.626 315.027 117.185 313.409C121.745 311.644 125.421 309.364 128.216 306.57C131.01 303.629 132.407 300.319 132.407 296.642C132.407 292.23 131.084 288.48 128.436 285.391C125.789 282.303 121.745 279.729 116.303 277.67C110.861 275.464 103.949 273.772 95.5653 272.596C87.6232 271.419 80.6372 269.654 74.6071 267.301C68.5771 264.801 63.503 261.712 59.3849 258.035C55.4139 254.211 52.3988 249.799 50.3398 244.799C48.2807 239.651 47.2512 233.915 47.2512 227.591C47.2512 218.031 49.6779 209.868 54.5314 203.103C59.532 196.338 66.2239 191.19 74.6071 187.66C82.9904 184.13 92.2561 182.365 102.404 182.365C111.964 182.365 120.789 183.836 128.878 186.778C137.114 189.572 143.806 193.175 148.953 197.588C153.219 200.97 155.351 204.868 155.351 209.28C155.351 212.516 154.101 215.457 151.601 218.105C149.1 220.752 146.159 222.076 142.776 222.076C140.57 222.076 138.585 221.414 136.82 220.09C134.467 218.031 131.304 216.119 127.333 214.354C123.362 212.442 119.171 210.898 114.759 209.721C110.346 208.398 106.228 207.736 102.404 207.736C96.08 207.736 90.7118 208.545 86.2996 210.163C82.0344 211.78 78.7987 213.986 76.5926 216.781C74.3865 219.575 73.2834 222.811 73.2834 226.488C73.2834 230.9 74.5336 234.577 77.0338 237.518C79.6812 240.313 83.4316 242.593 88.2851 244.357C93.1385 245.975 98.948 247.446 105.713 248.77C114.538 250.387 122.259 252.299 128.878 254.506C135.643 256.712 141.232 259.58 145.644 263.109C150.056 266.492 153.366 270.831 155.572 276.126C157.778 281.273 158.881 287.597 158.881 295.098C158.881 304.658 156.234 312.894 150.939 319.807C145.644 326.719 138.658 332.014 129.981 335.691C121.45 339.368 112.185 341.206 102.184 341.206ZM250.364 184.572C260.954 184.572 270.366 186.557 278.603 190.528C286.839 194.499 293.751 200.088 299.34 207.295C305.076 214.354 309.341 222.59 312.136 232.003C315.077 241.269 316.548 251.196 316.548 261.786C316.548 276.052 313.974 289.068 308.826 300.834C303.679 312.453 296.178 321.719 286.324 328.631C276.617 335.544 264.631 339 250.364 339H197.638C193.814 339 190.578 337.75 187.931 335.25C185.431 332.602 184.181 329.367 184.181 325.543V198.029C184.181 194.205 185.431 191.043 187.931 188.543C190.578 185.895 193.814 184.572 197.638 184.572H250.364ZM248.158 313.63C257.424 313.63 264.998 311.276 270.881 306.57C276.764 301.717 281.029 295.392 283.677 287.597C286.471 279.655 287.868 271.051 287.868 261.786C287.868 254.873 287.059 248.328 285.442 242.151C283.971 235.827 281.618 230.312 278.382 225.605C275.146 220.752 271.028 216.928 266.028 214.134C261.027 211.339 255.071 209.942 248.158 209.942H209.551L211.757 207.956V316.056L210.433 313.63H248.158ZM414.686 341.206C403.508 341.206 393.066 339.147 383.359 335.029C373.652 330.911 365.122 325.249 357.768 318.042C350.414 310.688 344.605 302.231 340.34 292.671C336.221 283.112 334.162 272.816 334.162 261.786C334.162 250.755 336.221 240.46 340.34 230.9C344.605 221.34 350.414 212.957 357.768 205.75C365.122 198.397 373.652 192.661 383.359 188.543C393.066 184.424 403.508 182.365 414.686 182.365C421.598 182.365 428.29 183.101 434.762 184.572C441.233 186.042 447.189 188.248 452.631 191.19C454.837 192.366 456.455 193.984 457.485 196.043C458.661 197.955 459.249 199.941 459.249 202C459.249 205.53 458.073 208.692 455.72 211.486C453.366 214.281 450.351 215.678 446.675 215.678C445.498 215.678 444.248 215.531 442.924 215.237C441.748 214.942 440.571 214.501 439.394 213.913C435.717 212.295 431.82 211.045 427.702 210.163C423.584 209.28 419.245 208.839 414.686 208.839C405.126 208.839 396.375 211.266 388.433 216.119C380.638 220.825 374.387 227.223 369.681 235.312C365.122 243.254 362.842 252.079 362.842 261.786C362.842 271.346 365.122 280.17 369.681 288.259C374.387 296.348 380.638 302.82 388.433 307.673C396.375 312.379 405.126 314.733 414.686 314.733C419.098 314.733 423.952 314.291 429.246 313.409C434.541 312.527 438.88 311.35 442.262 309.879L440.277 316.498V278.773L444.027 282.082H419.539C415.715 282.082 412.48 280.832 409.832 278.332C407.332 275.831 406.082 272.669 406.082 268.845C406.082 265.021 407.332 261.859 409.832 259.359C412.48 256.859 415.715 255.609 419.539 255.609H455.72C459.544 255.609 462.706 256.932 465.206 259.58C467.706 262.08 468.956 265.242 468.956 269.066V315.836C468.956 318.777 468.221 321.204 466.75 323.116C465.427 325.028 463.882 326.572 462.117 327.749C455.352 331.867 447.925 335.176 439.836 337.676C431.894 340.03 423.51 341.206 414.686 341.206Z" fill="black"/>
</svg>
