<?xml version="1.0" encoding="utf-8"?>
<!-- Generator: Adobe Illustrator 22.1.0, SVG Export Plug-In . SVG Version: 6.00 Build 0)  -->
<svg version="1.1" id="Layer_2" xmlns="http://www.w3.org/2000/svg" xmlns:xlink="http://www.w3.org/1999/xlink" x="0px" y="0px"
	 viewBox="0 0 512 512" style="enable-background:new 0 0 512 512;" xml:space="preserve">
<g>
	<path d="M348.7,253.2l-11-3.5v-99.6c22.2,4,39.2,23.5,39.2,46.9H394c0-32.8-24.5-60-56.2-64.2v-17.6h-17.1v17.6
		c-31.7,4.2-56.2,31.4-56.2,64.2c0,31.1,15.6,52.4,45.2,61.8l11,3.5v99.6c-22.2-4-39.2-23.5-39.2-46.9h-17.1
		c0,32.8,24.5,60,56.2,64.2v17.6h17.1v-17.6C369.4,375,394,347.8,394,315C394,283.9,378.3,262.6,348.7,253.2z M314.8,242.5
		c-22.7-7.2-33.3-21.6-33.3-45.5c0-23.4,16.9-42.9,39.2-46.9v94.2L314.8,242.5z M337.7,361.9v-94.2l5.9,1.8
		c22.7,7.2,33.3,21.6,33.3,45.5C376.9,338.4,360,357.9,337.7,361.9z"/>
	<path d="M182.8,149.3c26.3,0,47.7,21.4,47.7,47.7h17.1c0-35.7-29-64.8-64.8-64.8S118,161.3,118,197c0,31.1,15.6,52.4,45.2,61.8
		l33.9,10.7c22.7,7.2,33.3,21.6,33.3,45.5c0,26.3-21.4,47.7-47.7,47.7s-47.7-21.4-47.7-47.7H118c0,35.7,29,64.8,64.8,64.8
		s64.8-29,64.8-64.8c0-31.1-15.6-52.4-45.2-61.8l-33.9-10.7c-22.7-7.2-33.3-21.6-33.3-45.5C135.1,170.7,156.5,149.3,182.8,149.3z"/>
</g>
</svg>
