<?xml version="1.0" encoding="utf-8"?>
<!-- Generator: Adobe Illustrator 22.1.0, SVG Export Plug-In . SVG Version: 6.00 Build 0)  -->
<svg version="1.1" id="Layer_3" xmlns="http://www.w3.org/2000/svg" xmlns:xlink="http://www.w3.org/1999/xlink" x="0px" y="0px"
	 viewBox="0 0 512 512" style="enable-background:new 0 0 512 512;" xml:space="preserve">
<path d="M79.8,361.8c12.7-1.3,20.9-3.6,24.7-6.8c3.8-3.2,5.6-11.3,5.6-24.2V177.2c0-12.3-1.9-20.3-5.6-24c-3.7-3.8-12-6.1-24.8-7
	v-6.4h97.5v6.4c-12.7,0.7-21.2,2.8-25.5,6.2c-4.3,3.5-6.5,11-6.5,22.4v165.9c0,3.8,0.6,6.8,1.9,9c1.3,2.2,4.1,3.6,8.5,4.1
	c2.6,0.3,5.3,0.6,8.2,0.7c2.9,0.1,8.2,0.2,16.1,0.2c30.7,0,51.5-2.5,62.3-7.6c10.8-5.1,21.3-18,31.4-38.8h8.8l-16.9,59.9H79.8V361.8
	z"/>
<path d="M407.6,226.5c11.9,11,17.9,26.5,17.9,46.6H318.4c1.1,26,7,45,17.7,56.9c10.7,11.9,23.3,17.8,37.9,17.8
	c11.8,0,21.8-3.1,29.8-9.3c8.1-6.2,15.6-14.9,22.4-26.2l5.9,2c-4.6,14.3-13.2,27.5-25.9,39.7c-12.6,12.2-28.1,18.2-46.5,18.2
	c-21.1,0-37.5-8-49-23.9c-11.5-16-17.3-34.3-17.3-55.1c0-22.6,6.7-42.1,20.1-58.5c13.4-16.4,30.8-24.6,52.3-24.6
	C381.8,210,395.7,215.5,407.6,226.5z M326.8,239.4c-3.6,6.1-6.2,13.7-7.8,22.9h71.2c-1.2-11.2-3.4-19.6-6.4-25.1
	c-5.5-9.9-14.7-14.8-27.7-14.8C343.4,222.4,333.6,228,326.8,239.4z"/>
</svg>
