<?xml version="1.0" encoding="utf-8"?>
<!-- Generator: Adobe Illustrator 22.1.0, SVG Export Plug-In . SVG Version: 6.00 Build 0)  -->
<svg version="1.1" id="Layer_2" xmlns="http://www.w3.org/2000/svg" xmlns:xlink="http://www.w3.org/1999/xlink" x="0px" y="0px"
	 viewBox="0 0 512 512" style="enable-background:new 0 0 512 512;" xml:space="preserve">
<g>
	<path d="M53.3,297.8c6.7,4.1,16.5,7.5,26.8,7.5c15.3,0,24.2-8.1,24.2-19.7c0-10.8-6.2-17-21.8-23c-18.9-6.7-30.5-16.5-30.5-32.8
		c0-18,14.9-31.4,37.4-31.4c11.8,0,20.4,2.7,25.6,5.7l-4.1,12.2c-3.8-2.1-11.5-5.5-22-5.5c-15.8,0-21.8,9.4-21.8,17.3
		c0,10.8,7,16.1,23,22.3c19.6,7.5,29.5,17,29.5,34c0,17.8-13.2,33.3-40.5,33.3c-11.1,0-23.3-3.3-29.5-7.4L53.3,297.8z"/>
	<path d="M139.4,194.2h15.1V246h0.3c2.4-4.3,6.2-8.1,10.8-10.6c4.5-2.6,9.8-4.3,15.4-4.3c11.1,0,29,6.9,29,35.5v49.4h-15.1v-47.7
		c0-13.4-5-24.7-19.2-24.7c-9.8,0-17.5,6.9-20.2,15.1c-0.9,2.1-1,4.3-1,7.2v50.1h-15.1V194.2z"/>
	<path d="M231,307c0-6.3,4.3-10.8,10.3-10.8c6,0,10.1,4.5,10.1,10.8c0,6.2-3.9,10.8-10.3,10.8C235.1,317.8,231,313.2,231,307z"/>
	<path d="M268.5,297.8c6.7,4.1,16.5,7.5,26.8,7.5c15.3,0,24.2-8.1,24.2-19.7c0-10.8-6.2-17-21.8-23c-18.9-6.7-30.5-16.5-30.5-32.8
		c0-18,14.9-31.4,37.4-31.4c11.8,0,20.4,2.7,25.6,5.7l-4.1,12.2c-3.8-2.1-11.5-5.5-22-5.5c-15.8,0-21.8,9.4-21.8,17.3
		c0,10.8,7,16.1,23,22.3c19.6,7.5,29.5,17,29.5,34c0,17.8-13.2,33.3-40.5,33.3c-11.1,0-23.3-3.3-29.5-7.4L268.5,297.8z"/>
	<path d="M430.7,273.7c0,30.7-21.3,44.1-41.3,44.1c-22.5,0-39.8-16.5-39.8-42.7c0-27.8,18.2-44.1,41.2-44.1
		C414.6,231,430.7,248.4,430.7,273.7z M364.9,274.6c0,18.2,10.5,31.9,25.2,31.9c14.4,0,25.2-13.5,25.2-32.2c0-14.1-7-31.9-24.9-31.9
		C372.6,242.4,364.9,258.8,364.9,274.6z"/>
	<path d="M442.1,307c0-6.3,4.3-10.8,10.3-10.8s10.1,4.5,10.1,10.8c0,6.2-3.9,10.8-10.3,10.8C446.2,317.8,442.1,313.2,442.1,307z"/>
</g>
</svg>
