<?xml version="1.0" encoding="utf-8"?>
<!-- Generator: Adobe Illustrator 22.1.0, SVG Export Plug-In . SVG Version: 6.00 Build 0)  -->
<svg version="1.1" id="Layer_3" xmlns="http://www.w3.org/2000/svg" xmlns:xlink="http://www.w3.org/1999/xlink" x="0px" y="0px"
	 viewBox="0 0 512 512" style="enable-background:new 0 0 512 512;" xml:space="preserve">
<g id="Layer_2_2_">
	<path d="M303.8,301.1c3.1,13.1,7.2,23.2,12.5,30.2c9.6,12.7,23.9,19.2,43,19.6v-92.1c-21-12.4-34.9-21.9-41.6-28.6
		c-10.9-10.6-16.3-23-16.3-37.3c0-12.1,5.2-23.1,15.7-33.1c10.5-10,24.6-15.4,42.2-16.2v-20.4h11.3v20.4c8.8,0.5,18.5,2.2,29.1,5.1
		c9.9,3.1,17.6,7.2,23.2,12.2v36.3h-4.8c-2.4-14-8.1-24.8-17-32.4s-19.1-11.7-30.5-12.1v79.8c23.7,12,40,22.8,49.2,32.4
		c9.1,9.6,13.7,22.4,13.7,38.3c0,6.2-1.1,12.2-3.2,18.1c-3.2,9.2-8.6,17-16.2,23.2c-5.8,4.9-12.8,8.5-21,11
		c-8.2,2.4-15.6,3.9-22.4,4.5v28.8h-11.4V360c-13.8-0.3-25.3-1.9-34.3-4.8c-6-1.9-14.7-5.8-26-11.8v-42.2h4.8L303.8,301.1
		L303.8,301.1z M359.3,152.7c-10,1.3-18,4.9-24.2,10.9s-9.2,13.6-9.2,22.8c0,8.7,4.4,17.4,13.2,26.1c5.5,5.3,12.3,10.2,20.2,14.8
		V152.7z M392.6,342.6c10.3-7.1,15.4-18,15.4-32.6c0-10.2-3.8-19.1-11.3-26.9c-4.6-4.6-13.3-10.8-26.1-18.6v86.4
		C379.8,349.2,387.1,346.5,392.6,342.6z"/>
	<path d="M85.5,289c5.2,13.7,11.2,24.7,18.2,32.8c12.1,14.2,27.2,21.3,45.1,21.3c9.7,0,18.1-3.1,25.2-9.2
		c7.1-6.2,10.6-14.8,10.6-25.8c0-9.9-3.6-18.6-10.7-26c-4.7-4.7-14.5-11.7-29.5-21l-26.1-16.3c-7.8-5-14.1-10-18.8-15.1
		c-8.7-9.6-13-20.3-13-31.9c0-15.4,5.1-28.2,15.4-38.5c10.2-10.2,23.8-15.4,40.7-15.4c7,0,15.3,1.7,25.1,5.1
		c9.8,3.4,15.4,5.1,16.8,5.1c3.8,0,6.4-0.9,7.8-2.7c1.4-1.8,2.6-4.3,3.4-7.6h6.3l6.7,65h-7.3c-5-19.6-13-33.3-23.9-41
		c-11-7.8-21.9-11.6-32.6-11.6c-8.4,0-15.6,2.5-21.9,7.4c-6.2,4.9-9.3,11.8-9.3,20.5c0,7.9,2.4,14.6,7.1,20.1
		c4.8,5.7,12.2,11.6,22.2,17.8l26.8,16.6c16.8,10.3,28.6,19.8,35.5,28.5c6.8,8.8,10.2,19.1,10.2,31c0,16-6,29.4-18.1,40.1
		c-12.1,10.7-27.5,16.1-46.3,16.1c-9.4,0-19.3-1.8-29.6-5.4c-10.3-3.6-16.2-5.4-17.7-5.4c-3.6,0-6,1.1-7.2,3.3
		c-1.2,2.2-2.1,4.5-2.5,7h-6.7l-9.1-65H85.5z"/>
	<path d="M204.1,345.5c9.1-0.8,15.2-2.4,18.2-4.8c3-2.4,4.5-7.6,4.5-15.6v-67.3c0-9.8-0.9-16.9-2.8-21.1c-1.8-4.2-5.2-6.3-10.1-6.3
		c-1,0-2.3,0.1-4,0.4c-1.6,0.2-3.4,0.6-5.1,1v-4.9c5.6-2,11.4-4,17.4-6.1c5.9-2.1,10.1-3.6,12.3-4.5c5-1.9,10.1-4,15.3-6.4
		c0.7,0,1.1,0.2,1.3,0.7c0.1,0.5,0.2,1.5,0.2,3.1v24.5c6.4-8.8,12.5-15.8,18.5-20.7c5.9-5,12.1-7.5,18.5-7.5c5.1,0,9.2,1.5,12.4,4.5
		c3.2,3,4.8,6.8,4.8,11.4c0,4.1-1.2,7.5-3.7,10.3c-2.4,2.8-5.5,4.2-9.2,4.2c-3.8,0-7.6-1.7-11.4-5.2c-3.8-3.5-6.8-5.2-9-5.2
		c-3.5,0-7.8,2.8-12.8,8.4c-5.1,5.6-7.6,11.4-7.6,17.4V323c0,8.6,2,14.5,6,17.8c4,3.3,10.6,4.9,19.8,4.7v4.9h-73.5V345.5z"/>
</g>
</svg>
