<svg width="512" height="512" viewBox="0 0 512 512" fill="none" xmlns="http://www.w3.org/2000/svg">
<path d="M127.184 341.206C116.888 341.206 107.623 339.956 99.3865 337.456C91.1503 334.808 83.2818 330.249 75.781 323.778C73.869 322.16 72.3983 320.322 71.3688 318.262C70.3392 316.203 69.8245 314.144 69.8245 312.085C69.8245 308.703 71.0011 305.761 73.3543 303.261C75.8545 300.613 78.9431 299.29 82.62 299.29C85.4144 299.29 87.9147 300.172 90.1208 301.937C95.7096 306.496 101.225 309.953 106.667 312.306C112.256 314.659 119.095 315.836 127.184 315.836C132.625 315.836 137.626 315.027 142.185 313.409C146.745 311.644 150.421 309.364 153.216 306.57C156.01 303.629 157.407 300.319 157.407 296.642C157.407 292.23 156.084 288.48 153.436 285.391C150.789 282.303 146.745 279.729 141.303 277.67C135.861 275.464 128.949 273.772 120.565 272.596C112.623 271.419 105.637 269.654 99.6071 267.301C93.5771 264.801 88.503 261.712 84.3849 258.035C80.4139 254.211 77.3988 249.799 75.3398 244.799C73.2807 239.651 72.2512 233.915 72.2512 227.591C72.2512 218.031 74.6779 209.868 79.5314 203.103C84.532 196.338 91.2239 191.19 99.6071 187.66C107.99 184.13 117.256 182.365 127.404 182.365C136.964 182.365 145.789 183.836 153.878 186.778C162.114 189.572 168.806 193.175 173.953 197.588C178.219 200.97 180.351 204.868 180.351 209.28C180.351 212.516 179.101 215.457 176.601 218.105C174.1 220.752 171.159 222.076 167.776 222.076C165.57 222.076 163.585 221.414 161.82 220.09C159.467 218.031 156.304 216.119 152.333 214.354C148.362 212.442 144.171 210.898 139.759 209.721C135.346 208.398 131.228 207.736 127.404 207.736C121.08 207.736 115.712 208.545 111.3 210.163C107.034 211.78 103.799 213.986 101.593 216.781C99.3865 219.575 98.2834 222.811 98.2834 226.488C98.2834 230.9 99.5336 234.577 102.034 237.518C104.681 240.313 108.432 242.593 113.285 244.357C118.139 245.975 123.948 247.446 130.713 248.77C139.538 250.387 147.259 252.299 153.878 254.506C160.643 256.712 166.232 259.58 170.644 263.109C175.056 266.492 178.366 270.831 180.572 276.126C182.778 281.273 183.881 287.597 183.881 295.098C183.881 304.658 181.234 312.894 175.939 319.807C170.644 326.719 163.658 332.014 154.981 335.691C146.45 339.368 137.185 341.206 127.184 341.206ZM258.818 341.206C248.523 341.206 239.257 339.956 231.021 337.456C222.785 334.808 214.917 330.249 207.416 323.778C205.504 322.16 204.033 320.322 203.004 318.262C201.974 316.203 201.459 314.144 201.459 312.085C201.459 308.703 202.636 305.761 204.989 303.261C207.489 300.613 210.578 299.29 214.255 299.29C217.049 299.29 219.549 300.172 221.756 301.937C227.344 306.496 232.86 309.953 238.301 312.306C243.89 314.659 250.729 315.836 258.818 315.836C264.26 315.836 269.261 315.027 273.82 313.409C278.379 311.644 282.056 309.364 284.851 306.57C287.645 303.629 289.042 300.319 289.042 296.642C289.042 292.23 287.719 288.48 285.071 285.391C282.424 282.303 278.379 279.729 272.938 277.67C267.496 275.464 260.583 273.772 252.2 272.596C244.258 271.419 237.272 269.654 231.242 267.301C225.212 264.801 220.138 261.712 216.02 258.035C212.049 254.211 209.034 249.799 206.975 244.799C204.915 239.651 203.886 233.915 203.886 227.591C203.886 218.031 206.313 209.868 211.166 203.103C216.167 196.338 222.859 191.19 231.242 187.66C239.625 184.13 248.891 182.365 259.039 182.365C268.599 182.365 277.423 183.836 285.512 186.778C293.749 189.572 300.441 193.175 305.588 197.588C309.853 200.97 311.986 204.868 311.986 209.28C311.986 212.516 310.736 215.457 308.235 218.105C305.735 220.752 302.794 222.076 299.411 222.076C297.205 222.076 295.219 221.414 293.454 220.09C291.101 218.031 287.939 216.119 283.968 214.354C279.997 212.442 275.806 210.898 271.393 209.721C266.981 208.398 262.863 207.736 259.039 207.736C252.715 207.736 247.347 208.545 242.934 210.163C238.669 211.78 235.433 213.986 233.227 216.781C231.021 219.575 229.918 222.811 229.918 226.488C229.918 230.9 231.168 234.577 233.669 237.518C236.316 240.313 240.066 242.593 244.92 244.357C249.773 245.975 255.583 247.446 262.348 248.77C271.173 250.387 278.894 252.299 285.512 254.506C292.278 256.712 297.867 259.58 302.279 263.109C306.691 266.492 310 270.831 312.207 276.126C314.413 281.273 315.516 287.597 315.516 295.098C315.516 304.658 312.868 312.894 307.574 319.807C302.279 326.719 295.293 332.014 286.616 335.691C278.085 339.368 268.819 341.206 258.818 341.206ZM404.572 184.572C412.22 184.572 419.353 186.778 425.972 191.19C432.737 195.602 438.179 201.559 442.297 209.059C446.415 216.56 448.474 224.944 448.474 234.209C448.474 243.328 446.415 251.638 442.297 259.138C438.179 266.639 432.737 272.669 425.972 277.229C419.353 281.641 412.22 283.847 404.572 283.847H363.98L366.186 279.876V325.543C366.186 329.367 365.009 332.602 362.656 335.25C360.303 337.75 357.214 339 353.39 339C349.713 339 346.698 337.75 344.345 335.25C341.992 332.602 340.815 329.367 340.815 325.543V198.029C340.815 194.205 342.066 191.043 344.566 188.543C347.213 185.895 350.449 184.572 354.273 184.572H404.572ZM404.572 258.697C407.367 258.697 410.088 257.521 412.735 255.167C415.382 252.814 417.588 249.799 419.353 246.122C421.118 242.298 422.001 238.327 422.001 234.209C422.001 229.944 421.118 225.973 419.353 222.296C417.588 218.619 415.382 215.678 412.735 213.472C410.088 211.119 407.367 209.942 404.572 209.942H363.538L366.186 205.971V262.227L363.759 258.697H404.572Z" fill="black"/>
</svg>
