<?xml version="1.0" encoding="utf-8"?>
<!-- Generator: Adobe Illustrator 22.1.0, SVG Export Plug-In . SVG Version: 6.00 Build 0)  -->
<svg version="1.1" id="Layer_2" xmlns="http://www.w3.org/2000/svg" xmlns:xlink="http://www.w3.org/1999/xlink" x="0px" y="0px"
	 viewBox="0 0 512 512" style="enable-background:new 0 0 512 512;" xml:space="preserve">
<path d="M77.4,366.2c11.2-1.3,18.5-3.6,21.9-6.8c3.4-3.2,5.1-11.3,5.1-24.3V180.7c0-12.6-1.6-20.8-4.9-24.4
	c-3.3-3.6-10.6-5.9-22-6.8v-6.4h82.7c27.9,0,51.4,5.2,70.7,15.6c34.8,18.6,52.1,52,52.1,100c0,17.3-3.1,33.7-9.4,49.3
	c-6.2,15.6-15.7,28.7-28.2,39.5c-8,6.8-16.3,11.9-24.9,15.4c-15.7,6.6-35,9.8-57.8,9.8H77.4V366.2z M139.2,357.1
	c2.4,1.8,7.5,2.7,15.2,2.7c24,0,43.7-5.4,59.2-16.1c23.8-16.5,35.7-44.7,35.7-84.6c0-35.6-9.8-62.4-29.4-80.4
	c-16.8-15.4-39-23.1-66.7-23.1c-6.9,0-11.6,0.8-14,2.5c-2.4,1.7-3.7,5.4-3.7,11.2v176.5C135.6,351.5,136.8,355.2,139.2,357.1z"/>
<path d="M273.6,157.1v-5.8c12.9-2.9,24.5-6.2,34.8-9.8c10.3-3.6,15.9-5.4,16.7-5.4c0.2,0.7,0.3,1.4,0.3,2v103.2
	c2.9-5.4,7.3-10.6,13.2-15.4c10.4-8.5,22.3-12.7,35.9-12.7c16.6,0,30.7,7,42.5,21c11.7,14,17.6,32.2,17.6,54.6
	c0,23.9-7.6,44.4-22.9,61.5c-15.2,17.1-35.3,25.6-60.1,25.6c-12.5,0-24.8-2.5-36.9-7.5c-12.1-5-18.1-9.9-18.1-14.9V174.4
	c0-6.5-0.9-11.2-2.7-14c-1.8-2.8-6-4.2-12.5-4.2L273.6,157.1z M338.1,360.4c7.8,2.5,14.6,3.8,20.4,3.8c15.7,0,27.4-5.9,35-17.8
	c7.6-11.8,11.4-26.2,11.4-43c0-16.8-3.5-32.3-10.6-46.6c-7.1-14.3-18.6-21.4-34.4-21.4c-8,0-15.8,2.5-23.5,7.4
	c-7.6,4.9-11.5,11.1-11.5,18.7v86.3C326,353.6,330.3,357.8,338.1,360.4z"/>
</svg>
