<?xml version="1.0" encoding="utf-8"?>
<!-- Generator: Adobe Illustrator 22.1.0, SVG Export Plug-In . SVG Version: 6.00 Build 0)  -->
<svg version="1.1" id="Layer_3" xmlns="http://www.w3.org/2000/svg" xmlns:xlink="http://www.w3.org/1999/xlink" x="0px" y="0px"
	 viewBox="0 0 512 512" style="enable-background:new 0 0 512 512;" xml:space="preserve">
<g>
	<path d="M124.4,319.5c4.3-4.3,10.9-6.5,19.8-6.5c1.7,0,3.4,0.1,5.2,0.3c1.8,0.2,4.4,0.6,7.9,1.1c0.1-1.7,0.2-2.9,0.2-3.5
		c0-0.6,0.1-1.3,0.1-2.1c0-5.2-0.5-12.3-1.4-21.1c-0.6-5.4-1.9-15.6-3.9-30.5h-31v-12.8h29.7c-0.4-3.2-0.7-7.1-1-11.8
		c-0.3-4.6-0.4-8.7-0.4-12.2c0-16.8,4.8-31.2,14.4-43.3c9.6-12.1,23.1-18.2,40.4-18.2c9.3,0,17.8,2.4,25.4,7.1
		c7.6,4.7,11.5,11.1,11.5,19.2c0,3.6-1.1,6.9-3.4,10c-2.2,3.1-5.5,4.7-9.7,4.7c-2.7,0-5.2-0.7-7.4-2.2c-3.8-2.7-5.6-7.1-5.3-13.3
		l0.2-4.5c0.3-3.4-0.9-6.4-3.6-9.1c-2.7-2.7-6.9-4-12.5-4c-11.3,0-19,5.7-23.1,17.2c-2.2,6.1-3.3,14.2-3.3,24.4
		c0,3.1,0.3,8.3,0.8,15.5c0.6,7.2,1.2,14.1,2.1,20.6h35.8v12.8h-34.7c0,2.8,0,5.2,0.1,7.2c0.1,2,0.1,3.8,0.1,5.2
		c0,7.6-0.6,16-1.9,25c-1.2,9.1-2.9,16.9-5,23.7c4.6,2.1,9.9,4,15.8,5.6c9.4,2.8,18,4.1,25.7,4.1c6.5,0,12.1-0.9,16.9-2.6
		c4.8-1.7,9.8-5.1,15.1-10.1l4.6-4.3c0.4-0.4,0.8-0.7,1.2-0.9c0.5-0.2,1.1-0.5,1.8-0.8l1.7,1.2c-0.8,7.7-5.6,16.4-14.2,26.2
		c-8.7,9.8-20.2,14.7-34.7,14.7c-7.1,0-15.8-2.8-26-8.5c-4.5-2.6-9-5.5-13.5-8.9c-6,6.7-10.3,11.1-13.1,13.1
		c-4.4,3.2-9.5,4.8-15.1,4.8c-4.5,0-8.8-1.6-12.9-4.6c-4.1-3.1-6.1-7.8-6.1-14.2C118,328.4,120.1,323.9,124.4,319.5z M145.4,323.8
		c-2.1-0.4-4.4-0.6-6.9-0.6c-3.9,0-7.1,0.9-9.4,2.8c-2.3,1.9-3.5,4.2-3.5,7.1c0,1.9,0.5,3.7,1.4,5.4c1.9,3.4,5.3,5.2,10,5.2
		c5.8,0,10.4-2.3,13.8-6.8c2.2-2.9,3.5-6.1,4-9.6C152.5,325.6,149.4,324.4,145.4,323.8z"/>
	<path d="M273.9,292.7c4.8,12.7,10.4,22.8,16.8,30.3c11.2,13.1,25.1,19.7,41.6,19.7c9,0,16.7-2.8,23.3-8.5
		c6.5-5.7,9.8-13.6,9.8-23.8c0-9.2-3.3-17.2-9.9-23.9c-4.3-4.3-13.4-10.8-27.2-19.4l-24-15c-7.2-4.6-13-9.2-17.3-13.9
		c-8-8.9-12-18.7-12-29.4c0-14.2,4.7-26.1,14.2-35.5c9.4-9.4,22-14.2,37.6-14.2c6.4,0,14.2,1.6,23.2,4.7c9,3.2,14.2,4.7,15.5,4.7
		c3.5,0,5.9-0.8,7.2-2.5c1.3-1.7,2.4-4,3.1-7h5.8l6.2,60H381c-4.6-18.1-12-30.7-22.1-37.8c-10.1-7.2-20.2-10.7-30.1-10.7
		c-7.7,0-14.4,2.3-20.2,6.8c-5.7,4.5-8.6,10.8-8.6,18.9c0,7.2,2.2,13.4,6.6,18.6c4.4,5.2,11.2,10.7,20.5,16.4l24.8,15.3
		c15.5,9.5,26.4,18.3,32.8,26.3c6.3,8.1,9.4,17.6,9.4,28.6c0,14.8-5.6,27.1-16.7,37c-11.1,9.9-25.4,14.9-42.7,14.9
		c-8.7,0-17.8-1.7-27.3-5c-9.5-3.3-14.9-5-16.3-5c-3.3,0-5.5,1-6.7,3c-1.1,2-1.9,4.2-2.3,6.5h-6.2l-8.4-60H273.9z"/>
</g>
</svg>
