<?xml version="1.0" encoding="utf-8"?>
<!-- Generator: Adobe Illustrator 22.1.0, SVG Export Plug-In . SVG Version: 6.00 Build 0)  -->
<svg version="1.1" id="Layer_3" xmlns="http://www.w3.org/2000/svg" xmlns:xlink="http://www.w3.org/1999/xlink" x="0px" y="0px"
	 viewBox="0 0 512 512" style="enable-background:new 0 0 512 512;" xml:space="preserve">
<g>
	<path d="M330.6,246.2l-14.5-4.5l13.8-6.6c28.2-13.1,41.9-33,41.9-60.9c0-8-1.3-15.8-4-23c-2.6-7.2-6.5-13.9-11.5-19.8
		c-5-6-10.9-11-17.4-14.9c-7.7-4.7-16.6-7.9-26.4-9.5c-10.2-1.7-22.5-2.6-36.5-2.6h-11V59.4c0-7.9-6.4-14.3-14.3-14.3
		c-7.9,0-14.3,6.4-14.3,14.3v45.1h-49.4c-11.3,0-19.5,2.4-24.1,7c-4.7,4.7-7,12.9-7,24.5v226.8c0,11.4,2.3,19.6,6.9,24.4
		c4.5,4.7,12.7,7.1,24.2,7.1h49.4v58.2c0,7.9,6.4,14.3,14.3,14.3c7.9,0,14.3-6.4,14.3-14.3v-58.2h5.4c15.6,0,29.4-0.8,41-2.3
		c11.4-1.5,21.5-4.1,30.2-7.7c13.4-5.9,24.3-15.2,32.3-27.7c8-12.5,12-26.8,12-42.4C386,280.4,367.9,258.1,330.6,246.2z M304,146.6
		c13.1,6,19.7,18.1,19.7,35.7c0,8.2-2,15.7-6,22.4c-5,9.2-12.5,15.7-22.2,19c-7.7,2.7-17.8,4.2-30.5,4.6v-89.4
		C281.8,139.8,294.6,142.3,304,146.6z M196.4,138.6h40.1v89.9h-40.1V138.6z M196.4,360.4v-99.9h40.1v99.9H196.4z M268,360.4h-2.9
		v-99.9h0.9c22.6,0,39.4,3.7,51.2,11.2c12.5,8,18.8,20.8,18.8,38.1C335.9,332.9,324.1,360.4,268,360.4z"/>
</g>
</svg>
