<?xml version="1.0" encoding="utf-8"?>
<!-- Generator: Adobe Illustrator 22.1.0, SVG Export Plug-In . SVG Version: 6.00 Build 0)  -->
<svg version="1.1" id="Layer_2" xmlns="http://www.w3.org/2000/svg" xmlns:xlink="http://www.w3.org/1999/xlink" x="0px" y="0px"
	 viewBox="0 0 512 512" style="enable-background:new 0 0 512 512;" xml:space="preserve">
<g id="Layer_3">
	<path d="M348.7,349c-3.7-3.8-5.5-8.2-5.5-13.4c0-5.2,1.9-9.6,5.5-13.4c3.8-3.7,8.2-5.5,13.4-5.5s9.6,1.9,13.4,5.5
		c3.7,3.7,5.5,8.2,5.5,13.4c0,5.2-1.8,9.7-5.4,13.4c-3.7,3.8-8.1,5.5-13.4,5.5S352.4,352.8,348.7,349z"/>
	<path d="M281.5,162c10.9,3,17,4.7,18.2,4.7c2.7,0,5.2-0.6,7.7-2.2c2.3-1.5,4.2-3.9,5-7h6.1l2.7,64.2h-6.5
		c-3.9-12.7-8.9-23.1-14.8-30.9c-11.8-14.7-27.7-22.1-47.5-22.1c-20.1,0-36.4,7.8-49.1,23.7c-12.7,15.9-19,37.6-19,65.3
		c0,25.6,6.7,45.8,20.1,61c13.4,15.2,30.2,22.9,50.8,22.9c14.8,0,28.4-3.6,41-10.6c7.2-4,15.1-10,23.5-18.2l5.3,5.3
		c-6.4,8.1-14.2,15.1-23.5,21c-16,10.1-33.5,15.4-52.2,15.4c-30.7,0-55.1-9.8-73.2-29.4C159.4,307,151,284.4,151,257.2
		c0-27.9,8.9-51.1,26.5-70c18.5-19.9,42.7-29.7,72.3-29.7C259.9,157.3,270.6,158.9,281.5,162z"/>
</g>
</svg>
