<?xml version="1.0" encoding="utf-8"?>
<!-- Generator: Adobe Illustrator 22.1.0, SVG Export Plug-In . SVG Version: 6.00 Build 0)  -->
<svg version="1.1" id="Layer_3" xmlns="http://www.w3.org/2000/svg" xmlns:xlink="http://www.w3.org/1999/xlink" x="0px" y="0px"
	 viewBox="0 0 512 512" style="enable-background:new 0 0 512 512;" xml:space="preserve">
<path d="M58.6,355.9c11.7-1.2,19.3-3.3,22.8-6.3c3.5-3,5.3-10.4,5.3-22.5V184.8c0-11.7-1.7-19.2-5.2-22.5c-3.4-3.3-11.1-5.4-23-6.3
	v-5.9h86.3c29.1,0,53.6,4.8,73.8,14.4c36.3,17.2,54.4,47.9,54.4,92.2c0,15.9-3.3,31.1-9.8,45.5c-6.5,14.4-16.3,26.5-29.5,36.4
	c-8.3,6.3-17,11-25.9,14.2c-16.4,6-36.5,9.1-60.3,9.1H58.6V355.9z M123,347.5c2.6,1.7,7.8,2.5,15.9,2.5c25,0,45.6-5,61.7-14.9
	c24.8-15.2,37.2-41.2,37.2-78c0-32.8-10.2-57.6-30.6-74.1c-17.5-14.2-40.7-21.3-69.5-21.3c-7.2,0-12.1,0.8-14.6,2.3
	c-2.6,1.6-3.8,5-3.8,10.3v162.8C119.2,342.4,120.5,345.8,123,347.5z"/>
<path d="M270.8,150.1h180.9l1.7,54.4h-7.7c-3.8-17.1-8.5-28.2-14.3-33.4c-5.8-5.2-17.9-7.7-36.5-7.7h-17.8v163.8
	c0,12.3,1.9,20,5.8,22.9c3.9,3,12.3,4.9,25.3,5.8v5.9H315v-5.9c13.5-1,22-3.3,25.3-6.7c3.3-3.4,5-12,5-25.8v-160h-18
	c-17.7,0-29.8,2.6-36.2,7.7c-6.4,5.1-11.2,16.3-14.5,33.4h-7.8L270.8,150.1z"/>
</svg>
