<?xml version="1.0" encoding="utf-8"?>
<!-- Generator: Adobe Illustrator 22.1.0, SVG Export Plug-In . SVG Version: 6.00 Build 0)  -->
<svg version="1.1" id="Layer_3" xmlns="http://www.w3.org/2000/svg" xmlns:xlink="http://www.w3.org/1999/xlink" x="0px" y="0px"
	 viewBox="0 0 512 512" style="enable-background:new 0 0 512 512;" xml:space="preserve">
<g>
	<path d="M385.5,220.5c-3-12.3-12.8-13.6-16.9-13.6c-6.8,0-13.5,3.1-17.5,8.2c-3.5,4.4-4.6,10-3.1,16.1
		c8.5,34.9-5.5,72.2-41.6,110.9c-20.4,21.9-43.7,40-67.6,52.6l-9.5,5V266.8l78.7-71.3c6.8-6.2,7.3-16.7,1.2-23.5
		c-6.2-6.8-16.7-7.3-23.5-1.2l-56.3,51v-39.2l75.2-68c6.8-6.2,7.3-16.7,1.2-23.5c-6.2-6.8-16.7-7.3-23.5-1.2l-52.8,47.8v-58
		c0-12.9-9.8-18.6-19.5-18.6c-9.7,0-19.5,5.8-19.5,18.6v93.3l-62,56.1c-6.8,6.2-7.3,16.7-1.2,23.5c3.3,3.6,7.8,5.5,12.4,5.5
		c4,0,8-1.4,11.2-4.3l39.6-35.9v39.2l-58.4,52.9c-6.8,6.2-7.3,16.7-1.2,23.5c3.3,3.6,7.8,5.5,12.4,5.5c4,0,8-1.4,11.2-4.3l36.1-32.6
		v124.7c0,9.2,4.9,13.8,9,16l0.9,0.6c2.9,2.2,6.3,3.4,9.9,3.4c0,0,0,0,0,0c1.8,0,3.8-0.3,5.8-0.9c41.4-12,84.2-40.1,120.6-79.1
		C361.6,340,401.2,285.3,385.5,220.5z"/>
</g>
</svg>
