<?xml version="1.0" encoding="utf-8"?>
<!-- Generator: Adobe Illustrator 22.1.0, SVG Export Plug-In . SVG Version: 6.00 Build 0)  -->
<svg version="1.1" id="Layer_2" xmlns="http://www.w3.org/2000/svg" xmlns:xlink="http://www.w3.org/1999/xlink" x="0px" y="0px"
	 viewBox="0 0 512 512" style="enable-background:new 0 0 512 512;" xml:space="preserve">
<g id="Layer_2_2_">
	<path d="M205.9,176.4h131.7l1.2,39.6h-5.6c-2.7-12.4-6.2-20.5-10.4-24.3c-4.2-3.7-13-5.6-26.6-5.6h-13v119.2c0,9,1.4,14.6,4.2,16.7
		c2.8,2.1,8.9,3.6,18.4,4.3v4.3h-67.9v-4.3c9.8-0.8,16-2.4,18.4-4.9c2.4-2.5,3.7-8.8,3.7-18.8V186.1H247c-12.9,0-21.6,1.8-26.4,5.6
		c-4.6,3.7-8.2,11.8-10.5,24.4h-5.7L205.9,176.4z"/>
	<path d="M64.9,176.4h131.7l1.2,39.6h-5.6c-2.7-12.4-6.2-20.5-10.4-24.3c-4.2-3.7-13-5.6-26.6-5.6h-13v119.2c0,9,1.4,14.6,4.2,16.7
		c2.8,2.1,8.9,3.6,18.4,4.3v4.3H97.1v-4.3c9.8-0.8,16-2.4,18.4-4.9c2.4-2.5,3.7-8.8,3.7-18.8V186.1h-13.1c-12.9,0-21.6,1.8-26.4,5.6
		c-4.6,3.7-8.2,11.8-10.5,24.4h-5.7L64.9,176.4z"/>
	<path d="M349.7,290.4c2.4,10,5.5,17.7,9.5,23c7.3,9.7,18.2,14.6,32.8,14.9v-70.2c-16-9.4-26.6-16.7-31.7-21.8
		c-8.3-8.1-12.4-17.5-12.4-28.4c0-9.2,4-17.6,12-25.2c8-7.6,18.7-11.7,32.2-12.3v-15.5h8.6v15.5c6.7,0.4,14.1,1.7,22.2,3.9
		c7.5,2.4,13.4,5.5,17.7,9.3v27.7h-3.7c-1.8-10.7-6.2-18.9-13-24.7s-14.6-8.9-23.2-9.2v60.8c18.1,9.1,30.5,17.4,37.5,24.7
		c6.9,7.3,10.4,17.1,10.4,29.2c0,4.7-0.8,9.3-2.4,13.8c-2.4,7-6.6,13-12.3,17.7c-4.4,3.7-9.8,6.5-16,8.4c-6.2,1.8-11.9,3-17.1,3.4
		v21.9H392v-21.9c-10.5-0.2-19.3-1.4-26.1-3.7c-4.6-1.4-11.2-4.4-19.8-9v-32.2L349.7,290.4L349.7,290.4L349.7,290.4z M392,177.3
		c-7.6,1-13.7,3.7-18.4,8.3c-4.7,4.6-7,10.4-7,17.4c0,6.6,3.4,13.3,10.1,19.9c4.2,4,9.4,7.8,15.4,11.3V177.3z M417.3,322
		c7.8-5.4,11.7-13.7,11.7-24.8c0-7.8-2.9-14.6-8.6-20.5c-3.5-3.5-10.1-8.2-19.9-14.2v65.8C407.6,327,413.1,325,417.3,322z"/>
</g>
</svg>
