<?xml version="1.0" encoding="utf-8"?>
<!-- Generator: Adobe Illustrator 22.1.0, SVG Export Plug-In . SVG Version: 6.00 Build 0)  -->
<svg version="1.1" id="Layer_3" xmlns="http://www.w3.org/2000/svg" xmlns:xlink="http://www.w3.org/1999/xlink" x="0px" y="0px"
	 viewBox="0 0 512 512" style="enable-background:new 0 0 512 512;" xml:space="preserve">
<g id="Layer_2_3_">
	<path d="M217.5,176.3h131.7l1.2,39.6h-5.6c-2.7-12.4-6.2-20.5-10.4-24.3c-4.2-3.7-13-5.6-26.6-5.6h-13v119.2c0,9,1.4,14.6,4.2,16.7
		c2.8,2.1,8.9,3.6,18.4,4.3v4.3h-67.9v-4.3c9.8-0.8,16-2.4,18.4-4.9s3.7-8.8,3.7-18.8V186h-13c-12.9,0-21.6,1.8-26.4,5.6
		c-4.6,3.7-8.2,11.8-10.5,24.4H216L217.5,176.3z"/>
	<path d="M51.8,323.1c9.4-1,15.5-3.1,18.2-6.4c2.7-3.3,4-11,4-23V193.1l-3.1-3.7c-3.3-3.9-6.2-6.4-8.5-7.3
		c-2.3-0.9-5.9-1.5-10.5-1.6v-4.2h39l88.1,109.2v-75.9c0-12.5-1.9-20.6-5.6-24.4c-2.5-2.4-7.9-4-16.3-4.8v-4.2h53.6v4.2
		c-8.7,0.9-14.5,3-17.4,6.4s-4.3,11-4.3,23V330H185L84,204.8v88.9c0,12.5,1.8,20.6,5.5,24.4c2.4,2.5,7.7,4.1,15.9,5v4.2H51.8V323.1z
		"/>
	<path d="M361.3,290.3c2.4,10,5.5,17.7,9.5,23c7.3,9.7,18.2,14.6,32.8,14.9V258c-16-9.4-26.6-16.7-31.7-21.8
		c-8.3-8.1-12.4-17.5-12.4-28.4c0-9.2,4-17.6,12-25.2c8-7.6,18.7-11.7,32.2-12.3v-15.5h8.6v15.5c6.7,0.4,14.1,1.7,22.2,3.9
		c7.5,2.4,13.4,5.5,17.7,9.3v27.7h-3.7c-1.8-10.7-6.2-18.9-13-24.7c-6.8-5.8-14.6-8.9-23.2-9.2v60.8c18.1,9.1,30.5,17.4,37.5,24.7
		c6.9,7.3,10.4,17.1,10.4,29.2c0,4.7-0.8,9.3-2.4,13.8c-2.4,7-6.6,13-12.3,17.7c-4.4,3.7-9.8,6.5-16,8.4c-6.2,1.8-11.9,3-17.1,3.4
		v21.9h-8.8v-21.9c-10.5-0.2-19.3-1.4-26.1-3.7c-4.6-1.4-11.2-4.4-19.8-9v-32.2L361.3,290.3L361.3,290.3L361.3,290.3z M403.6,177.2
		c-7.6,1-13.7,3.7-18.4,8.3c-4.7,4.6-7,10.4-7,17.4c0,6.6,3.4,13.3,10.1,19.9c4.2,4,9.4,7.8,15.4,11.3v-56.9H403.6z M428.9,321.9
		c7.8-5.4,11.7-13.7,11.7-24.8c0-7.8-2.9-14.6-8.6-20.5c-3.5-3.5-10.1-8.2-19.9-14.2v65.8C419.2,326.9,424.7,324.9,428.9,321.9z"/>
</g>
</svg>
