<?xml version="1.0" encoding="utf-8"?>
<!-- Generator: Adobe Illustrator 22.1.0, SVG Export Plug-In . SVG Version: 6.00 Build 0)  -->
<svg version="1.1" id="Layer_3" xmlns="http://www.w3.org/2000/svg" xmlns:xlink="http://www.w3.org/1999/xlink" x="0px" y="0px"
	 viewBox="0 0 512 512" style="enable-background:new 0 0 512 512;" xml:space="preserve">
<path d="M85.8,182.7h126.6l1.2,38h-5.4c-2.6-11.9-6-19.7-10-23.3c-4-3.6-12.6-5.4-25.5-5.4h-12.5v114.5c0,8.6,1.3,14,4,16
	c2.7,2.1,8.6,3.4,17.7,4.1v4.2h-65.2v-4.2c9.5-0.7,15.4-2.3,17.7-4.7c2.3-2.4,3.5-8.4,3.5-18.1V192h-12.6c-12.4,0-20.8,1.8-25.3,5.4
	c-4.5,3.6-7.9,11.4-10.1,23.4h-5.5L85.8,182.7z"/>
<path d="M220.5,285.8c3.8,10.1,8.2,18.1,13.3,24c8.9,10.4,19.9,15.6,33.1,15.6c7.1,0,13.3-2.3,18.5-6.8c5.2-4.5,7.8-10.8,7.8-18.9
	c0-7.3-2.6-13.6-7.9-19c-3.4-3.4-10.6-8.6-21.6-15.4l-19.1-11.9c-5.7-3.6-10.3-7.3-13.8-11c-6.3-7.1-9.5-14.9-9.5-23.4
	c0-11.3,3.8-20.7,11.3-28.2c7.5-7.5,17.4-11.3,29.8-11.3c5.1,0,11.2,1.3,18.4,3.8c7.2,2.5,11.3,3.8,12.3,3.8c2.8,0,4.7-0.7,5.7-2
	c1.1-1.3,1.9-3.2,2.5-5.6h4.6l4.9,47.7h-5.4c-3.6-14.4-9.5-24.4-17.5-30.1c-8.1-5.7-16-8.5-23.9-8.5c-6.1,0-11.5,1.8-16,5.4
	c-4.6,3.6-6.8,8.6-6.8,15c0,5.8,1.7,10.7,5.2,14.8c3.5,4.2,8.9,8.5,16.3,13l19.7,12.1c12.3,7.6,21,14.5,26,20.9
	c5,6.4,7.5,14,7.5,22.7c0,11.7-4.4,21.5-13.3,29.4c-8.9,7.9-20.2,11.8-33.9,11.8c-6.9,0-14.2-1.3-21.7-3.9s-11.9-3.9-13-3.9
	c-2.6,0-4.4,0.8-5.3,2.4c-0.9,1.6-1.5,3.3-1.8,5.1h-4.9l-6.7-47.7H220.5z"/>
<path d="M320.6,327.8c6-0.8,9.9-2.3,11.7-4.4c1.9-2.1,2.8-7.2,2.8-15.2V203.2c0-4.1-0.5-7.1-1.6-9c-1.1-1.9-3.6-2.9-7.7-2.9
	c-0.8,0-1.6,0.1-2.3,0.2s-1.6,0.2-2.6,0.4v-3.9c3.2-0.9,7.2-2.1,11.9-3.4c4.7-1.3,8-2.3,9.8-2.9l10.5-3.3l0.2,0.8v67.1
	c4.6-5.2,8.7-9.1,12.2-11.6c6.4-4.4,13.3-6.6,20.8-6.6c11.8,0,19.9,5,24.2,14.9c2.3,5.2,3.5,12.1,3.5,20.7v44.6
	c0,7.7,0.9,12.8,2.7,15.1c1.8,2.3,5.4,3.9,11,4.6v3.1h-47.3v-3.1c6.3-0.9,10.4-2.4,12.2-4.5c1.8-2.1,2.7-7.2,2.7-15.2v-44.3
	c0-7.1-1.2-12.8-3.6-17.2c-2.4-4.4-6.8-6.6-13.4-6.6c-5.7,0-11.2,2-16.5,6.1c-5.3,4.1-8,6.7-8,8v53.9c0,8.2,0.9,13.3,2.8,15.3
	c1.9,2,5.9,3.5,12.1,4.4v3.1h-48.2V327.8z"/>
</svg>
