<?xml version="1.0" encoding="utf-8"?>
<!-- Generator: Adobe Illustrator 22.1.0, SVG Export Plug-In . SVG Version: 6.00 Build 0)  -->
<svg version="1.1" id="Layer_2" xmlns="http://www.w3.org/2000/svg" xmlns:xlink="http://www.w3.org/1999/xlink" x="0px" y="0px"
	 viewBox="0 0 512 512" style="enable-background:new 0 0 512 512;" xml:space="preserve">
<g>
	<path d="M386.1,281.7H257.4c13-10,26.4-19.2,37.9-28c2.9-2.2,5.7-4.4,8.4-6.7h82.4c11.7,0,21.2-9.5,21.2-21.2s-9.5-21.2-21.2-21.2
		h-43.2c5.9-9,10.9-18.7,14.6-29.4c9.5-27.5,4.8-59.3-11.2-83.4C306.2,31,223.6,35.5,166.1,65.7c-24.2,12.7-2.8,49.3,21.4,36.6
		c28.5-15,60.2-21.8,91.4-11.5c21.4,7,39.1,26.4,40.9,49.2c2.1,25.8-13.6,47.5-31.6,64.6H125.9c-11.7,0-21.2,9.5-21.2,21.2
		c0,11.7,9.5,21.2,21.2,21.2h108c-9.9,7.3-19.5,14.8-28.6,23.1c-4,3.7-7.7,7.5-11.2,11.6h-68.2c-11.7,0-21.2,9.5-21.2,21.2
		c0,11.7,9.5,21.2,21.2,21.2h43.4c-13.8,38.2-9.4,81.6,21.6,113.6c42.9,44.2,116.4,33.4,166.1,9.1c24.6-12,3.1-48.5-21.4-36.6
		C297.1,429,226.5,439,208.2,387.5c-8.8-24.8-4.2-45.5,7.2-63.4h170.7c11.7,0,21.2-9.5,21.2-21.2
		C407.3,291.2,397.8,281.7,386.1,281.7z"/>
</g>
</svg>
