<?xml version="1.0" encoding="utf-8"?>
<!-- Generator: Adobe Illustrator 22.1.0, SVG Export Plug-In . SVG Version: 6.00 Build 0)  -->
<svg version="1.1" id="Layer_3" xmlns="http://www.w3.org/2000/svg" xmlns:xlink="http://www.w3.org/1999/xlink" x="0px" y="0px"
	 viewBox="0 0 512 512" style="enable-background:new 0 0 512 512;" xml:space="preserve">
<g id="Layer_2_3_">
	<path d="M301.8,157.9v5.7c-11.8,0.8-19.4,2.8-22.9,5.9c-3.5,3.1-5.2,10.4-5.2,21.6v98.1c0,16.1,2.2,28.6,6.6,37.6
		c8.2,16.4,23.7,24.6,46.6,24.6c25.1,0,41.9-8.4,50.5-25.2c4.8-9.4,7.2-23.9,7.2-43.4V203c0-16.7-2-27.1-6-31.4
		c-4-4.2-11.6-6.9-22.8-8v-5.7h71v5.7c-11.9,1.3-19.6,4.2-23.3,8.6c-3.6,4.4-5.5,14.7-5.5,30.8v79.8c0,21.2-3.2,37.7-9.7,49.6
		c-12,21.9-34.7,32.8-68.3,32.8c-33.2,0-55.7-10.8-67.7-32.4c-6.5-11.6-9.7-26.9-9.7-45.8v-95.9c0-11.2-1.7-18.3-5.2-21.5
		s-11-5.2-22.5-6.1v-5.7H301.8z"/>
	<path d="M90.1,301.1c3.1,13.1,7.2,23.2,12.5,30.2c9.6,12.7,23.9,19.2,43,19.6v-92.1c-21-12.4-34.9-21.9-41.6-28.6
		c-10.9-10.6-16.3-23-16.3-37.3c0-12.1,5.2-23.1,15.7-33.1c10.5-10,24.6-15.4,42.2-16.2v-20.4h11.3v20.4c8.8,0.5,18.5,2.2,29.1,5.1
		c9.9,3.1,17.6,7.2,23.2,12.2v36.3h-4.8c-2.4-14-8.1-24.8-17-32.4s-19.1-11.7-30.5-12.1v79.8c23.7,12,40,22.8,49.2,32.4
		c9.1,9.6,13.7,22.4,13.7,38.3c0,6.2-1.1,12.2-3.2,18.1c-3.2,9.2-8.6,17-16.2,23.2c-5.8,4.9-12.8,8.5-21,11
		c-8.2,2.4-15.6,3.9-22.4,4.5v28.8h-11.4V360c-13.8-0.3-25.3-1.9-34.3-4.8c-6-1.9-14.7-5.8-26-11.8v-42.2h4.8L90.1,301.1L90.1,301.1
		z M145.6,152.7c-10,1.3-18,4.9-24.2,10.9s-9.2,13.6-9.2,22.8c0,8.7,4.4,17.4,13.2,26.1c5.5,5.3,12.3,10.2,20.2,14.8V152.7z
		 M178.9,342.6c10.3-7.1,15.4-18,15.4-32.6c0-10.2-3.8-19.1-11.3-26.9c-4.6-4.6-13.3-10.8-26.1-18.6v86.4
		C166.1,349.2,173.4,346.5,178.9,342.6z"/>
</g>
</svg>
