<?xml version="1.0" encoding="utf-8"?>
<!-- Generator: Adobe Illustrator 22.1.0, SVG Export Plug-In . SVG Version: 6.00 Build 0)  -->
<svg version="1.1" id="Layer_2" xmlns="http://www.w3.org/2000/svg" xmlns:xlink="http://www.w3.org/1999/xlink" x="0px" y="0px"
	 viewBox="0 0 512 512" style="enable-background:new 0 0 512 512;" xml:space="preserve">
<path d="M344.3,278.3c-9.5-8.9-21.8-17.6-35.1-25.9l139.3-136.6H425L294.7,243.7c-11.6-6.7-23.2-13.1-33.9-19.1l87.3-87.3l23.3-21.5
	c0,0-35.3-64.8-118.9-64.2c-83.6,0.6-144.8,74.2-109.5,149.5c12.7,27.2,33.4,46.6,56.2,62.1L63.5,398.9h23l126.7-126.7
	c11.1,6.7,22.5,12.8,33.5,18.6l-83.5,81.9l-30.5,28.6c0,0,57.9,73.6,153.3,56.5s104.5-84.7,101.3-108.3
	C383.2,319.5,375.6,307.9,344.3,278.3z M227.2,203.5c-22.4-18.2-39.9-28.2-40-53.6c-0.1-23.5,13.5-59.9,55.3-65.2
	c36.1-4.6,73.2,11.9,96.3,39l-92.5,92.5C238.5,211.6,231.9,207.4,227.2,203.5z M288.4,409.5c-14.1,5.4-70,15.2-113.9-25.1l87.4-85.7
	c19.2,10.3,36.2,20.5,47.1,33.1C343.7,371.9,303.7,403.7,288.4,409.5z"/>
</svg>
