<?xml version="1.0" standalone="no"?>
<!DOCTYPE svg PUBLIC "-//W3C//DTD SVG 20010904//EN"
 "http://www.w3.org/TR/2001/REC-SVG-20010904/DTD/svg10.dtd">
<svg version="1.0" xmlns="http://www.w3.org/2000/svg"
 width="512.000000pt" height="512.000000pt" viewBox="0 0 512.000000 512.000000"
 preserveAspectRatio="xMidYMid meet">

<g transform="translate(0.000000,512.000000) scale(0.100000,-0.100000)"
fill="#000000" stroke="none">
<path d="M40 4544 c-41 -17 -40 47 -40 -1984 0 -1855 1 -1948 18 -1963 16 -14
89 -16 712 -18 721 -1 827 3 1065 42 746 124 1149 490 1172 1069 9 239 -31
452 -120 625 -31 61 -62 102 -131 171 -82 82 -103 97 -216 153 -69 35 -127 64
-129 66 -1 2 30 20 70 41 169 84 321 206 397 317 47 68 90 160 114 244 29 100
31 322 5 450 -89 426 -423 668 -1037 752 -195 27 -362 33 -1090 37 -426 2
-782 1 -790 -2z m1765 -563 c200 -66 323 -191 355 -361 15 -77 12 -189 -6
-267 -44 -189 -167 -303 -379 -350 -70 -16 -137 -18 -555 -18 l-475 0 -3 513
-2 513 497 -3 c490 -3 499 -4 568 -27z m-22 -1779 c206 -57 339 -184 376 -360
26 -126 2 -310 -54 -406 -35 -60 -119 -137 -185 -169 -126 -61 -130 -61 -677
-65 l-503 -3 0 516 0 516 483 -3 c458 -4 486 -5 560 -26z"/>
<path d="M4080 3634 c-14 -2 -52 -9 -85 -15 -207 -36 -403 -134 -541 -273
-161 -161 -244 -366 -244 -603 0 -213 71 -378 233 -541 127 -129 278 -219 542
-324 215 -85 299 -131 371 -203 71 -70 94 -125 94 -223 0 -91 -17 -137 -72
-197 -82 -90 -190 -126 -379 -126 -209 0 -427 68 -627 193 -51 33 -65 38 -77
28 -16 -13 -175 -494 -175 -528 0 -15 23 -32 98 -70 237 -121 472 -174 777
-174 391 1 679 102 885 312 118 120 185 249 220 422 44 212 8 449 -91 614
-116 191 -306 333 -624 464 -336 138 -453 210 -496 305 -26 57 -25 153 2 210
28 60 107 129 170 150 193 64 474 18 699 -116 38 -22 77 -39 86 -37 13 2 39
66 101 243 45 132 82 251 80 265 -4 49 -244 153 -460 201 -69 15 -138 21 -277
24 -102 2 -196 2 -210 -1z"/>
</g>
</svg>
