<?xml version="1.0" encoding="utf-8"?>
<!-- Generator: Adobe Illustrator 22.1.0, SVG Export Plug-In . SVG Version: 6.00 Build 0)  -->
<svg version="1.1" id="Layer_3" xmlns="http://www.w3.org/2000/svg" xmlns:xlink="http://www.w3.org/1999/xlink" x="0px" y="0px"
	 viewBox="0 0 512 512" style="enable-background:new 0 0 512 512;" xml:space="preserve">
<g>
	<path d="M69.1,313.8c7.6-0.4,12.5-1.6,14.7-3.5c2.2-1.9,3.3-6.4,3.3-13.4V213c0-6.9-1.1-11.4-3.3-13.4c-2.2-2-7.1-3.2-14.7-3.5
		v-3.5h52.8c15.1,0,27.1,2.4,35.9,7.3c8.9,4.9,13.3,13.2,13.3,25.1c0,8.9-3.1,15.7-9.3,20.3c-3.5,2.6-8.7,4.8-15.7,6.5
		c8.7,2.1,16,5.6,22.2,10.4c6.1,4.9,9.2,11.7,9.2,20.5c0,14.7-6.8,24.8-20.4,30.3c-7.2,2.9-16,4.3-26.5,4.3H69.1V313.8z
		 M139.9,245.4c8-3.7,12-10.3,12-19.8c0-11.2-4.6-18.8-13.8-22.8c-5.1-2.2-12.8-3.2-23.2-3.2c-3.9,0-6.4,0.3-7.3,1
		c-0.9,0.7-1.4,2.5-1.4,5.5v42.6l17.9-0.3C130.5,248.3,135.8,247.3,139.9,245.4z M146,304.8c6.5-3.7,9.8-10.9,9.8-21.5
		c0-10.6-3.8-17.8-11.4-21.6c-7.6-3.9-17.3-5.8-29.1-5.8c-2.9,0-4.7,0-5.5,0c-0.8,0-1.9,0-3.5-0.1v46.9c0,3.3,0.9,5.4,2.8,6.3
		s6.1,1.4,12.8,1.4C131.4,310.4,139.5,308.6,146,304.8z"/>
	<path d="M201.3,288.3h3c1.4,7,3.3,12.4,5.7,16.1c4.3,6.9,10.6,10.3,18.8,10.3c4.6,0,8.2-1.3,10.9-3.8c2.7-2.5,4-5.8,4-9.9
		c0-2.6-0.8-5.1-2.3-7.5c-1.5-2.4-4.2-4.7-8.1-7l-10.3-5.9c-7.5-4.1-13.1-8.1-16.7-12.2c-3.6-4.1-5.3-9-5.3-14.5
		c0-6.9,2.5-12.5,7.4-16.9c4.9-4.4,11.1-6.6,18.5-6.6c3.3,0,6.8,0.6,10.7,1.8c3.9,1.2,6.1,1.8,6.6,1.8c1.1,0,1.9-0.2,2.4-0.5
		c0.5-0.3,0.9-0.8,1.3-1.5h2.2l0.6,25.7h-2.9c-1.2-6-2.9-10.6-5-13.9c-3.8-6.1-9.3-9.2-16.5-9.2c-4.3,0-7.7,1.3-10.1,4
		c-2.5,2.6-3.7,5.7-3.7,9.3c0,5.6,4.2,10.7,12.7,15.1l12.2,6.5c13.1,7.1,19.6,15.4,19.6,24.9c0,7.2-2.7,13.2-8.1,17.8
		c-5.4,4.6-12.5,6.9-21.3,6.9c-3.7,0-7.8-0.6-12.5-1.8c-4.7-1.2-7.4-1.8-8.3-1.8c-0.7,0-1.4,0.3-1.9,0.8c-0.6,0.5-1,1.2-1.3,1.9
		h-2.4V288.3z"/>
	<path d="M288.1,316.4c-2-2.1-3-4.5-3-7.4s1-5.3,3.1-7.4c2.1-2,4.5-3,7.4-3c2.9,0,5.3,1,7.4,3c2,2,3,4.5,3,7.4s-1,5.4-3,7.4
		c-2,2.1-4.5,3.1-7.4,3.1C292.6,319.5,290.1,318.4,288.1,316.4z"/>
	<path d="M314.1,313.8c7.4-0.8,12-2.2,13.9-4.1c1.8-1.9,2.7-6.9,2.7-15.1V213c0-6.7-1-11.1-3-13.1c-2-2.1-6.5-3.3-13.5-3.8v-3.5
		h100.4l0.6,27h-5.2c-1.3-8.6-3.7-14.1-7.3-16.4c-3.6-2.3-10.6-3.4-21.1-3.4h-25.8c-2.5,0-4.1,0.4-4.8,1.3s-1.1,2.5-1.1,5.1v42.1
		h27.3c8,0,13.2-1.2,15.4-3.6c2.2-2.4,4-7.2,5.3-14.5h4.4v43.5h-4.4c-1.4-7.3-3.2-12.1-5.4-14.5c-2.2-2.4-7.3-3.5-15.3-3.5h-27.3
		v41.2c0,6.9,1.1,11.3,3.2,13.2c2.1,1.9,6.7,3.2,13.9,3.7v3.5h-52.7V313.8z"/>
	<path d="M425.1,316.4c-2-2.1-3-4.5-3-7.4s1-5.3,3.1-7.4c2.1-2,4.5-3,7.4-3c2.9,0,5.3,1,7.4,3c2,2,3,4.5,3,7.4s-1,5.4-3,7.4
		c-2,2.1-4.5,3.1-7.4,3.1S427.1,318.4,425.1,316.4z"/>
</g>
</svg>
