<?xml version="1.0" encoding="utf-8"?>
<!-- Generator: Adobe Illustrator 22.1.0, SVG Export Plug-In . SVG Version: 6.00 Build 0)  -->
<svg version="1.1" id="Layer_2" xmlns="http://www.w3.org/2000/svg" xmlns:xlink="http://www.w3.org/1999/xlink" x="0px" y="0px"
	 viewBox="0 0 512 512" style="enable-background:new 0 0 512 512;" xml:space="preserve">
<g>
	<path d="M387.6,100.6h-40V84.7c0-11.2-2.4-19.7-7.3-25.5c-4.9-5.8-11.9-8.7-20.9-8.7c-9,0-16,3.1-20.9,9.4
		c-4.9,6.3-7.3,15.6-7.3,27.8v12.8h-35c-6,0-10.9,4.9-10.9,10.9c0,6,4.9,10.9,10.9,10.9h35v89.6c-11.2-12.3-22.8-19.2-34.6-25.1
		c-11.8-5.9-26.4-8.9-43.6-8.9c-29.8,0-53.8,10.4-72,31.3c-18.3,20.9-27.4,50-27.4,87.4c0,17.7,2.3,34.1,6.9,49.3
		c4.6,15.2,11.4,28.4,20.3,39.6c8.9,11.2,19.5,19.9,31.6,26c12.2,6.1,25.4,9.1,39.8,9.1c10.8,0,20.8-1.5,29.9-4.5
		c9.1-3,17.6-7.4,25.4-13.1c7.8-5.8,15.7-13.2,23.8-22.4v5.9c0,10.9,2.7,19.4,8,25.3c5.3,5.9,12.1,8.9,20.3,8.9
		c8.3,0,15.1-2.8,20.4-8.5c5.3-5.7,7.9-14.2,7.9-25.6V122.3h40c6,0,10.9-4.9,10.9-10.9C398.5,105.5,393.6,100.6,387.6,100.6z
		 M271.3,341c-5.2,11.3-12.1,19.7-20.8,25.2c-8.7,5.5-18.3,8.2-28.8,8.2c-10.4,0-19.9-2.9-28.7-8.7c-8.8-5.8-15.7-14.3-20.7-25.7
		c-5-11.4-7.6-25.2-7.6-41.4c0-15.3,2.4-28.8,7.1-40.4c4.7-11.6,11.4-20.5,20-26.7c8.6-6.2,18.4-9.3,29.3-9.3c10.5,0,20.2,3,29,9.1
		c8.8,6.1,15.8,14.8,21,26.3c5.2,11.5,7.8,25.2,7.8,41.1C279.1,315.6,276.5,329.7,271.3,341z M341.6,450.6c0,6-4.9,10.9-10.9,10.9
		H139.5c-6,0-10.9-4.9-10.9-10.9c0-6,4.9-10.9,10.9-10.9h191.3C336.8,439.7,341.6,444.6,341.6,450.6z"/>
</g>
</svg>
