<?xml version="1.0" encoding="utf-8"?>
<!-- Generator: Adobe Illustrator 22.1.0, SVG Export Plug-In . SVG Version: 6.00 Build 0)  -->
<svg version="1.1" id="Layer_2" xmlns="http://www.w3.org/2000/svg" xmlns:xlink="http://www.w3.org/1999/xlink" x="0px" y="0px"
	 viewBox="0 0 512 512" style="enable-background:new 0 0 512 512;" xml:space="preserve">
<path d="M145.8,155.8v5.1c-7.4,0.1-12.5,0.6-15.2,1.5c-4.7,1.6-7.1,4.8-7.1,9.6c0,2.5,0.8,5.9,2.5,10.3c1.7,4.4,4.9,11.8,9.5,22.1
	L182.1,308l42.3-112.2c1.9-5,3.3-9.2,4.3-12.6c1-3.4,1.5-6.3,1.5-8.4c0-5.8-2.5-9.7-7.4-11.8c-2.9-1.2-7.7-1.9-14.4-2.1v-5.1h60.9
	v5.1c-6.3,0.9-11,2.6-14,5.1c-4.6,3.8-9.1,11.4-13.5,22.8l-65.9,167.4h-4.5L97.8,192.6c-6.2-13.9-11.2-22.5-14.9-25.9
	c-3.7-3.4-9.2-5.3-16.4-5.8v-5.1H145.8z"/>
<path d="M275.6,155.8h168.3l1.6,50.6h-7.1c-3.5-15.9-7.9-26.2-13.3-31c-5.4-4.8-16.7-7.2-33.9-7.2h-16.6v152.3
	c0,11.5,1.8,18.6,5.4,21.3c3.6,2.7,11.4,4.6,23.5,5.4v5.5h-86.8v-5.5c12.6-1,20.4-3,23.5-6.2c3.1-3.2,4.7-11.2,4.7-24V168.1h-16.7
	c-16.5,0-27.7,2.4-33.6,7.1c-6,4.7-10.4,15.1-13.4,31.1h-7.3L275.6,155.8z"/>
</svg>
