<?xml version="1.0" encoding="utf-8"?>
<!-- Generator: Adobe Illustrator 22.1.0, SVG Export Plug-In . SVG Version: 6.00 Build 0)  -->
<svg version="1.1" id="Layer_2" xmlns="http://www.w3.org/2000/svg" xmlns:xlink="http://www.w3.org/1999/xlink" x="0px" y="0px"
	 viewBox="0 0 512 512" style="enable-background:new 0 0 512 512;" xml:space="preserve">
<path d="M109.1,179.3v4.1c-4.4,0.1-7.6,0.5-9.5,1.2c-3.3,1.2-5,3.5-5,6.8c0,1.5,0.2,2.9,0.6,4.2c0.4,1.4,1,3.2,1.8,5.3l32.3,83.9
	l23.6-62.5L142.4,195c-2-4.9-4.9-8.3-8.8-9.9c-2.3-1-5.8-1.6-10.6-1.6v-4.1h59.7v4.1c-5.6,0.1-9.4,0.5-11.5,1.2
	c-3.3,1.2-5,3.8-5,7.6c0,1.3,0.1,2.5,0.4,3.4c0.3,1,1,3,2.2,6l32.2,83.7l27.9-75.7c1.6-4.3,2.7-8.1,3.3-11.4
	c0.4-1.9,0.5-3.4,0.5-4.6c0-4.1-2-7-5.9-8.6c-2.2-0.9-5.4-1.5-9.8-1.6v-4.1h44.3v4.1c-4,0.6-7,1.5-9.2,2.7
	c-3.8,2.1-6.6,5.7-8.5,10.9l-23.4,66.5l-9,25.7l-14.1,40.3h-3.4L184,304l-25.8-68.7l-34.3,94.2h-3.4l-16.6-46.2L85.1,231
	c-7.8-21.6-13.2-34.8-16.3-39.7c-3.1-4.9-7.9-7.5-14.4-7.9v-4.1H109.1z"/>
<path d="M255.3,282c3.8,10,8.2,18,13.3,24c8.8,10.4,19.8,15.6,33,15.6c7.1,0,13.3-2.3,18.4-6.8c5.2-4.5,7.8-10.8,7.8-18.8
	c0-7.3-2.6-13.6-7.8-19c-3.4-3.4-10.6-8.5-21.5-15.4l-19-11.9c-5.7-3.6-10.3-7.3-13.7-11c-6.3-7-9.5-14.8-9.5-23.3
	c0-11.3,3.7-20.6,11.2-28.1c7.5-7.5,17.4-11.2,29.7-11.2c5.1,0,11.2,1.3,18.4,3.8c7.2,2.5,11.2,3.8,12.3,3.8c2.8,0,4.7-0.7,5.7-2
	c1.1-1.3,1.9-3.2,2.5-5.6h4.6l4.9,47.5h-5.3c-3.6-14.3-9.5-24.3-17.5-30c-8-5.7-16-8.5-23.8-8.5c-6.1,0-11.4,1.8-16,5.4
	c-4.5,3.6-6.8,8.6-6.8,15c0,5.7,1.7,10.6,5.2,14.7c3.5,4.1,8.9,8.5,16.2,13l19.6,12.1c12.3,7.6,20.9,14.5,25.9,20.8
	c5,6.4,7.4,13.9,7.4,22.7c0,11.7-4.4,21.5-13.2,29.3c-8.8,7.8-20.1,11.8-33.8,11.8c-6.9,0-14.1-1.3-21.6-3.9
	c-7.5-2.6-11.8-3.9-12.9-3.9c-2.6,0-4.4,0.8-5.3,2.4c-0.9,1.6-1.5,3.3-1.8,5.1h-4.9l-6.6-47.5H255.3z"/>
<path d="M358.7,290.3c2.4,10,5.5,17.7,9.5,23c7.3,9.7,18.2,14.6,32.8,14.9V258c-16-9.4-26.6-16.7-31.7-21.8
	c-8.3-8.1-12.4-17.5-12.4-28.4c0-9.2,4-17.6,12-25.2c8-7.6,18.7-11.7,32.2-12.3v-15.5h8.6v15.5c6.7,0.4,14.1,1.7,22.2,3.9
	c7.5,2.4,13.4,5.5,17.7,9.3v27.7h-3.7c-1.8-10.7-6.2-18.9-13-24.7c-6.8-5.8-14.6-8.9-23.2-9.2v60.8c18.1,9.1,30.5,17.4,37.5,24.7
	c6.9,7.3,10.4,17.1,10.4,29.2c0,4.7-0.8,9.3-2.4,13.8c-2.4,7-6.6,13-12.3,17.7c-4.4,3.7-9.8,6.5-16,8.4c-6.2,1.8-11.9,3-17.1,3.4
	v21.9H401v-21.9c-10.5-0.2-19.3-1.4-26.1-3.7c-4.6-1.4-11.2-4.4-19.8-9v-32.2L358.7,290.3L358.7,290.3L358.7,290.3z M401,177.2
	c-7.6,1-13.7,3.7-18.4,8.3c-4.7,4.6-7,10.4-7,17.4c0,6.6,3.4,13.3,10.1,19.9c4.2,4,9.4,7.8,15.4,11.3v-56.9H401L401,177.2z
	 M426.3,321.9c7.8-5.4,11.7-13.7,11.7-24.8c0-7.8-2.9-14.6-8.6-20.5c-3.5-3.5-10.1-8.2-19.9-14.2v65.8
	C416.6,326.9,422.1,324.9,426.3,321.9z"/>
</svg>
