<?xml version="1.0" encoding="utf-8"?>
<!-- Generator: Adobe Illustrator 22.1.0, SVG Export Plug-In . SVG Version: 6.00 Build 0)  -->
<svg version="1.1" id="Layer_3" xmlns="http://www.w3.org/2000/svg" xmlns:xlink="http://www.w3.org/1999/xlink" x="0px" y="0px"
	 viewBox="0 0 512 512" style="enable-background:new 0 0 512 512;" xml:space="preserve">
<g>
	<path d="M45.7,310.3c6.9-0.7,11.2-2,12.9-3.8c1.7-1.8,2.5-6.5,2.5-14v-75.9c0-6.2-0.9-10.3-2.8-12.2c-1.9-1.9-6.1-3.1-12.6-3.6
		v-3.3h93.3l0.6,25.1h-4.9c-1.2-8-3.5-13.1-6.8-15.2c-3.3-2.1-9.8-3.2-19.6-3.2h-24c-2.3,0-3.8,0.4-4.5,1.2c-0.7,0.8-1,2.4-1,4.7
		v39.1h25.4c7.5,0,12.2-1.1,14.3-3.3c2.1-2.2,3.7-6.7,5-13.4h4.1V273h-4.1c-1.3-6.8-3-11.3-5-13.5c-2.1-2.2-6.8-3.3-14.2-3.3H78.9
		v38.3c0,6.4,1,10.5,3,12.3c2,1.8,6.3,2.9,12.9,3.4v3.3h-49V310.3z"/>
	<path d="M225.5,198.4c6.7,1.9,10.4,2.8,11.2,2.8c1.7,0,3.2-0.5,4.7-1.4c1.5-0.9,2.5-2.3,3.1-4.3h3.7l1.6,39.4h-4
		c-2.3-7.8-5.4-14.1-9.2-18.9c-7.2-9-16.9-13.5-29-13.5c-12.3,0-22.3,4.8-30.1,14.5c-7.8,9.7-11.7,23-11.7,40
		c0,15.6,4.1,28.1,12.3,37.4c8.2,9.3,18.6,14,31.1,14c9.1,0,17.4-2.2,25.1-6.5c4.4-2.5,9.2-6.2,14.5-11.1l3.3,3.3
		c-3.9,4.9-8.7,9.2-14.5,12.9c-9.8,6.3-20.4,9.4-31.9,9.4c-18.8,0-33.8-6-44.8-18.1c-10.2-11.1-15.3-25-15.3-41.7
		c0-17.1,5.4-31.4,16.2-43c11.3-12.1,26.1-18.2,44.3-18.2C212.4,195.6,218.9,196.5,225.5,198.4z"/>
	<path d="M260,310.3c6.9-0.7,11.2-2,12.9-3.8c1.7-1.8,2.5-6.5,2.5-14v-75.9c0-6.2-0.9-10.3-2.8-12.2c-1.9-1.9-6.1-3.1-12.6-3.6v-3.3
		h93.3l0.6,25.1h-4.9c-1.2-8-3.5-13.1-6.8-15.2c-3.3-2.1-9.8-3.2-19.6-3.2h-24c-2.3,0-3.8,0.4-4.5,1.2c-0.7,0.8-1,2.4-1,4.7v39.1
		h25.4c7.5,0,12.2-1.1,14.3-3.3c2.1-2.2,3.7-6.7,5-13.4h4.1V273h-4.1c-1.3-6.8-3-11.3-5-13.5c-2.1-2.2-6.8-3.3-14.2-3.3h-25.4v38.3
		c0,6.4,1,10.5,3,12.3c2,1.8,6.3,2.9,12.9,3.4v3.3h-49V310.3z"/>
	<path d="M345.2,313.5v-3.3c4.5-0.5,7.9-2.2,10.1-5.1c2.3-2.9,6.1-10.8,11.6-23.7l36.5-86h3.5l43.7,99.3c2.9,6.6,5.2,10.7,7,12.2
		c1.7,1.6,4.7,2.6,8.8,3.2v3.3h-44.6v-3.3c5.1-0.5,8.4-1,9.9-1.7c1.5-0.7,2.2-2.3,2.2-4.8c0-0.8-0.3-2.4-0.9-4.5
		c-0.6-2.2-1.4-4.4-2.4-6.8l-7-16.9h-46.2c-4.6,11.5-7.3,18.5-8.2,21c-0.9,2.5-1.3,4.5-1.3,6c0,3,1.2,5,3.6,6.1
		c1.5,0.7,4.3,1.2,8.4,1.5v3.3H345.2z M420.6,268.5l-20.1-48.3l-20.2,48.3H420.6z"/>
</g>
</svg>
