<?xml version="1.0" encoding="utf-8"?>
<!-- Generator: Adobe Illustrator 22.1.0, SVG Export Plug-In . SVG Version: 6.00 Build 0)  -->
<svg version="1.1" id="Layer_2" xmlns="http://www.w3.org/2000/svg" xmlns:xlink="http://www.w3.org/1999/xlink" x="0px" y="0px"
	 viewBox="0 0 512 512" style="enable-background:new 0 0 512 512;" xml:space="preserve">
<path d="M244.9,300.5h42.6v11.7h-42.6v12c0,10.7,0.7,17.7,2,21.2c1,2.6,3.2,4.8,6.5,6.7c4.6,2.5,9.3,3.7,14.3,3.7h7.6v5.8h-90.6
	v-5.8h7.5c8.7,0,15-2.5,19-7.6c2.5-3.3,3.7-11.3,3.7-24v-12h-30.2v-11.7H215V187.8c0-13.8-1.6-22.2-4.7-25.2
	c-4.4-4.3-10.4-6.4-18.1-6.4h-7.5v-5.8h140.5l1.9,46.4h-5.3c-2.8-9.9-6-17.1-9.6-21.7c-3.6-4.6-8-8-13.2-10
	c-5.2-2.1-13.3-3.1-24.2-3.1h-30V245h27.5c8.8,0,15.2-1.9,19.3-5.8c4-3.9,6.8-11.6,8.2-23.1h5.6v71.4H300
	c-0.1-8.2-1.2-14.2-3.2-18.1c-2-3.8-4.8-6.7-8.5-8.6s-8.9-2.9-15.9-2.9h-27.5V300.5z"/>
</svg>
