<?xml version="1.0" encoding="utf-8"?>
<!-- Generator: Adobe Illustrator 22.1.0, SVG Export Plug-In . SVG Version: 6.00 Build 0)  -->
<svg version="1.1" id="Layer_2" xmlns="http://www.w3.org/2000/svg" xmlns:xlink="http://www.w3.org/1999/xlink" x="0px" y="0px"
	 viewBox="0 0 512 512" style="enable-background:new 0 0 512 512;" xml:space="preserve">
<style type="text/css">
	.st0{fill:#020202;}
</style>
<path class="st0" d="M98.9,166.1c0,0-44.2,35.6-44.2,99.4s74.8,49.1,90.8,46.6s61.3-14.7,83.4-40.5s2.5-49.1-23.3-49.1
	s-68.7-4.9-34.3-27s49.1-20.9,56.4-12.3c7.4,8.6,30.7-24.5,6.1-34.3c-24.5-9.8-77.3,24.5-87.1,50.3c-9.8,25.8-11,47.8,19.6,49.1
	s54,8.6,27,22.1c-27,13.5-100.6,18.4-109.2,3.7C75.6,259.3,64.6,237.2,98.9,166.1z"/>
<polygon class="st0" points="105.1,339 122.2,320.6 149.2,342.7 135.7,364.8 "/>
<polygon class="st0" points="149.2,339 166.4,320.6 193.4,342.7 179.9,364.8 "/>
<circle class="st0" cx="285.4" cy="282.6" r="17.2"/>
<path class="st0" d="M408.1,239.7l14.7-25.8c0,0,36.8,15.9,34.3,61.3c-2.5,45.4-27,65-50.3,78.5c-23.3,13.5-67.5,6.1-85.9-29.4
	c0,0,47.3,26.7,83.4-2.5c31.9-25.8,31.9-46.6,23.3-60.1C419.1,248.3,408.1,239.7,408.1,239.7z"/>
</svg>
