<?xml version="1.0" encoding="utf-8"?>
<!-- Generator: Adobe Illustrator 22.1.0, SVG Export Plug-In . SVG Version: 6.00 Build 0)  -->
<svg version="1.1" id="Layer_2" xmlns="http://www.w3.org/2000/svg" xmlns:xlink="http://www.w3.org/1999/xlink" x="0px" y="0px"
	 viewBox="0 0 512 512" style="enable-background:new 0 0 512 512;" xml:space="preserve">
<g>
	<g>
		<path d="M309.9,270.5c28.4-24.4,39.6-48,39.6-83.6c0-25.2-9.1-47.1-25.7-61.8c-20-18.1-48-26.1-90.9-26.1l-73.7,0.2
			c-3.9,0-7.1,3.2-7.1,7.1v299.5c0,3.9,3.2,7.1,7.1,7.1h38.4c3.9,0,7.1-3.2,7.1-7.1V284.1h56.9l45,124.2c1,2.8,3.7,4.7,6.7,4.7h39.7
			c2.3,0,4.5-1.1,5.8-3.1c1.3-1.9,1.6-4.3,0.8-6.5L309.9,270.5z M296.8,191.3c0,30-23.5,49.4-60,49.4h-32.2v-97.9l30.8,0
			C276.1,143.3,296.8,159.6,296.8,191.3z"/>
	</g>
</g>
</svg>
