<?xml version="1.0" encoding="utf-8"?>
<!-- Generator: Adobe Illustrator 22.1.0, SVG Export Plug-In . SVG Version: 6.00 Build 0)  -->
<svg version="1.1" id="Layer_3" xmlns="http://www.w3.org/2000/svg" xmlns:xlink="http://www.w3.org/1999/xlink" x="0px" y="0px"
	 viewBox="0 0 512 512" style="enable-background:new 0 0 512 512;" xml:space="preserve">
<g>
	<g>
		<path d="M398.8,272.4c-2.1-5.8-5.4-10.7-9.6-14.6c-4.3-4-9.8-7.4-16.3-10.1c-5.8-2.5-12.6-4.9-20.2-7.3v-55.8
			c12.7,3.1,19.7,11.5,20.7,25h0l0.1,1.5c0.2,6.3,5.4,11.3,11.7,11.3c6.8,0,11.9-5,12-11.7l-0.2-2.1c-1.7-27.7-16.2-43.1-44.3-46.7
			v-30.1c0-6.3-5.1-11.4-11.4-11.4c-6.3,0-11.4,5.1-11.4,11.4v29.8c-5,0.6-9.7,1.7-14.1,3.4c-6.7,2.6-12.6,6.2-17.3,10.8
			c-4.7,4.5-8.4,9.9-10.9,16.1c-2.5,6.2-3.8,13.1-3.8,20.6c0,8.3,1,15.3,2.9,20.8c1.9,5.4,4.8,10,8.8,13.7c4,3.8,9.2,7,15.4,9.7
			c5.4,2.3,11.8,4.6,19,6.8v63.5c-16.3-3.5-25-14.4-25.6-32.4v-1.5c0-6.4-5.3-11.7-11.7-11.7c-6.9,0-11.9,4.9-12,11.7
			c1.7,34.6,17.9,53.4,49.4,57.3v30c0,6.3,5.1,11.4,11.4,11.4c6.3,0,11.4-5.1,11.4-11.4v-29.9c5.4-0.7,10.5-1.9,15.1-3.8
			c7.2-3,13.4-7.1,18.5-12.2c5.1-5.1,9-11.1,11.7-18c2.7-6.8,4.1-14.4,4.1-22.3C402,285.6,400.9,278.3,398.8,272.4z M329.8,233.3
			c-1.2-0.4-2.3-0.8-3.4-1.1c-5.7-2-9.9-3.9-12.7-6c-2.9-2.2-4.8-4.6-5.4-7.3c-0.6-2.4-0.9-5.6-0.9-9.4c0-4.4,0.9-8.3,2.6-11.7
			c1.7-3.4,4.2-6.1,7.3-8.3c3-2.1,6.5-3.7,10.5-4.8c0.7-0.2,1.4-0.3,2.1-0.5L329.8,233.3L329.8,233.3z M369.6,319.8
			c-4.1,3.9-9.8,6.4-17,7.6v-56.6c1.2,0.4,2.3,0.8,3.4,1.2c5.8,2.1,10.4,4.3,13.7,6.5c3.4,2.3,5.7,5,6.9,7.9
			c1.2,2.9,1.8,6.4,1.8,10.5C378.3,306.6,375.4,314.2,369.6,319.8z"/>
		<path d="M256.6,319.7h-95.7l2.5-2.9c6.1-7.1,11.5-14.1,15.6-19.4l79-102.7c0.5-0.6,0.7-1.4,0.7-2.1v-20c0-1.9-1.6-3.5-3.5-3.5
			H120.8c-1.9,0-3.5,1.6-3.5,3.5V198c0,1.9,1.6,3.5,3.5,3.5h88.6l-2.5,2.9c-5.3,6.2-10.4,12.4-16.5,19.9L110.7,328
			c-0.5,0.6-0.7,1.4-0.7,2.1v18.6c0,1.9,1.6,3.5,3.5,3.5h143.1c1.9,0,3.5-1.6,3.5-3.5v-25.5C260.1,321.2,258.5,319.7,256.6,319.7z"
			/>
	</g>
</g>
</svg>
